<svg width="72" height="72" viewBox="0 0 72 72" fill="none" xmlns="http://www.w3.org/2000/svg">
<path fill-rule="evenodd" clip-rule="evenodd" d="M19.5233 49.5128C18.3551 48.7993 17.6406 47.5285 17.6406 46.1639V38.5441C17.6406 38.2523 17.7189 37.9711 17.8649 37.7212C18.3186 36.9399 19.3251 36.6743 20.1074 37.1326L37.3279 47.1587C38.3344 47.7473 38.9551 48.8201 38.9551 49.9868V57.8826C38.9551 58.2421 38.8559 58.6014 38.6681 58.9087C38.0997 59.8357 36.8898 60.1275 35.9615 59.5597L19.5233 49.5128ZM45.1924 35.044C46.1989 35.6326 46.8195 36.7055 46.8195 37.8722V53.893C46.8195 54.367 46.564 54.8045 46.1519 55.0336L42.3814 57.1535C42.3344 57.1795 42.2823 57.2004 42.2301 57.2159V48.3201C42.2301 47.1691 41.6252 46.1013 40.6343 45.5076L25.5103 36.4712V26.4294C25.5103 26.1378 25.5885 25.8566 25.7346 25.6065C26.1883 24.8253 27.1948 24.5596 27.9771 25.018L45.1924 35.044ZM52.7282 23.2107C53.7401 23.794 54.3606 24.8774 54.3606 26.0441V49.4451C54.3606 49.9242 54.0946 50.367 53.6722 50.5962L50.0998 52.5233V36.2316C50.0998 35.0805 49.4948 34.018 48.5092 33.4243L33.0515 24.1638V14.6377C33.0515 14.3461 33.1296 14.0648 33.2704 13.8148C33.7242 13.0336 34.7307 12.768 35.513 13.2211L52.7282 23.2107Z" fill="#F1EBE7"/>
</svg>
