<svg width="72" height="72" viewBox="0 0 72 72" fill="none" xmlns="http://www.w3.org/2000/svg">
<path d="M19.9438 24.2123C20.3866 23.3846 21.0255 22.679 21.8043 22.1576L34.8746 13L21.4825 35.219C21.4825 35.219 20.3124 33.2349 19.856 32.231C19.2874 30.9688 19.0006 29.5971 19.0157 28.2119C19.0309 26.8268 19.3477 25.4617 19.9438 24.2123ZM14.5495 39.5396C14.6971 41.6644 15.2954 43.733 16.3044 45.607C17.3135 47.481 18.7099 49.1169 20.4001 50.4055L34.8569 60.52C34.8569 60.52 25.812 47.441 18.1828 34.4266C17.4104 33.0516 16.8912 31.5482 16.6499 29.9886C16.5431 29.2824 16.5431 28.564 16.6499 27.8577C16.451 28.2275 16.0649 28.9848 16.0649 28.9848C15.2913 30.5678 14.7644 32.2605 14.5027 34.0038C14.3521 35.8468 14.3678 37.6995 14.5495 39.5396ZM51.4083 41.3007C50.9402 40.2968 49.7819 38.3127 49.7819 38.3127L36.4132 60.52L49.4836 51.3683C50.2624 50.847 50.9012 50.1413 51.344 49.3136C51.9402 48.0642 52.2569 46.6991 52.2722 45.3139C52.2873 43.9289 51.977 42.563 51.4083 41.3007ZM56.7148 33.9864C56.5673 31.8615 55.9689 29.7929 54.9599 27.9189C53.951 26.0449 52.5546 24.4089 50.8642 23.1204L36.4309 13C36.4309 13 45.47 26.079 53.1049 39.0934C53.8754 40.4688 54.3926 41.9721 54.632 43.5314C54.7388 44.2376 54.7388 44.956 54.632 45.6624C54.8309 45.2924 55.217 44.5351 55.217 44.5351C55.9906 42.9522 56.5176 41.2595 56.7793 39.5162C56.9318 37.6734 56.8947 35.8266 56.7148 33.9864Z" fill="#F1EBE7"/>
</svg>
