<svg width="72" height="72" viewBox="0 0 72 72" fill="none" xmlns="http://www.w3.org/2000/svg">
<rect width="72" height="72" fill="url(#paint0_linear_68_744)"/>
<path d="M48.1939 14.7951L57.521 28.3635C57.9543 28.9819 58.2217 29.7012 58.2976 30.4525C58.3735 31.2038 58.2552 31.9619 57.9542 32.6545C57.5384 33.6255 56.6435 34.3194 55.6238 34.559C54.5404 34.8127 53.6024 34.4446 52.6283 34.0623C52.4784 34.0035 52.3277 33.9444 52.1755 33.8871L52.1725 33.8858L52.1691 33.8856C52.1669 33.8859 52.1649 33.887 52.1634 33.8887C52.1619 33.8904 52.1611 33.8926 52.1612 33.8948C52.1612 33.8971 52.162 33.8992 52.1635 33.9009C53.1961 35.6479 54.0771 37.4802 54.7968 39.3777C55.1419 40.2854 54.7142 41.3437 53.7964 41.6723C53.415 41.8078 52.9981 41.8043 52.6191 41.6624C52.2401 41.5205 51.9234 41.2493 51.7248 40.8967C51.7248 40.8967 48.337 35.3318 45.6065 32.7224C43.1788 30.4002 40.5372 28.3727 37.6212 26.94C34.7053 25.5072 31.5736 24.6867 28.3721 24.4058C25.1707 24.1249 21.9151 24.3847 18.6348 24.9308C17.0919 25.1869 15.5398 24.2782 15.1405 22.7647C14.7091 21.13 15.5793 19.7358 17.2837 19.097H17.3011C32.6828 13.9229 45.6325 23.5806 46.5877 24.293L46.5987 24.3012L46.6043 24.3019L46.6094 24.2991L46.6109 24.297L46.6118 24.2939L46.6106 24.2883C44.5041 21.2292 43.6239 18.7363 43.5248 16.3811C43.4165 13.7974 46.729 12.6684 48.1939 14.7951Z" fill="white"/>
<path d="M23.8546 56.8993L14.4752 43.2546C14.0434 42.6365 13.7772 41.9181 13.702 41.1679C13.6268 40.4177 13.7451 39.6607 14.0456 38.9692C14.4577 38.0009 15.3536 37.3033 16.3733 37.0684C17.4541 36.8143 18.3959 37.1836 19.3722 37.5664C19.521 37.6247 19.6706 37.6834 19.8216 37.7402C19.8236 37.7409 19.8257 37.7409 19.8277 37.7404C19.8296 37.7398 19.8314 37.7386 19.8327 37.737L19.8342 37.7344L19.8349 37.7314C19.8351 37.7294 19.8346 37.7273 19.8336 37.7255C18.804 35.9839 17.9252 34.1575 17.2067 32.2662C16.8717 31.3814 17.2452 30.3488 18.119 29.9817C18.5071 29.8206 18.9407 29.8074 19.3378 29.9448C19.7349 30.0822 20.0677 30.3605 20.2732 30.727C20.2732 30.727 23.6619 36.2919 26.3915 38.9013C28.8192 41.2225 31.4617 43.2519 34.3768 44.6837C37.2918 46.1155 40.4226 46.9361 43.6249 47.2169C46.8273 47.4978 50.082 47.2436 53.3632 46.6928C54.9052 46.4359 56.4573 47.3445 56.8556 48.8571C57.2834 50.4936 56.4178 51.8851 54.7134 52.5221C54.7073 52.5225 54.7011 52.5225 54.695 52.5221C39.3336 57.6907 26.3897 48.0557 25.412 47.328L25.3984 47.3179C25.3874 47.3115 25.381 47.3234 25.3874 47.3326C27.504 50.4074 28.3823 52.9103 28.4741 55.2765C28.5742 57.863 25.3232 59.0323 23.8546 56.8993Z" fill="white"/>
<defs>
<linearGradient id="paint0_linear_68_744" x1="72" y1="-4.29153e-06" x2="4.29153e-06" y2="72" gradientUnits="userSpaceOnUse">
<stop stop-color="#E38193"/>
<stop offset="1" stop-color="#AD1BEB"/>
</linearGradient>
</defs>
</svg>
