<svg width="72" height="72" viewBox="0 0 72 72" fill="none" xmlns="http://www.w3.org/2000/svg">
<rect width="72" height="72" rx="8" fill="white"/>
<rect width="72" height="72" fill="#FF0420"/>
<path fill-rule="evenodd" clip-rule="evenodd" d="M19.2375 43.9411C20.6065 44.9498 22.3627 45.4543 24.5063 45.4543C27.1003 45.4543 29.1717 44.8507 30.7209 43.6439C32.27 42.419 33.3598 40.5727 33.9903 38.1048C34.3685 36.5918 34.6928 35.0336 34.963 33.4304C35.0531 32.854 35.0982 32.3766 35.0982 31.9983C35.0982 30.7375 34.7828 29.6566 34.1524 28.756C33.522 27.8373 32.6574 27.1527 31.5585 26.7024C30.4597 26.2341 29.2168 26 27.8298 26C22.732 26 19.5707 28.4768 18.3458 33.4304C17.9135 35.2497 17.5803 36.8079 17.346 38.1048C17.256 38.6812 17.2109 39.1676 17.2109 39.5639C17.2109 41.4554 17.8864 42.9144 19.2375 43.9411ZM27.4515 40.6717C26.7489 41.2662 25.8934 41.5634 24.8846 41.5634C23.1554 41.5634 22.2907 40.7348 22.2907 39.0775C22.2907 38.6812 22.3267 38.3029 22.3988 37.9428C22.723 36.1955 23.0473 34.7183 23.3715 33.5115C23.6777 32.2866 24.1821 31.377 24.8846 30.7824C25.6051 30.188 26.4697 29.8907 27.4786 29.8907C29.1897 29.8907 30.0454 30.7104 30.0454 32.3495C30.0454 32.746 30.0094 33.1332 29.9374 33.5115C29.7212 34.7723 29.4059 36.2495 28.9916 37.9428C28.6854 39.1676 28.1721 40.0773 27.4515 40.6717Z" fill="white"/>
<path fill-rule="evenodd" clip-rule="evenodd" d="M35.8793 44.9949C35.9873 45.121 36.1406 45.1841 36.3387 45.1841H40.0134C40.1934 45.1841 40.3647 45.121 40.5268 44.9949C40.6888 44.8688 40.7879 44.7067 40.824 44.5086L42.0669 38.5912H45.7145C48.0743 38.5912 49.9297 38.0959 51.2807 37.1051C52.6497 36.1144 53.5594 34.5833 54.0097 32.5117C54.1178 32.0254 54.1718 31.557 54.1718 31.1067C54.1718 29.5395 53.5594 28.3417 52.3344 27.513C51.1275 26.6844 49.5244 26.2701 47.5249 26.2701H40.3376C40.1574 26.2701 39.9864 26.3332 39.8242 26.4592C39.6621 26.5854 39.563 26.7475 39.527 26.9456L35.7983 44.5086C35.7623 44.6887 35.7892 44.8508 35.8793 44.9949ZM47.8761 34.241C47.3177 34.6553 46.6602 34.8625 45.9038 34.8625H42.7964L43.8231 30.0259H47.0656C47.8041 30.0259 48.3264 30.17 48.6327 30.4582C48.939 30.7284 49.0921 31.1247 49.0921 31.6471C49.0921 31.8812 49.065 32.1514 49.011 32.4577C48.8309 33.2323 48.4526 33.8267 47.8761 34.241Z" fill="white"/>
</svg>
