<svg width="24" height="24" viewBox="0 0 24 24" fill="currentColor" xmlns="http://www.w3.org/2000/svg">
<rect y="2" width="2" height="2" />
<rect y="10" width="2" height="2" />
<rect x="22" y="10" width="2" height="2" />
<rect y="4" width="2" height="2" />
<rect x="22" y="4" width="2" height="2" />
<rect y="12" width="2" height="2" />
<rect x="22" y="12" width="2" height="2" />
<rect y="6" width="2" height="2" />
<rect x="22" y="6" width="2" height="2" />
<rect y="14" width="2" height="2" />
<rect x="22" y="14" width="2" height="2" />
<rect y="18" width="2" height="2" />
<rect x="22" y="18" width="2" height="2" />
<rect y="8" width="2" height="2" />
<rect x="22" y="8" width="2" height="2" />
<rect y="16" width="2" height="2" />
<rect x="22" y="16" width="2" height="2" />
<rect y="20" width="2" height="2" />
<rect x="22" y="20" width="2" height="2" />
<rect x="22" y="2" width="2" height="2" />
<rect x="2" width="2" height="2" />
<rect x="2" y="22" width="2" height="2" />
<rect x="10" width="2" height="2" />
<rect x="10" y="22" width="2" height="2" />
<rect x="4" width="2" height="2" />
<rect x="4" y="22" width="2" height="2" />
<rect x="12" width="2" height="2" />
<rect x="12" y="22" width="2" height="2" />
<rect x="6" width="2" height="2" />
<rect x="6" y="22" width="2" height="2" />
<rect x="14" width="2" height="2" />
<rect x="14" y="22" width="2" height="2" />
<rect x="18" width="2" height="2" />
<rect x="18" y="22" width="2" height="2" />
<rect x="8" width="2" height="2" />
<rect x="8" y="22" width="2" height="2" />
<rect x="16" width="2" height="2" />
<rect x="16" y="22" width="2" height="2" />
<rect x="20" width="2" height="2" />
<rect x="20" y="22" width="2" height="2" />
</svg>
