<svg width="48" height="48" viewBox="0 0 48 48" fill="currentColor" xmlns="http://www.w3.org/2000/svg">
<rect x="26" y="22" width="2" height="2" />
<rect x="26" y="26" width="2" height="2" />
<rect x="28" y="28" width="2" height="2" />
<rect x="30" y="28" width="2" height="2" />
<rect x="20" y="22" width="2" height="2" />
<rect x="20" y="38" width="2" height="2" />
<rect x="22" y="38" width="2" height="2" />
<rect x="20" y="11" width="2" height="2" />
<rect x="17" y="14" width="2" height="2" />
<rect x="18" y="12" width="2" height="2" />
<rect x="24" y="38" width="2" height="2" />
<rect x="18" y="20" width="2" height="2" />
<rect x="17" y="18" width="2" height="2" />
<rect x="17" y="16" width="2" height="2" />
<rect x="26" y="11" width="2" height="2" />
<rect x="28" y="12" width="2" height="2" />
<rect x="29" y="14" width="2" height="2" />
<rect x="26" y="38" width="2" height="2" />
<rect x="22" y="10" width="2" height="2" />
<rect x="28" y="20" width="2" height="2" />
<rect x="28" y="38" width="2" height="2" />
<rect x="24" y="10" width="2" height="2" />
<rect x="29" y="16" width="2" height="2" />
<rect x="29" y="18" width="2" height="2" />
<rect x="22" y="24" width="2" height="2" />
<rect x="24" y="24" width="2" height="2" />
<rect x="20" y="26" width="2" height="2" />
<rect x="22" y="26" width="2" height="2" />
<rect x="16" y="28" width="2" height="2" />
<rect x="18" y="28" width="2" height="2" />
<rect x="24" y="26" width="2" height="2" />
<rect x="28" y="34" width="2" height="2" />
<rect x="28" y="32" width="2" height="2" />
<rect x="29" y="33" width="2" height="2" />
<rect x="27" y="33" width="2" height="2" />
<rect x="34" y="32" width="2" height="2" />
<rect x="12" y="32" width="2" height="2" />
<rect x="14" y="30" width="2" height="2" />
<rect x="32" y="30" width="2" height="2" />
<rect x="34" y="38" width="2" height="2" />
<rect x="30" y="38" width="2" height="2" />
<rect x="32" y="38" width="2" height="2" />
<rect x="34" y="34" width="2" height="2" />
<rect x="12" y="36" width="2" height="2" />
<rect x="34" y="36" width="2" height="2" />
<rect x="12" y="34" width="2" height="2" />
<rect x="14" y="38" width="2" height="2" />
<rect x="12" y="38" width="2" height="2" />
<rect x="18" y="38" width="2" height="2" />
<rect x="16" y="38" width="2" height="2" />
</svg>
