<svg width="24" height="24" viewBox="0 0 24 24" fill="currentColor" xmlns="http://www.w3.org/2000/svg">
<rect x="4" y="13" width="2" height="2" />
<rect x="4" y="11" width="2" height="2" />
<rect x="4" y="9" width="2" height="2" />
<rect x="5" y="7" width="2" height="2" />
<rect x="15" y="5" width="2" height="2" />
<rect x="18" y="11" width="2" height="2" />
<rect x="17" y="10" width="2" height="2" />
<rect x="19" y="10" width="2" height="2" />
<rect x="9" y="4" width="2" height="2" />
<rect x="11" y="4" width="2" height="2" />
<rect x="13" y="4" width="2" height="2" />
<rect x="7" y="5" width="2" height="2" />
<rect x="16" y="11" width="2" height="2" />
<rect x="20" y="11" width="2" height="2" />
<rect x="5" y="15" width="2" height="2" />
<rect x="7" y="17" width="2" height="2" />
<rect x="9" y="18" width="2" height="2" />
<rect x="11" y="18" width="2" height="2" />
<rect x="13" y="18" width="2" height="2" />
<rect x="18" y="9" width="2" height="2" />
<rect x="18" y="13" width="2" height="2" />
<rect x="17" y="15" width="2" height="2" />
<rect x="15" y="17" width="2" height="2" />
</svg>
