<svg width="48" height="48" viewBox="0 0 48 48" fill="currentColor" xmlns="http://www.w3.org/2000/svg">
<rect x="12" y="16" width="2" height="2" />
<rect x="34" y="16" width="2" height="2" />
<rect x="12" y="14" width="2" height="2" />
<rect x="34" y="14" width="2" height="2" />
<rect x="12" y="20" width="2" height="2" />
<rect x="34" y="20" width="2" height="2" />
<rect x="12" y="18" width="2" height="2" />
<rect x="34" y="18" width="2" height="2" />
<rect x="12" y="12" width="2" height="2" />
<rect x="34" y="12" width="2" height="2" />
<rect x="12" y="10" width="2" height="2" />
<rect x="34" y="10" width="2" height="2" />
<rect x="34" y="8" width="2" height="2" />
<rect x="32" y="8" width="2" height="2" />
<rect x="30" y="8" width="2" height="2" />
<rect x="28" y="8" width="2" height="2" />
<rect x="12" y="8" width="2" height="2" />
<rect x="26" y="8" width="2" height="2" />
<rect x="12" y="28" width="2" height="2" />
<rect x="12" y="30" width="2" height="2" />
<rect x="12" y="32" width="2" height="2" />
<rect x="14" y="8" width="2" height="2" />
<rect x="16" y="12" width="2" height="2" />
<rect x="12" y="34" width="2" height="2" />
<rect x="16" y="8" width="2" height="2" />
<rect x="18" y="12" width="2" height="2" />
<rect x="12" y="36" width="2" height="2" />
<rect x="18" y="8" width="2" height="2" />
<rect x="20" y="12" width="2" height="2" />
<rect x="16" y="32" width="2" height="2" />
<rect x="12" y="38" width="2" height="2" />
<rect x="20" y="8" width="2" height="2" />
<rect x="22" y="12" width="2" height="2" />
<rect x="24" y="12" width="2" height="2" />
<rect x="26" y="12" width="2" height="2" />
<rect x="28" y="12" width="2" height="2" />
<rect x="16" y="16" width="2" height="2" />
<rect x="18" y="16" width="2" height="2" />
<rect x="20" y="16" width="2" height="2" />
<rect x="22" y="16" width="2" height="2" />
<rect x="24" y="16" width="2" height="2" />
<rect x="16" y="20" width="2" height="2" />
<rect x="18" y="20" width="2" height="2" />
<rect x="20" y="20" width="2" height="2" />
<rect x="22" y="20" width="2" height="2" />
<rect x="24" y="20" width="2" height="2" />
<rect x="26" y="20" width="2" height="2" />
<rect x="16" y="24" width="2" height="2" />
<rect x="18" y="24" width="2" height="2" />
<rect x="20" y="24" width="2" height="2" />
<rect x="22" y="24" width="2" height="2" />
<rect x="24" y="24" width="2" height="2" />
<rect x="16" y="28" width="2" height="2" />
<rect x="18" y="28" width="2" height="2" />
<rect x="20" y="28" width="2" height="2" />
<rect x="22" y="28" width="2" height="2" />
<rect x="18" y="32" width="2" height="2" />
<rect x="20" y="32" width="2" height="2" />
<rect x="22" y="32" width="2" height="2" />
<rect x="24" y="28" width="2" height="2" />
<rect x="26" y="28" width="2" height="2" />
<rect x="28" y="20" width="2" height="2" />
<rect x="26" y="16" width="2" height="2" />
<rect x="22" y="8" width="2" height="2" />
<rect x="34" y="28" width="2" height="2" />
<rect x="20" y="38" width="2" height="2" />
<rect x="14" y="38" width="2" height="2" />
<rect x="16" y="38" width="2" height="2" />
<rect x="18" y="38" width="2" height="2" />
<rect x="22" y="38" width="2" height="2" />
<rect x="24" y="38" width="2" height="2" />
<rect x="26" y="38" width="2" height="2" />
<rect x="28" y="38" width="2" height="2" />
<rect x="32" y="34" width="2" height="2" />
<rect x="34" y="32" width="2" height="2" />
<rect x="34" y="30" width="2" height="2" />
<rect x="30" y="36" width="2" height="2" />
<rect x="28" y="36" width="2" height="2" />
<rect x="28" y="34" width="2" height="2" />
<rect x="28" y="32" width="2" height="2" />
<rect x="30" y="32" width="2" height="2" />
<rect x="32" y="32" width="2" height="2" />
<rect x="24" y="8" width="2" height="2" />
<rect x="12" y="26" width="2" height="2" />
<rect x="34" y="26" width="2" height="2" />
<rect x="12" y="24" width="2" height="2" />
<rect x="34" y="24" width="2" height="2" />
<rect x="12" y="22" width="2" height="2" />
<rect x="34" y="22" width="2" height="2" />
</svg>
