<svg width="24" height="24" viewBox="0 0 24 24" fill="currentColor" xmlns="http://www.w3.org/2000/svg">
<rect x="6" y="16" width="2" height="2" />
<rect x="8" y="14" width="2" height="2" />
<rect x="10" y="12" width="2" height="2" />
<rect x="10" y="9" width="2" height="2" />
<rect x="13" y="12" width="2" height="2" />
<rect x="10" y="7" width="2" height="2" />
<rect x="11" y="5" width="2" height="2" />
<rect x="17" y="11" width="2" height="2" />
<rect x="13" y="4" width="2" height="2" />
<rect x="15" y="12" width="2" height="2" />
<rect x="18" y="7" width="2" height="2" />
<rect x="18" y="9" width="2" height="2" />
<rect x="17" y="5" width="2" height="2" />
<rect x="15" y="4" width="2" height="2" />
<rect x="11" y="11" width="2" height="2" />
<rect x="4" y="18" width="2" height="2" />
</svg>
