<svg width="48" height="48" viewBox="0 0 48 48" fill="currentColor" xmlns="http://www.w3.org/2000/svg">
<rect x="28" y="16" width="4" height="4" />
<rect x="12" y="12" width="4" height="4" />
<rect x="28" y="24" width="4" height="4" />
<rect x="16" y="16" width="4" height="4" />
<rect x="8" y="44" width="4" height="4" />
<rect x="12" y="44" width="4" height="4" />
<rect x="16" y="4" width="4" height="4" />
<rect x="16" y="44" width="4" height="4" />
<rect x="12" y="8" width="4" height="4" />
<rect x="28" y="4" width="4" height="4" />
<rect x="20" y="44" width="4" height="4" />
<rect x="20" width="4" height="4" />
<rect x="32" y="8" width="4" height="4" />
<rect x="24" y="44" width="4" height="4" />
<rect x="24" width="4" height="4" />
<rect x="32" y="12" width="4" height="4" />
<rect x="20" y="20" width="4" height="4" />
<rect x="24" y="20" width="4" height="4" />
<rect x="16" y="24" width="4" height="4" />
<rect x="20" y="24" width="4" height="4" />
<rect x="24" y="24" width="4" height="4" />
<rect x="28" y="36" width="4" height="4" />
<rect x="36" y="32" width="4" height="4" />
<rect x="8" y="32" width="4" height="4" />
<rect x="12" y="28" width="4" height="4" />
<rect x="32" y="28" width="4" height="4" />
<rect x="36" y="44" width="4" height="4" />
<rect x="28" y="44" width="4" height="4" />
<rect x="32" y="44" width="4" height="4" />
<rect x="36" y="36" width="4" height="4" />
<rect x="8" y="40" width="4" height="4" />
<rect x="36" y="40" width="4" height="4" />
<rect x="8" y="36" width="4" height="4" />
</svg>
