<svg width="72" height="72" viewBox="0 0 72 72" fill="none" xmlns="http://www.w3.org/2000/svg">
<path d="M18.3086 46.7828V29.8654L31.1381 39.5201V46.782H34.4127V38.8392C34.4121 38.5441 34.3431 38.2531 34.2111 37.9891C34.0791 37.725 33.8877 37.4952 33.652 37.3177L18.0932 25.6036C17.8086 25.3922 17.471 25.2639 17.1179 25.2329C16.7647 25.2019 16.4099 25.2694 16.0929 25.4279C15.7758 25.5865 15.5089 25.8298 15.3218 26.1309C15.1348 26.432 15.0349 26.7791 15.0332 27.1336V46.7828H18.3086ZM53.7897 46.7828V29.8654L40.9602 39.5201V46.782H37.6859V38.8392C37.6865 38.5441 37.7555 38.2531 37.8875 37.9891C38.0195 37.725 38.2109 37.4952 38.4467 37.3177L54.0055 25.6084C54.2897 25.3972 54.6269 25.269 54.9796 25.2378C55.3323 25.2066 55.6868 25.2737 56.0037 25.4316C56.3206 25.5896 56.5875 25.8322 56.775 26.1326C56.9624 26.4331 57.0629 26.7795 57.0655 27.1336V46.7828H53.7897Z" fill="#C2AEA2"/>
</svg>
