<svg width="72" height="72" viewBox="0 0 72 72" fill="none" xmlns="http://www.w3.org/2000/svg">
<path d="M52.4482 28.1862C52.2746 19.0702 44.7473 11.8294 35.6313 12.0031C26.7583 12.168 19.6131 19.3219 19.4481 28.1862C19.4481 28.2296 19.4395 28.273 19.4395 28.3078V28.5595V58.3994C19.4395 59.4152 20.2642 60.2313 21.2713 60.2313C22.2785 60.2313 23.1032 59.4065 23.1032 58.3994V53.0687C23.1032 52.0529 23.928 51.2368 24.9351 51.2368C25.9422 51.2368 26.767 52.0616 26.767 53.0687V55.5952C26.7931 56.6109 27.6265 57.4097 28.6423 57.3923C29.6234 57.375 30.4134 56.5762 30.4395 55.5952V53.0687C30.4395 52.0529 31.2643 51.2368 32.2714 51.2368C33.2872 51.2368 34.1033 52.0616 34.1033 53.0687V53.7633C34.1033 54.779 34.9281 55.5952 35.9352 55.5952C36.951 55.5952 37.7671 54.7704 37.7671 53.7633V53.0687C37.7931 52.0529 38.6266 51.2542 39.6424 51.2715C40.6234 51.2889 41.4135 52.0876 41.4395 53.0687V55.5952C41.4395 56.6109 42.2643 57.427 43.2714 57.427C44.2785 57.427 45.1207 56.6196 45.1207 55.6038V53.0774C45.1207 52.0616 45.9455 51.2455 46.9526 51.2455C47.9684 51.2455 48.7845 52.0703 48.7845 53.0774V58.4081C48.7845 59.4239 49.6092 60.24 50.6163 60.24C51.6235 60.24 52.4482 59.4152 52.4482 58.4081C52.4482 46.6423 52.4482 35.5919 52.4482 28.1862ZM29.8578 30.8342C28.2343 30.8342 26.9233 29.3322 26.9233 27.4656C26.9233 25.599 28.243 24.097 29.8578 24.097C31.4726 24.097 32.7923 25.599 32.7923 27.4656C32.7923 29.3322 31.4813 30.8342 29.8578 30.8342ZM36.0741 35.5919C34.5981 35.5919 33.4087 34.7151 33.4087 33.6298C33.4087 32.5446 34.6068 33.2044 36.0741 33.2044C37.5413 33.2044 38.7394 32.5532 38.7394 33.6298C38.7394 34.7064 37.55 35.5832 36.0741 35.5919ZM42.0386 30.8342C40.4151 30.8342 39.1041 29.3322 39.1041 27.4656C39.1041 25.599 40.4151 24.097 42.0386 24.097C43.6621 24.097 44.9731 25.599 44.9731 27.4656C44.9731 29.3322 43.6534 30.8342 42.0386 30.8342Z" fill="#F1EBE7"/>
</svg>
