<svg width="72" height="72" viewBox="0 0 72 72" fill="none" xmlns="http://www.w3.org/2000/svg">
<rect width="72" height="72" rx="8" fill="white"/>
<rect width="72" height="72" fill="#FFE2FE"/>
<path fill-rule="evenodd" clip-rule="evenodd" d="M30.5289 27.8863C30.4392 28.2323 30.2828 28.5572 30.0682 28.8427C29.669 29.3632 29.1405 29.7691 28.5358 30.0199C27.9921 30.2552 27.4161 30.4075 26.8273 30.4712C26.7063 30.4867 26.5809 30.4961 26.4592 30.5054L26.4395 30.507C26.0666 30.5212 25.7081 30.655 25.4163 30.8887C25.1246 31.1225 24.915 31.444 24.8182 31.8059C24.774 31.9861 24.741 32.1688 24.7197 32.3531C24.6858 32.6311 24.6684 32.9156 24.6495 33.2234C24.636 33.4442 24.6216 33.6772 24.6 33.9282C24.4734 34.9505 24.1789 35.9447 23.7288 36.8704C23.6368 37.0649 23.5431 37.2536 23.4508 37.4389C22.9573 38.4319 22.5114 39.3289 22.6394 40.5302C22.7396 41.4559 23.2116 42.0761 23.8387 42.7159C24.1367 43.0219 24.5316 43.2833 24.9416 43.5548C26.0891 44.3144 27.3542 45.152 26.9373 47.2622C26.5962 48.9721 23.7741 50.7664 19.8075 51.3931C20.1922 51.3344 19.3448 49.8818 19.2507 49.7206L19.245 49.7108C19.1356 49.5388 19.0236 49.3693 18.9118 49.2001H18.9117C18.5889 48.7114 18.2674 48.2252 18.0166 47.6861C17.3539 46.2784 17.0467 44.6497 17.3182 43.1071C17.5642 41.711 18.4832 40.5958 19.3677 39.5219C19.512 39.3469 19.6552 39.173 19.7946 38.9992C20.9778 37.5232 22.2192 35.5892 22.4939 33.6733C22.5171 33.5068 22.5378 33.3253 22.5595 33.1343C22.5985 32.7925 22.6408 32.4203 22.7073 32.0495C22.8058 31.4092 23.0057 30.7886 23.2989 30.2114C23.499 29.833 23.7626 29.4919 24.078 29.2031C24.2424 29.0498 24.3509 28.8455 24.3861 28.6229C24.4212 28.4005 24.381 28.1725 24.2719 27.9755L17.9487 16.5509L27.0311 27.8099C27.1346 27.9404 27.2652 28.0465 27.414 28.1204C27.5628 28.1944 27.726 28.2346 27.8919 28.2382C28.058 28.2418 28.2226 28.2086 28.3744 28.141C28.5262 28.0735 28.6614 27.9731 28.7703 27.8473C28.8854 27.7126 28.9506 27.542 28.955 27.3644C28.9595 27.187 28.9028 27.0134 28.7945 26.873C28.3722 26.3309 27.9327 25.7815 27.4953 25.2344L27.495 25.234C27.318 25.0127 27.1414 24.7919 26.9664 24.5722L24.6808 21.7308L20.0936 16.0573L15 10L20.682 15.5491L25.565 20.9724L28.0009 23.6905C28.2247 23.9437 28.4485 24.1946 28.6722 24.4454C29.2566 25.1006 29.841 25.7558 30.4254 26.4509L30.558 26.6132L30.5871 26.8649C30.6264 27.2062 30.6068 27.5518 30.5289 27.8863ZM53.8871 31.7045L53.8966 31.7192C53.895 30.5078 53.1483 28.5091 51.6371 26.5865L51.6015 26.5394C51.1359 25.9615 50.6286 25.4188 50.0836 24.9157C49.9818 24.8167 49.872 24.7192 49.7604 24.6218C49.0621 24.0101 48.299 23.4775 47.4846 23.0338L47.4264 23.0045C44.8677 21.6049 41.538 20.884 37.4324 21.6958C36.881 21.0233 36.2871 20.3872 35.6544 19.7912C34.6854 18.8636 33.5448 18.1361 32.2972 17.6495C31.0608 17.1949 29.7366 17.0326 28.4276 17.1754C29.6894 17.2895 30.9185 17.642 32.0499 18.2146C33.1427 18.8027 34.1268 19.5749 34.9593 20.4976C35.8032 21.4394 36.5964 22.4258 37.3355 23.4527L37.5209 23.6953C38.244 24.6413 38.9802 25.6045 39.8973 26.4616C40.4022 26.9387 40.9655 27.3496 41.5736 27.6842C41.7351 27.767 41.8984 27.8449 42.0585 27.9131C42.2184 27.9814 42.3687 28.0447 42.5304 28.1032C42.8424 28.2248 43.1656 28.3256 43.4889 28.4182C44.782 28.7884 46.1058 28.9214 47.3989 28.993C47.5788 29.0024 47.7584 29.0113 47.9371 29.0201H47.9375C48.3993 29.0431 48.8569 29.0657 49.3078 29.0984C49.9255 29.1353 50.5383 29.2321 51.1376 29.3875C52.0377 29.6233 52.8302 30.1619 53.3828 30.9137C53.5706 31.1642 53.7392 31.4285 53.8871 31.7045ZM50.1019 24.9177C50.037 24.8574 49.9709 24.7976 49.905 24.7381C49.8627 24.6998 49.8204 24.6617 49.7787 24.6236C49.8109 24.6532 49.8432 24.683 49.8755 24.713C49.9514 24.7834 50.0271 24.8538 50.1019 24.9177ZM48.4857 36.8758C44.3274 35.1808 39.9777 33.4076 40.6252 28.4312C42.0136 29.9203 44.193 30.2326 46.5633 30.5723C48.7136 30.8804 51.0208 31.211 53.0374 32.4629C57.7959 35.4149 57.101 41.1499 55.4846 43.2608C55.6304 39.788 52.1316 38.362 48.4857 36.8758ZM31.7327 34.385C32.8302 34.2794 35.1691 33.7063 34.1233 31.8568C33.8983 31.4806 33.5723 31.1758 33.1826 30.9772C32.7929 30.7787 32.3553 30.6947 31.9202 30.7348C31.4787 30.7825 31.0623 30.9653 30.7278 31.2587C30.3933 31.5521 30.1566 31.9417 30.0501 32.3747C29.7252 33.5845 30.0694 34.5473 31.7327 34.385ZM31.4172 19.7521C30.7287 18.9532 29.6602 18.5342 28.6128 18.3817C28.5736 18.6437 28.5489 18.9077 28.5385 19.1725C28.4916 21.353 29.2626 23.7481 30.7545 25.4125C31.2318 25.9505 31.8074 26.3914 32.4501 26.7115C32.8218 26.8933 33.8079 27.3446 34.1732 26.9387C34.2009 26.9015 34.2185 26.8576 34.2239 26.8114C34.2293 26.7652 34.2224 26.7184 34.2039 26.6758C34.1433 26.5019 34.0264 26.3441 33.9103 26.1875C33.828 26.0765 33.7461 25.9661 33.685 25.8508C33.6232 25.7347 33.5571 25.6213 33.4911 25.5082C33.3671 25.2955 33.2433 25.0833 33.1483 24.8523C32.8979 24.2476 32.7675 23.6047 32.6375 22.9637V22.9636V22.9634L32.6373 22.9633V22.9631V22.963C32.6113 22.8349 32.5854 22.7068 32.5584 22.579C32.3597 21.5902 32.1058 20.551 31.4172 19.7521ZM46.1286 37.147C45.0604 40.1414 46.7832 42.6706 48.4959 45.1849C50.4116 47.9972 52.3146 50.791 50.2842 54.1963C54.2298 52.5596 56.1032 47.6153 54.4658 43.6924C53.4341 41.2111 50.9474 39.8659 48.6392 38.6174L48.639 38.6173C47.7435 38.1329 46.8748 37.6631 46.1286 37.147ZM34.5828 44.2949C33.8678 44.588 33.1935 44.9728 32.5768 45.4397C33.979 44.9288 35.4508 44.6371 36.9411 44.5742C37.2111 44.5582 37.483 44.5456 37.7572 44.5328H37.7575H37.758C38.2317 44.5109 38.7127 44.4887 39.204 44.4476C40.0093 44.3927 40.8038 44.2288 41.5655 43.9604C42.3638 43.6799 43.0902 43.2251 43.6926 42.629C44.3013 42.0136 44.7282 41.2408 44.9259 40.3963C45.0999 39.5986 45.0755 38.7701 44.8548 37.9843C44.634 37.1983 44.2237 36.4792 43.6603 35.8904C43.9321 36.5831 44.0994 37.3126 44.1566 38.0549C44.2057 38.746 44.1121 39.4397 43.8817 40.0927C43.6567 40.7116 43.2889 41.2681 42.8085 41.7164C42.3121 42.1693 41.7375 42.5269 41.1129 42.7718C40.2449 43.1231 39.2633 43.2668 38.2409 43.4165C37.7745 43.4848 37.2996 43.5544 36.8231 43.6454C36.0567 43.7864 35.3061 44.0041 34.5828 44.2949ZM46.9781 56.6569L46.9095 56.7122V56.7124C46.7288 56.8583 46.5451 57.0068 46.3473 57.1402C46.0951 57.307 45.831 57.4547 45.5569 57.5818C44.9862 57.8615 44.3589 58.0043 43.7239 57.9991C42.0042 57.9667 40.7886 56.6807 40.0774 55.2274C39.891 54.8465 39.7267 54.4538 39.5625 54.0611C39.2995 53.4326 39.0366 52.8041 38.6824 52.2235C37.8598 50.8742 36.452 49.7879 34.8033 49.9892C34.1308 50.0737 33.5004 50.3773 33.127 50.9635C32.1442 52.4947 33.5554 54.6397 35.3544 54.3359C35.5074 54.3125 35.6571 54.2711 35.8005 54.2127C35.9435 54.1514 36.0768 54.07 36.1965 53.9707C36.4479 53.7604 36.6372 53.4854 36.7444 53.1751C36.8626 52.8514 36.8889 52.5011 36.8205 52.1635C36.7467 51.8104 36.5391 51.5002 36.2418 51.298C36.5875 51.4606 36.857 51.7517 36.9935 52.1098C37.1349 52.4785 37.1714 52.8793 37.0984 53.2676C37.0278 53.672 36.8504 54.05 36.5844 54.362C36.4433 54.5224 36.2799 54.6619 36.0996 54.776C35.9208 54.8888 35.7293 54.9799 35.529 55.0472C35.123 55.1866 34.6908 55.2316 34.2649 55.1788C33.667 55.0931 33.1032 54.8474 32.6325 54.4675C32.5455 54.3985 32.4621 54.3262 32.3812 54.2512C32.061 53.9737 31.7703 53.663 31.514 53.3243C31.3989 53.1971 31.2821 53.0716 31.16 52.951C30.5837 52.3435 29.9037 51.8447 29.1524 51.4783C28.6343 51.2497 28.092 51.0808 27.5361 50.9749C27.2564 50.9164 26.9736 50.8742 26.6907 50.8385C26.66 50.8354 26.601 50.825 26.5275 50.8123L26.5271 50.8121H26.5269H26.5267C26.2906 50.7709 25.9067 50.704 25.8389 50.767C26.7132 49.9585 27.6662 49.2404 28.6836 48.6236C29.7284 48.001 30.85 47.5189 32.0199 47.1899C33.2326 46.847 34.5013 46.7492 35.752 46.9025C36.3958 46.9802 37.0264 47.144 37.627 47.3896C38.2563 47.6422 38.8371 48.0026 39.3436 48.4549C39.8448 48.9292 40.2499 49.4966 40.5364 50.1256C40.7952 50.7146 40.9881 51.3305 41.1119 51.962C41.1782 52.3019 41.2282 52.6753 41.2799 53.0618H41.28V53.062C41.5156 54.8234 41.7878 56.8558 43.8064 57.2099C43.9347 57.235 44.0641 57.2534 44.1944 57.2653L44.5968 57.2749C44.8735 57.2551 45.1485 57.2155 45.4195 57.1564C45.9811 57.0238 46.5285 56.8361 47.0536 56.5963L46.9781 56.6569ZM31.6201 53.4428C31.6684 53.4983 31.7174 53.5532 31.7668 53.6077C31.7466 53.585 31.7265 53.5622 31.7063 53.5396C31.6776 53.5073 31.6489 53.4751 31.6201 53.4428Z" fill="#FB118E"/>
</svg>
