<svg width="72" height="72" viewBox="0 0 72 72" fill="none" xmlns="http://www.w3.org/2000/svg">
<rect width="72" height="72" fill="url(#paint0_linear_68_801)"/>
<path d="M52.4488 28.4262C52.2751 19.3102 44.7479 12.0694 35.6318 12.243C26.7589 12.408 19.6136 19.5619 19.4487 28.4262C19.4487 28.4696 19.44 28.513 19.44 28.5478V28.7995V58.6394C19.44 59.6552 20.2648 60.4713 21.2719 60.4713C22.279 60.4713 23.1038 59.6465 23.1038 58.6394V53.3087C23.1038 52.2929 23.9286 51.4768 24.9357 51.4768C25.9428 51.4768 26.7676 52.3016 26.7676 53.3087V55.8351C26.7936 56.8509 27.6271 57.6497 28.6429 57.6323C29.6239 57.6149 30.414 56.8162 30.44 55.8351V53.3087C30.44 52.2929 31.2648 51.4768 32.2719 51.4768C33.2877 51.4768 34.1038 52.3016 34.1038 53.3087V54.0033C34.1038 55.019 34.9286 55.8351 35.9357 55.8351C36.9515 55.8351 37.7676 55.0104 37.7676 54.0033V53.3087C37.7937 52.2929 38.6271 51.4942 39.6429 51.5115C40.624 51.5289 41.414 52.3276 41.4401 53.3087V55.8351C41.4401 56.8509 42.2649 57.667 43.272 57.667C44.2791 57.667 45.1212 56.8596 45.1212 55.8438V53.3174C45.1212 52.3016 45.946 51.4855 46.9531 51.4855C47.9689 51.4855 48.785 52.3103 48.785 53.3174V58.6481C48.785 59.6639 49.6098 60.48 50.6169 60.48C51.624 60.48 52.4488 59.6552 52.4488 58.6481V28.5564C52.4575 28.513 52.4575 28.4696 52.4488 28.4262ZM29.8583 31.0742C28.2348 31.0742 26.9238 29.5722 26.9238 27.7056C26.9238 25.839 28.2435 24.337 29.8583 24.337C31.4732 24.337 32.7928 25.839 32.7928 27.7056C32.7928 29.5722 31.4819 31.0742 29.8583 31.0742ZM36.0746 35.8319C34.5987 35.8319 33.4093 34.955 33.4093 33.8698C33.4093 32.7846 34.6074 33.4444 36.0746 33.4444C37.5419 33.4444 38.74 32.7932 38.74 33.8698C38.74 34.9464 37.5506 35.8232 36.0746 35.8319ZM42.0391 31.0742C40.4156 31.0742 39.1046 29.5722 39.1046 27.7056C39.1046 25.839 40.4156 24.337 42.0391 24.337C43.6627 24.337 44.9736 25.839 44.9736 27.7056C44.9736 29.5722 43.654 31.0742 42.0391 31.0742Z" fill="white"/>
<defs>
<linearGradient id="paint0_linear_68_801" x1="-2.59587" y1="68.821" x2="74.2247" y2="16.2324" gradientUnits="userSpaceOnUse">
<stop stop-color="#30BAC6"/>
<stop offset="1" stop-color="#B6509E"/>
</linearGradient>
</defs>
</svg>
