<svg width="72" height="72" viewBox="0 0 72 72" fill="none" xmlns="http://www.w3.org/2000/svg">
<rect width="72" height="72" fill="#213147"/>
<path d="M15.3705 26.1189V45.881C15.3705 47.1387 16.0406 48.3036 17.1333 48.9324L34.246 58.8083C35.3388 59.4371 36.6789 59.4371 37.7717 58.8083L54.8844 48.9324C55.9771 48.3036 56.6472 47.1387 56.6472 45.881V26.1189C56.6472 24.8612 55.9771 23.6963 54.8844 23.0675L37.7717 13.1916C36.6789 12.5628 35.3388 12.5628 34.246 13.1916L17.1333 23.0675C16.0509 23.6963 15.3705 24.8612 15.3705 26.1189Z" fill="#213147"/>
<path d="M39.751 39.8298L37.3078 46.5202C37.2357 46.7058 37.2357 46.9119 37.3078 47.0975L41.5035 58.6125L46.359 55.8085L40.5345 39.8298C40.4005 39.4586 39.8851 39.4586 39.751 39.8298Z" fill="#12AAFF"/>
<path d="M44.6374 28.5724C44.5033 28.2013 43.9879 28.2013 43.8539 28.5724L41.4107 35.2629C41.3385 35.4484 41.3385 35.6546 41.4107 35.8402L48.2867 54.6951L53.1422 51.8911L44.6374 28.5724Z" fill="#12AAFF"/>
<path d="M36.009 13.9236C36.1327 13.9236 36.2461 13.9545 36.3595 14.0164L54.8742 24.7066C55.0907 24.8303 55.2247 25.0571 55.2247 25.3045V46.6851C55.2247 46.9325 55.0907 47.1593 54.8742 47.283L36.3595 57.9836C36.2564 58.0455 36.1327 58.0764 36.009 58.0764C35.8853 58.0764 35.7719 58.0455 35.6585 57.9836L17.1541 47.2933C16.9376 47.1696 16.8036 46.9428 16.8036 46.6954V25.3045C16.8036 25.0571 16.9376 24.8303 17.1541 24.7066L35.6688 14.0164C35.7719 13.9545 35.8956 13.9236 36.009 13.9236ZM36.009 10.8C35.3492 10.8 34.6894 10.9752 34.1018 11.3154L15.5871 22.0057C14.4119 22.6861 13.68 23.9438 13.68 25.3045V46.6851C13.68 48.0459 14.4119 49.3139 15.5871 49.9943L34.1018 60.6845C34.6894 61.0247 35.3492 61.2 36.009 61.2C36.6687 61.2 37.3285 61.0247 37.9161 60.6845L56.4308 49.9943C57.6163 49.3139 58.338 48.0562 58.338 46.6851V25.3045C58.338 23.9438 57.606 22.6758 56.4308 21.9954L37.9264 11.3154C37.3285 10.9752 36.6687 10.8 36.009 10.8Z" fill="#9DCCED"/>
<path d="M23.7725 54.7158L25.4734 50.0562L28.896 52.9014L25.7002 55.8291L23.7725 54.7158Z" fill="#213147"/>
<path d="M34.4523 23.7788H29.7618C29.4113 23.7788 29.0917 23.9953 28.9783 24.3252L18.9169 51.9117L23.7723 54.7157L34.8544 24.3355C34.9471 24.0675 34.7513 23.7788 34.4523 23.7788Z" fill="white"/>
<path d="M42.6687 23.7788H37.9781C37.6276 23.7788 37.3081 23.9953 37.1947 24.3252L25.7003 55.8291L30.5558 58.6331L43.0604 24.3458C43.1635 24.0675 42.9573 23.7788 42.6687 23.7788Z" fill="white"/>
</svg>
