<svg width="72" height="72" viewBox="0 0 72 72" fill="none" xmlns="http://www.w3.org/2000/svg">
<path fill-rule="evenodd" clip-rule="evenodd" d="M50.4241 47.0153L47.9292 45.1044C49.7789 42.4552 50.8113 39.2848 50.8113 36.1144C50.8543 32.6835 49.7359 29.2959 47.6281 26.5599L50.4241 23.9107C50.7683 23.6066 50.7683 23.0855 50.4672 22.738L49.7789 22.0432C46.2946 18.4819 41.5629 16.3973 36.6161 16.2235V13.3138C36.6591 11.62 34.0351 11.62 34.0351 13.3138V16.3104C32.8737 16.3973 31.7122 16.6578 30.5938 16.9619V13.2703C30.6369 11.5766 28.0129 11.5766 28.0129 13.2703V17.9173H27.9699C24.0124 19.7848 20.6572 22.9552 18.6784 26.9942C16.6567 30.9463 16.0115 35.5498 16.8718 39.9362C17.7751 44.3227 20.098 48.2748 23.4962 51.1846C26.8945 54.0509 31.196 55.6579 35.6267 55.7884L49.951 55.875C50.3811 55.875 50.7253 55.5274 50.7253 55.0932V47.797C50.7253 47.4062 50.6392 47.1456 50.4241 47.0153ZM40.8316 32.8572L44.9181 29.1222C47.7141 33.0743 47.8002 38.7636 44.9611 42.8026L40.6165 39.4585C41.3478 38.5031 41.7349 37.4173 41.778 36.2013C41.7349 35.0287 41.4769 33.8995 40.8316 32.8572ZM47.198 51.8794C47.198 52.0966 47.0259 52.2703 46.8108 52.2703L35.9278 52.2269C32.4005 52.1835 28.9593 51.0108 26.1632 48.8828C23.3672 46.7113 21.3454 43.6278 20.4851 40.1968C18.5924 33.2915 21.8186 25.4741 28.0129 21.9997L28.1419 21.9563V27.5587C28.0989 29.2525 30.7229 29.2525 30.7229 27.5587V20.6968C35.6697 18.9596 41.5199 19.8282 45.6494 23.0855C45.8645 23.2157 45.8645 23.5198 45.6924 23.6935L38.1216 30.6423C36.6591 30.0343 34.9814 30.0343 33.5619 30.7291C31.2821 31.7714 29.8195 34.3338 30.2497 36.8527C30.3358 37.6779 30.6369 38.4596 31.067 39.1545C31.4971 39.8928 32.0994 40.4574 32.7876 40.9351C34.1641 41.8472 35.9278 42.1078 37.5194 41.63L47.0689 48.9696C47.155 49.0565 47.198 49.1868 47.198 49.3171V51.8794ZM38.2507 36.0276C38.2507 36.4618 38.1216 36.9396 37.8635 37.287C37.6054 37.6779 37.2613 37.9385 36.8312 38.1556C36.401 38.3293 35.9278 38.3728 35.5407 38.2425C35.1105 38.1556 34.7234 37.9385 34.3792 37.6345C34.0781 37.3304 33.863 36.8961 33.777 36.4618C33.691 36.0276 33.734 35.5499 33.9061 35.159C34.0781 34.7247 34.3792 34.4206 34.7234 34.1167C35.6267 33.5087 36.8312 33.6389 37.6054 34.4206C37.9926 34.8115 38.2507 35.4195 38.2507 36.0276Z" fill="#F1EBE7"/>
</svg>
