<svg width="611" height="129" viewBox="0 0 611 129" fill="none" xmlns="http://www.w3.org/2000/svg">
    <path d="M404.965 84.4336C403.371 84.4336 401.977 83.8711 400.781 82.7461C399.609 81.6211 399.023 80.25 399.023 78.6328C399.023 77.0156 399.609 75.6562 400.781 74.5547C401.977 73.4297 403.371 72.8672 404.965 72.8672C406.559 72.8672 407.953 73.4297 409.148 74.5547C410.344 75.6562 410.941 77.0156 410.941 78.6328C410.941 80.25 410.344 81.6211 409.148 82.7461C407.953 83.8711 406.559 84.4336 404.965 84.4336Z"
          fill="#E6E6E6"/>
    <path d="M435.516 45.6211C437.25 45.6211 438.938 45.9727 440.578 46.6758C442.242 47.3555 443.719 48.2227 445.008 49.2773C446.32 50.3086 447.293 51.375 447.926 52.4766L448.312 49.1016C448.312 48.1406 448.594 47.3203 449.156 46.6406C449.719 45.9375 450.48 45.5859 451.441 45.5859C452.402 45.5859 453.223 45.9375 453.902 46.6406C454.605 47.3203 454.957 48.1406 454.957 49.1016V49.1719L454.887 81.7266C454.887 82.6875 454.535 83.5195 453.832 84.2227C453.152 84.9023 452.332 85.2422 451.371 85.2422C450.41 85.2422 449.648 84.9023 449.086 84.2227C448.523 83.5195 448.242 82.6875 448.242 81.7266L447.855 78.9141C446.637 81 444.855 82.5586 442.512 83.5898C440.168 84.5977 437.812 85.1016 435.445 85.1016C432.797 85.1016 430.312 84.5859 427.992 83.5547C425.672 82.5 423.633 81.0586 421.875 79.2305C420.117 77.4023 418.734 75.3047 417.727 72.9375C416.742 70.5703 416.25 68.0742 416.25 65.4492C416.25 62.8477 416.73 60.3633 417.691 57.9961C418.676 55.6055 420.035 53.4844 421.77 51.6328C423.527 49.7578 425.566 48.293 427.887 47.2383C430.23 46.1602 432.773 45.6211 435.516 45.6211ZM447.645 65.3789C447.645 63.082 447.105 60.9727 446.027 59.0508C444.973 57.1289 443.531 55.582 441.703 54.4102C439.875 53.2383 437.789 52.6523 435.445 52.6523C433.148 52.6523 431.074 53.2383 429.223 54.4102C427.371 55.582 425.906 57.1406 424.828 59.0859C423.75 61.0078 423.211 63.0938 423.211 65.3438C423.211 67.6172 423.762 69.7266 424.863 71.6719C425.965 73.5938 427.441 75.1406 429.293 76.3125C431.168 77.4844 433.23 78.0703 435.48 78.0703C437.73 78.0703 439.77 77.4844 441.598 76.3125C443.449 75.1406 444.914 73.5938 445.992 71.6719C447.094 69.7266 447.645 67.6289 447.645 65.3789Z"
          fill="#E6E6E6"/>
    <path d="M499.289 65.4492C499.289 68.0977 498.797 70.6758 497.812 73.1836C496.852 75.6914 495.398 77.9062 493.453 79.8281C491.742 81.4922 489.773 82.7812 487.547 83.6953C485.32 84.6094 483.012 85.0664 480.621 85.0664C478.184 85.0664 476.016 84.5508 474.117 83.5195C472.242 82.4883 470.543 81.0938 469.02 79.3359V94.1367C469.02 95.0977 468.668 95.918 467.965 96.5977C467.285 97.3008 466.465 97.6523 465.504 97.6523C464.543 97.6523 463.711 97.3008 463.008 96.5977C462.328 95.918 461.988 95.0977 461.988 94.1367V49.2422C461.988 48.2812 462.328 47.4609 463.008 46.7812C463.711 46.0781 464.543 45.7266 465.504 45.7266C466.465 45.7266 467.18 46.0781 467.648 46.7812C468.141 47.4609 468.457 48.2812 468.598 49.2422L469.02 52.0898C470.355 50.168 472.113 48.6562 474.293 47.5547C476.496 46.4531 478.688 45.9023 480.867 45.9023C483.516 45.9023 485.953 46.4297 488.18 47.4844C490.43 48.5391 492.387 49.9805 494.051 51.8086C495.715 53.6133 497.004 55.6875 497.918 58.0312C498.832 60.375 499.289 62.8477 499.289 65.4492ZM480.938 52.9336C479.414 52.9336 477.902 53.2734 476.402 53.9531C474.902 54.6094 473.625 55.5234 472.57 56.6953C471.516 57.8438 470.695 59.2148 470.109 60.8086C469.547 62.3789 469.266 63.9844 469.266 65.625C469.266 67.875 469.758 69.9492 470.742 71.8477C471.727 73.7461 473.086 75.2695 474.82 76.418C476.555 77.5664 478.535 78.1406 480.762 78.1406C482.988 78.1406 484.969 77.543 486.703 76.3477C488.438 75.1289 489.797 73.5586 490.781 71.6367C491.789 69.6914 492.293 67.6289 492.293 65.4492C492.293 63.2461 491.801 61.1953 490.816 59.2969C489.832 57.3984 488.484 55.8633 486.773 54.6914C485.062 53.5195 483.117 52.9336 480.938 52.9336Z"
          fill="#E6E6E6"/>
    <path d="M541.898 65.4492C541.898 68.0977 541.406 70.6758 540.422 73.1836C539.461 75.6914 538.008 77.9062 536.062 79.8281C534.352 81.4922 532.383 82.7812 530.156 83.6953C527.93 84.6094 525.621 85.0664 523.23 85.0664C520.793 85.0664 518.625 84.5508 516.727 83.5195C514.852 82.4883 513.152 81.0938 511.629 79.3359V94.1367C511.629 95.0977 511.277 95.918 510.574 96.5977C509.895 97.3008 509.074 97.6523 508.113 97.6523C507.152 97.6523 506.32 97.3008 505.617 96.5977C504.938 95.918 504.598 95.0977 504.598 94.1367V49.2422C504.598 48.2812 504.938 47.4609 505.617 46.7812C506.32 46.0781 507.152 45.7266 508.113 45.7266C509.074 45.7266 509.789 46.0781 510.258 46.7812C510.75 47.4609 511.066 48.2812 511.207 49.2422L511.629 52.0898C512.965 50.168 514.723 48.6562 516.902 47.5547C519.105 46.4531 521.297 45.9023 523.477 45.9023C526.125 45.9023 528.562 46.4297 530.789 47.4844C533.039 48.5391 534.996 49.9805 536.66 51.8086C538.324 53.6133 539.613 55.6875 540.527 58.0312C541.441 60.375 541.898 62.8477 541.898 65.4492ZM523.547 52.9336C522.023 52.9336 520.512 53.2734 519.012 53.9531C517.512 54.6094 516.234 55.5234 515.18 56.6953C514.125 57.8438 513.305 59.2148 512.719 60.8086C512.156 62.3789 511.875 63.9844 511.875 65.625C511.875 67.875 512.367 69.9492 513.352 71.8477C514.336 73.7461 515.695 75.2695 517.43 76.418C519.164 77.5664 521.145 78.1406 523.371 78.1406C525.598 78.1406 527.578 77.543 529.312 76.3477C531.047 75.1289 532.406 73.5586 533.391 71.6367C534.398 69.6914 534.902 67.6289 534.902 65.4492C534.902 63.2461 534.41 61.1953 533.426 59.2969C532.441 57.3984 531.094 55.8633 529.383 54.6914C527.672 53.5195 525.727 52.9336 523.547 52.9336Z"
          fill="#E6E6E6"/>
    <path d="M275.73 45.7266C279.082 45.7266 282.117 46.4648 284.836 47.9414C287.578 49.3945 289.605 51.3633 290.918 53.8477C291.199 54.3398 291.34 54.9023 291.34 55.5352C291.34 56.4961 290.988 57.3281 290.285 58.0312C289.605 58.7109 288.785 59.0508 287.824 59.0508C287.238 59.0508 286.629 58.8633 285.996 58.4883C285.387 58.0898 284.953 57.6328 284.695 57.1172C283.922 55.6641 282.762 54.5742 281.215 53.8477C279.668 53.1211 277.828 52.7578 275.695 52.7578C274.453 52.7578 273.047 52.9219 271.477 53.25C269.906 53.5781 268.547 54.1055 267.398 54.832C266.25 55.5586 265.676 56.543 265.676 57.7852C265.676 58.6992 266.145 59.4258 267.082 59.9648C268.043 60.4805 269.215 60.8789 270.598 61.1602C272.004 61.4414 273.41 61.6523 274.816 61.793C276.223 61.9102 277.371 62.0156 278.262 62.1094C279.996 62.2969 281.707 62.5898 283.395 62.9883C285.082 63.3633 286.629 63.9258 288.035 64.6758C289.441 65.4258 290.555 66.4453 291.375 67.7344C292.219 69.0234 292.641 70.6641 292.641 72.6562C292.641 75.4922 291.82 77.8125 290.18 79.6172C288.539 81.4219 286.441 82.7578 283.887 83.625C281.332 84.4922 278.66 84.9258 275.871 84.9258C272.051 84.9258 268.57 84.1758 265.43 82.6758C262.312 81.1523 260.004 78.9375 258.504 76.0312C258.223 75.4688 258.082 74.918 258.082 74.3789C258.082 73.418 258.422 72.5977 259.102 71.918C259.805 71.2148 260.637 70.8633 261.598 70.8633C262.207 70.8633 262.816 71.0625 263.426 71.4609C264.059 71.8359 264.504 72.293 264.762 72.832C265.676 74.6133 267.082 75.9023 268.98 76.6992C270.902 77.4961 273.188 77.8945 275.836 77.8945C277.242 77.8945 278.695 77.7422 280.195 77.4375C281.719 77.1094 282.996 76.5586 284.027 75.7852C285.082 75.0117 285.609 73.957 285.609 72.6211C285.609 71.5898 285.152 70.8516 284.238 70.4062C283.348 69.9375 282.27 69.6328 281.004 69.4922C279.762 69.3516 278.602 69.2227 277.523 69.1055C275.461 68.8945 273.328 68.625 271.125 68.2969C268.922 67.9453 266.871 67.3945 264.973 66.6445C263.098 65.8945 261.574 64.8164 260.402 63.4102C259.23 62.0039 258.645 60.1289 258.645 57.7852C258.645 55.6758 259.148 53.8594 260.156 52.3359C261.188 50.8125 262.547 49.5703 264.234 48.6094C265.922 47.625 267.762 46.8984 269.754 46.4297C271.77 45.9609 273.762 45.7266 275.73 45.7266Z"
          fill="#4ADE80"/>
    <path d="M318.094 45.6211C319.828 45.6211 321.516 45.9727 323.156 46.6758C324.82 47.3555 326.297 48.2227 327.586 49.2773C328.898 50.3086 329.871 51.375 330.504 52.4766L330.891 49.1016C330.891 48.1406 331.172 47.3203 331.734 46.6406C332.297 45.9375 333.059 45.5859 334.02 45.5859C334.98 45.5859 335.801 45.9375 336.48 46.6406C337.184 47.3203 337.535 48.1406 337.535 49.1016V49.1719L337.465 81.7266C337.465 82.6875 337.113 83.5195 336.41 84.2227C335.73 84.9023 334.91 85.2422 333.949 85.2422C332.988 85.2422 332.227 84.9023 331.664 84.2227C331.102 83.5195 330.82 82.6875 330.82 81.7266L330.434 78.9141C329.215 81 327.434 82.5586 325.09 83.5898C322.746 84.5977 320.391 85.1016 318.023 85.1016C315.375 85.1016 312.891 84.5859 310.57 83.5547C308.25 82.5 306.211 81.0586 304.453 79.2305C302.695 77.4023 301.312 75.3047 300.305 72.9375C299.32 70.5703 298.828 68.0742 298.828 65.4492C298.828 62.8477 299.309 60.3633 300.27 57.9961C301.254 55.6055 302.613 53.4844 304.348 51.6328C306.105 49.7578 308.145 48.293 310.465 47.2383C312.809 46.1602 315.352 45.6211 318.094 45.6211ZM330.223 65.3789C330.223 63.082 329.684 60.9727 328.605 59.0508C327.551 57.1289 326.109 55.582 324.281 54.4102C322.453 53.2383 320.367 52.6523 318.023 52.6523C315.727 52.6523 313.652 53.2383 311.801 54.4102C309.949 55.582 308.484 57.1406 307.406 59.0859C306.328 61.0078 305.789 63.0938 305.789 65.3438C305.789 67.6172 306.34 69.7266 307.441 71.6719C308.543 73.5938 310.02 75.1406 311.871 76.3125C313.746 77.4844 315.809 78.0703 318.059 78.0703C320.309 78.0703 322.348 77.4844 324.176 76.3125C326.027 75.1406 327.492 73.5938 328.57 71.6719C329.672 69.7266 330.223 67.6289 330.223 65.3789Z"
          fill="#4ADE80"/>
    <path d="M347.73 33C348.855 33 349.758 33.375 350.438 34.125C351.117 34.8516 351.445 35.6484 351.422 36.5156V81.7969C351.422 82.7344 351.047 83.4961 350.297 84.082C349.57 84.6445 348.844 84.9258 348.117 84.9258C347.109 84.9258 346.23 84.5977 345.48 83.9414C344.754 83.2852 344.391 82.4414 344.391 81.4102V36.5156C344.391 35.625 344.707 34.8164 345.34 34.0898C345.996 33.3633 346.793 33 347.73 33Z"
          fill="#4ADE80"/>
    <path d="M375.926 45.7266C379.277 45.7266 382.312 46.4648 385.031 47.9414C387.773 49.3945 389.801 51.3633 391.113 53.8477C391.395 54.3398 391.535 54.9023 391.535 55.5352C391.535 56.4961 391.184 57.3281 390.48 58.0312C389.801 58.7109 388.98 59.0508 388.02 59.0508C387.434 59.0508 386.824 58.8633 386.191 58.4883C385.582 58.0898 385.148 57.6328 384.891 57.1172C384.117 55.6641 382.957 54.5742 381.41 53.8477C379.863 53.1211 378.023 52.7578 375.891 52.7578C374.648 52.7578 373.242 52.9219 371.672 53.25C370.102 53.5781 368.742 54.1055 367.594 54.832C366.445 55.5586 365.871 56.543 365.871 57.7852C365.871 58.6992 366.34 59.4258 367.277 59.9648C368.238 60.4805 369.41 60.8789 370.793 61.1602C372.199 61.4414 373.605 61.6523 375.012 61.793C376.418 61.9102 377.566 62.0156 378.457 62.1094C380.191 62.2969 381.902 62.5898 383.59 62.9883C385.277 63.3633 386.824 63.9258 388.23 64.6758C389.637 65.4258 390.75 66.4453 391.57 67.7344C392.414 69.0234 392.836 70.6641 392.836 72.6562C392.836 75.4922 392.016 77.8125 390.375 79.6172C388.734 81.4219 386.637 82.7578 384.082 83.625C381.527 84.4922 378.855 84.9258 376.066 84.9258C372.246 84.9258 368.766 84.1758 365.625 82.6758C362.508 81.1523 360.199 78.9375 358.699 76.0312C358.418 75.4688 358.277 74.918 358.277 74.3789C358.277 73.418 358.617 72.5977 359.297 71.918C360 71.2148 360.832 70.8633 361.793 70.8633C362.402 70.8633 363.012 71.0625 363.621 71.4609C364.254 71.8359 364.699 72.293 364.957 72.832C365.871 74.6133 367.277 75.9023 369.176 76.6992C371.098 77.4961 373.383 77.8945 376.031 77.8945C377.438 77.8945 378.891 77.7422 380.391 77.4375C381.914 77.1094 383.191 76.5586 384.223 75.7852C385.277 75.0117 385.805 73.957 385.805 72.6211C385.805 71.5898 385.348 70.8516 384.434 70.4062C383.543 69.9375 382.465 69.6328 381.199 69.4922C379.957 69.3516 378.797 69.2227 377.719 69.1055C375.656 68.8945 373.523 68.625 371.32 68.2969C369.117 67.9453 367.066 67.3945 365.168 66.6445C363.293 65.8945 361.77 64.8164 360.598 63.4102C359.426 62.0039 358.84 60.1289 358.84 57.7852C358.84 55.6758 359.344 53.8594 360.352 52.3359C361.383 50.8125 362.742 49.5703 364.43 48.6094C366.117 47.625 367.957 46.8984 369.949 46.4297C371.965 45.9609 373.957 45.7266 375.926 45.7266Z"
          fill="#4ADE80"/>
    <path d="M210.727 65.4492C210.727 68.0977 210.234 70.6758 209.25 73.1836C208.289 75.6914 206.836 77.9062 204.891 79.8281C203.18 81.4922 201.211 82.7812 198.984 83.6953C196.758 84.6094 194.449 85.0664 192.059 85.0664C189.621 85.0664 187.453 84.5508 185.555 83.5195C183.68 82.4883 181.98 81.0938 180.457 79.3359V94.1367C180.457 95.0977 180.105 95.918 179.402 96.5977C178.723 97.3008 177.902 97.6523 176.941 97.6523C175.98 97.6523 175.148 97.3008 174.445 96.5977C173.766 95.918 173.426 95.0977 173.426 94.1367V49.2422C173.426 48.2812 173.766 47.4609 174.445 46.7812C175.148 46.0781 175.98 45.7266 176.941 45.7266C177.902 45.7266 178.617 46.0781 179.086 46.7812C179.578 47.4609 179.895 48.2812 180.035 49.2422L180.457 52.0898C181.793 50.168 183.551 48.6562 185.73 47.5547C187.934 46.4531 190.125 45.9023 192.305 45.9023C194.953 45.9023 197.391 46.4297 199.617 47.4844C201.867 48.5391 203.824 49.9805 205.488 51.8086C207.152 53.6133 208.441 55.6875 209.355 58.0312C210.27 60.375 210.727 62.8477 210.727 65.4492ZM192.375 52.9336C190.852 52.9336 189.34 53.2734 187.84 53.9531C186.34 54.6094 185.062 55.5234 184.008 56.6953C182.953 57.8438 182.133 59.2148 181.547 60.8086C180.984 62.3789 180.703 63.9844 180.703 65.625C180.703 67.875 181.195 69.9492 182.18 71.8477C183.164 73.7461 184.523 75.2695 186.258 76.418C187.992 77.5664 189.973 78.1406 192.199 78.1406C194.426 78.1406 196.406 77.543 198.141 76.3477C199.875 75.1289 201.234 73.5586 202.219 71.6367C203.227 69.6914 203.73 67.6289 203.73 65.4492C203.73 63.2461 203.238 61.1953 202.254 59.2969C201.27 57.3984 199.922 55.8633 198.211 54.6914C196.5 53.5195 194.555 52.9336 192.375 52.9336Z"
          fill="#FACC15"/>
    <path d="M233.543 45.7969C236.238 45.7969 238.746 46.3125 241.066 47.3438C243.41 48.375 245.461 49.8047 247.219 51.6328C248.977 53.4609 250.348 55.5586 251.332 57.9258C252.34 60.293 252.844 62.8125 252.844 65.4844C252.844 68.1094 252.34 70.6055 251.332 72.9727C250.324 75.3164 248.93 77.3906 247.148 79.1953C245.391 80.9766 243.34 82.3828 240.996 83.4141C238.676 84.4453 236.191 84.9609 233.543 84.9609C230.918 84.9609 228.434 84.457 226.09 83.4492C223.77 82.4414 221.719 81.0469 219.938 79.2656C218.18 77.4844 216.797 75.4219 215.789 73.0781C214.781 70.7109 214.277 68.1797 214.277 65.4844C214.277 62.8125 214.781 60.293 215.789 57.9258C216.797 55.5586 218.18 53.4727 219.938 51.668C221.719 49.8398 223.77 48.4102 226.09 47.3789C228.41 46.3242 230.895 45.7969 233.543 45.7969ZM221.379 65.5547C221.379 67.8281 221.93 69.9023 223.031 71.7773C224.156 73.6289 225.645 75.1055 227.496 76.207C229.348 77.3086 231.375 77.8594 233.578 77.8594C235.828 77.8594 237.867 77.2969 239.695 76.1719C241.547 75.0234 243.012 73.5117 244.09 71.6367C245.191 69.7617 245.742 67.7109 245.742 65.4844C245.742 63.2109 245.203 61.125 244.125 59.2266C243.047 57.3047 241.582 55.7695 239.73 54.6211C237.902 53.4727 235.84 52.8984 233.543 52.8984C231.223 52.8984 229.148 53.4844 227.32 54.6562C225.492 55.8047 224.039 57.3398 222.961 59.2617C221.906 61.1602 221.379 63.2578 221.379 65.5547Z"
          fill="#FACC15"/>
    <path d="M100.125 65.4492C100.125 68.0977 99.6328 70.6758 98.6484 73.1836C97.6875 75.6914 96.2344 77.9062 94.2891 79.8281C92.5781 81.4922 90.6094 82.7812 88.3828 83.6953C86.1562 84.6094 83.8477 85.0664 81.457 85.0664C79.0195 85.0664 76.8516 84.5508 74.9531 83.5195C73.0781 82.4883 71.3789 81.0938 69.8555 79.3359V94.1367C69.8555 95.0977 69.5039 95.918 68.8008 96.5977C68.1211 97.3008 67.3008 97.6523 66.3398 97.6523C65.3789 97.6523 64.5469 97.3008 63.8438 96.5977C63.1641 95.918 62.8242 95.0977 62.8242 94.1367V49.2422C62.8242 48.2812 63.1641 47.4609 63.8438 46.7812C64.5469 46.0781 65.3789 45.7266 66.3398 45.7266C67.3008 45.7266 68.0156 46.0781 68.4844 46.7812C68.9766 47.4609 69.293 48.2812 69.4336 49.2422L69.8555 52.0898C71.1914 50.168 72.9492 48.6562 75.1289 47.5547C77.332 46.4531 79.5234 45.9023 81.7031 45.9023C84.3516 45.9023 86.7891 46.4297 89.0156 47.4844C91.2656 48.5391 93.2227 49.9805 94.8867 51.8086C96.5508 53.6133 97.8398 55.6875 98.7539 58.0312C99.668 60.375 100.125 62.8477 100.125 65.4492ZM81.7734 52.9336C80.25 52.9336 78.7383 53.2734 77.2383 53.9531C75.7383 54.6094 74.4609 55.5234 73.4062 56.6953C72.3516 57.8438 71.5312 59.2148 70.9453 60.8086C70.3828 62.3789 70.1016 63.9844 70.1016 65.625C70.1016 67.875 70.5938 69.9492 71.5781 71.8477C72.5625 73.7461 73.9219 75.2695 75.6562 76.418C77.3906 77.5664 79.3711 78.1406 81.5977 78.1406C83.8242 78.1406 85.8047 77.543 87.5391 76.3477C89.2734 75.1289 90.6328 73.5586 91.6172 71.6367C92.625 69.6914 93.1289 67.6289 93.1289 65.4492C93.1289 63.2461 92.6367 61.1953 91.6523 59.2969C90.668 57.3984 89.3203 55.8633 87.6094 54.6914C85.8984 53.5195 83.9531 52.9336 81.7734 52.9336Z"
          fill="#F87171"/>
    <path d="M128.742 50.2266C128.742 52.1016 127.84 53.1445 126.035 53.3555C125.379 53.4258 124.547 53.2148 123.539 52.7227C122.531 52.207 121.512 51.9492 120.48 51.9492C118.441 51.9492 116.824 52.4766 115.629 53.5312C114.434 54.5625 113.578 55.957 113.062 57.7148C112.547 59.4727 112.289 61.4414 112.289 63.6211V81.7617C112.289 82.793 111.973 83.6133 111.34 84.2227C110.73 84.832 109.875 85.1367 108.773 85.1367C107.695 85.1367 106.84 84.832 106.207 84.2227C105.574 83.6133 105.258 82.7812 105.258 81.7266V49.3477C105.258 48.293 105.516 47.4258 106.031 46.7461C106.57 46.0664 107.297 45.7266 108.211 45.7266C108.75 45.7266 109.371 45.9609 110.074 46.4297C110.801 46.875 111.305 47.6484 111.586 48.75L111.938 51.2812C112.242 50.625 112.828 49.8633 113.695 48.9961C114.562 48.1289 115.594 47.3789 116.789 46.7461C117.984 46.0898 119.227 45.7617 120.516 45.7617C122.906 45.7617 124.875 46.043 126.422 46.6055C127.969 47.1445 128.742 48.3516 128.742 50.2266Z"
          fill="#F87171"/>
    <path d="M148.887 45.7969C151.582 45.7969 154.09 46.3125 156.41 47.3438C158.754 48.375 160.805 49.8047 162.562 51.6328C164.32 53.4609 165.691 55.5586 166.676 57.9258C167.684 60.293 168.188 62.8125 168.188 65.4844C168.188 68.1094 167.684 70.6055 166.676 72.9727C165.668 75.3164 164.273 77.3906 162.492 79.1953C160.734 80.9766 158.684 82.3828 156.34 83.4141C154.02 84.4453 151.535 84.9609 148.887 84.9609C146.262 84.9609 143.777 84.457 141.434 83.4492C139.113 82.4414 137.062 81.0469 135.281 79.2656C133.523 77.4844 132.141 75.4219 131.133 73.0781C130.125 70.7109 129.621 68.1797 129.621 65.4844C129.621 62.8125 130.125 60.293 131.133 57.9258C132.141 55.5586 133.523 53.4727 135.281 51.668C137.062 49.8398 139.113 48.4102 141.434 47.3789C143.754 46.3242 146.238 45.7969 148.887 45.7969ZM136.723 65.5547C136.723 67.8281 137.273 69.9023 138.375 71.7773C139.5 73.6289 140.988 75.1055 142.84 76.207C144.691 77.3086 146.719 77.8594 148.922 77.8594C151.172 77.8594 153.211 77.2969 155.039 76.1719C156.891 75.0234 158.355 73.5117 159.434 71.6367C160.535 69.7617 161.086 67.7109 161.086 65.4844C161.086 63.2109 160.547 61.125 159.469 59.2266C158.391 57.3047 156.926 55.7695 155.074 54.6211C153.246 53.4727 151.184 52.8984 148.887 52.8984C146.566 52.8984 144.492 53.4844 142.664 54.6562C140.836 55.8047 139.383 57.3398 138.305 59.2617C137.25 61.1602 136.723 63.2578 136.723 65.5547Z"
          fill="#F87171"/>
</svg>
