<svg width="48" height="48" viewBox="0 0 48 48" fill="none" xmlns="http://www.w3.org/2000/svg">
<path d="M30.6289 16.123C30.8047 16.041 31.0215 16 31.2793 16C31.7363 16 32.1289 16.1641 32.457 16.4922C32.7852 16.8203 32.9492 17.2129 32.9492 17.6699C32.9492 17.998 32.8438 18.3145 32.6328 18.6191C32.4336 18.9121 32.1816 19.1172 31.877 19.2344L20.1172 23.8926L31.8945 28.7617C32.1992 28.8789 32.4512 29.084 32.6504 29.377C32.8496 29.6582 32.9492 29.9688 32.9492 30.3086C32.9492 30.7656 32.7852 31.1582 32.457 31.4863C32.1289 31.8145 31.7363 31.9785 31.2793 31.9785C31.0332 31.9785 30.8105 31.9375 30.6113 31.8555L15.0195 25.4043C14.7266 25.2754 14.4805 25.0645 14.2812 24.7715C14.0938 24.4785 14 24.1738 14 23.8574C14 23.5293 14.0996 23.2188 14.2988 22.9258C14.498 22.6328 14.75 22.4277 15.0547 22.3105L30.6289 16.123Z" fill="#C2AEA2"/>
<circle cx="24" cy="24" r="23" stroke="#C2AEA2" stroke-width="2"/>
</svg>
