<svg width="32" height="46" viewBox="0 0 32 46" fill="none" xmlns="http://www.w3.org/2000/svg">
<rect width="2" height="2" fill="#56B300"/>
<rect y="16" width="2" height="2" fill="#FFBC1F"/>
<rect y="32" width="2" height="2" fill="#FF4242"/>
<rect x="2" width="2" height="2" fill="#56B300"/>
<rect x="2" y="16" width="2" height="2" fill="#FFBC1F"/>
<rect x="10" width="2" height="2" fill="#56B300"/>
<rect x="10" y="32" width="2" height="2" fill="#FF4242"/>
<rect x="18" y="32" width="2" height="2" fill="#FF4242"/>
<rect x="2" y="32" width="2" height="2" fill="#FF4242"/>
<rect x="24" y="32" width="2" height="2" fill="#FF4242"/>
<rect x="18" width="2" height="2" fill="#56B300"/>
<rect x="10" y="16" width="2" height="2" fill="#FFBC1F"/>
<rect x="4" width="2" height="2" fill="#56B300"/>
<rect x="4" y="16" width="2" height="2" fill="#FFBC1F"/>
<rect x="12" width="2" height="2" fill="#56B300"/>
<rect x="12" y="32" width="2" height="2" fill="#FF4242"/>
<rect x="20" y="32" width="2" height="2" fill="#FF4242"/>
<rect x="4" y="32" width="2" height="2" fill="#FF4242"/>
<rect x="26" y="32" width="2" height="2" fill="#FF4242"/>
<rect x="20" width="2" height="2" fill="#56B300"/>
<rect x="12" y="16" width="2" height="2" fill="#FFBC1F"/>
<rect x="6" width="2" height="2" fill="#56B300"/>
<rect x="6" y="16" width="2" height="2" fill="#FFBC1F"/>
<rect x="14" width="2" height="2" fill="#56B300"/>
<rect x="14" y="32" width="2" height="2" fill="#FF4242"/>
<rect x="6" y="32" width="2" height="2" fill="#FF4242"/>
<rect x="28" y="32" width="2" height="2" fill="#FF4242"/>
<rect x="22" width="2" height="2" fill="#56B300"/>
<rect x="14" y="16" width="2" height="2" fill="#FFBC1F"/>
<rect x="8" width="2" height="2" fill="#56B300"/>
<rect x="8" y="16" width="2" height="2" fill="#FFBC1F"/>
<rect x="16" width="2" height="2" fill="#56B300"/>
<rect x="16" y="32" width="2" height="2" fill="#FF4242"/>
<rect x="8" y="32" width="2" height="2" fill="#FF4242"/>
<rect x="30" y="32" width="2" height="2" fill="#FF4242"/>
<rect x="24" width="2" height="2" fill="#56B300"/>
<rect x="16" y="16" width="2" height="2" fill="#FFBC1F"/>
<rect y="2" width="2" height="2" fill="#56B300"/>
<rect y="18" width="2" height="2" fill="#FFBC1F"/>
<rect y="34" width="2" height="2" fill="#FF4242"/>
<rect x="8" y="2" width="2" height="2" fill="#56B300"/>
<rect x="8" y="18" width="2" height="2" fill="#FFBC1F"/>
<rect x="16" y="2" width="2" height="2" fill="#56B300"/>
<rect x="16" y="34" width="2" height="2" fill="#FF4242"/>
<rect x="8" y="34" width="2" height="2" fill="#FF4242"/>
<rect x="30" y="34" width="2" height="2" fill="#FF4242"/>
<rect x="24" y="2" width="2" height="2" fill="#56B300"/>
<rect x="16" y="18" width="2" height="2" fill="#FFBC1F"/>
<rect y="4" width="2" height="2" fill="#56B300"/>
<rect y="20" width="2" height="2" fill="#FFBC1F"/>
<rect y="36" width="2" height="2" fill="#FF4242"/>
<rect x="8" y="4" width="2" height="2" fill="#56B300"/>
<rect x="8" y="20" width="2" height="2" fill="#FFBC1F"/>
<rect x="16" y="4" width="2" height="2" fill="#56B300"/>
<rect x="16" y="36" width="2" height="2" fill="#FF4242"/>
<rect x="8" y="36" width="2" height="2" fill="#FF4242"/>
<rect x="30" y="36" width="2" height="2" fill="#FF4242"/>
<rect x="24" y="4" width="2" height="2" fill="#56B300"/>
<rect x="16" y="20" width="2" height="2" fill="#FFBC1F"/>
<rect y="6" width="2" height="2" fill="#56B300"/>
<rect y="22" width="2" height="2" fill="#FFBC1F"/>
<rect y="38" width="2" height="2" fill="#FF4242"/>
<rect x="8" y="6" width="2" height="2" fill="#56B300"/>
<rect x="8" y="22" width="2" height="2" fill="#FFBC1F"/>
<rect x="16" y="6" width="2" height="2" fill="#56B300"/>
<rect x="16" y="38" width="2" height="2" fill="#FF4242"/>
<rect x="8" y="38" width="2" height="2" fill="#FF4242"/>
<rect x="30" y="38" width="2" height="2" fill="#FF4242"/>
<rect x="24" y="6" width="2" height="2" fill="#56B300"/>
<rect x="16" y="22" width="2" height="2" fill="#FFBC1F"/>
<rect y="8" width="2" height="2" fill="#56B300"/>
<rect y="24" width="2" height="2" fill="#FFBC1F"/>
<rect x="8" y="8" width="2" height="2" fill="#56B300"/>
<rect x="8" y="24" width="2" height="2" fill="#FFBC1F"/>
<rect x="16" y="8" width="2" height="2" fill="#56B300"/>
<rect x="16" y="40" width="2" height="2" fill="#FF4242"/>
<rect x="8" y="40" width="2" height="2" fill="#FF4242"/>
<rect x="30" y="40" width="2" height="2" fill="#FF4242"/>
<rect x="24" y="8" width="2" height="2" fill="#56B300"/>
<rect x="16" y="24" width="2" height="2" fill="#FFBC1F"/>
<rect x="8" y="12" width="2" height="2" fill="#56B300"/>
<rect x="8" y="28" width="2" height="2" fill="#FFBC1F"/>
<rect x="16" y="12" width="2" height="2" fill="#56B300"/>
<rect x="16" y="44" width="2" height="2" fill="#FF4242"/>
<rect x="8" y="44" width="2" height="2" fill="#FF4242"/>
<rect x="30" y="44" width="2" height="2" fill="#FF4242"/>
<rect x="24" y="12" width="2" height="2" fill="#56B300"/>
<rect x="16" y="28" width="2" height="2" fill="#FFBC1F"/>
<rect y="10" width="2" height="2" fill="#56B300"/>
<rect y="26" width="2" height="2" fill="#FFBC1F"/>
<rect y="42" width="2" height="2" fill="#FF4242"/>
<rect x="6" y="8" width="2" height="2" fill="#56B300"/>
<rect x="6" y="24" width="2" height="2" fill="#FFBC1F"/>
<rect x="14" y="6" width="2" height="2" fill="#56B300"/>
<rect x="6" y="36" width="2" height="2" fill="#FF4242"/>
<rect x="28" y="36" width="2" height="2" fill="#FF4242"/>
<rect x="8" y="10" width="2" height="2" fill="#56B300"/>
<rect x="8" y="26" width="2" height="2" fill="#FFBC1F"/>
<rect x="16" y="10" width="2" height="2" fill="#56B300"/>
<rect x="16" y="42" width="2" height="2" fill="#FF4242"/>
<rect x="22" y="42" width="2" height="2" fill="#FF4242"/>
<rect x="8" y="42" width="2" height="2" fill="#FF4242"/>
<rect x="30" y="42" width="2" height="2" fill="#FF4242"/>
<rect x="24" y="10" width="2" height="2" fill="#56B300"/>
<rect x="16" y="26" width="2" height="2" fill="#FFBC1F"/>
<rect x="4" y="8" width="2" height="2" fill="#56B300"/>
<rect x="4" y="24" width="2" height="2" fill="#FFBC1F"/>
<rect x="12" y="8" width="2" height="2" fill="#56B300"/>
<rect x="12" y="40" width="2" height="2" fill="#FF4242"/>
<rect x="20" y="40" width="2" height="2" fill="#FF4242"/>
<rect x="20" y="38" width="2" height="2" fill="#FF4242"/>
<rect x="4" y="40" width="2" height="2" fill="#FF4242"/>
<rect x="26" y="40" width="2" height="2" fill="#FF4242"/>
<rect x="20" y="8" width="2" height="2" fill="#56B300"/>
<rect x="12" y="24" width="2" height="2" fill="#FFBC1F"/>
<rect x="6" y="10" width="2" height="2" fill="#56B300"/>
<rect x="6" y="26" width="2" height="2" fill="#FFBC1F"/>
<rect x="4" y="10" width="2" height="2" fill="#56B300"/>
<rect x="4" y="26" width="2" height="2" fill="#FFBC1F"/>
<rect x="12" y="10" width="2" height="2" fill="#56B300"/>
<rect x="12" y="42" width="2" height="2" fill="#FF4242"/>
<rect x="2" y="40" width="2" height="2" fill="#FF4242"/>
<rect y="40" width="2" height="2" fill="#FF4242"/>
<rect x="24" y="40" width="2" height="2" fill="#FF4242"/>
<rect x="20" y="6" width="2" height="2" fill="#56B300"/>
<rect x="12" y="22" width="2" height="2" fill="#FFBC1F"/>
<rect x="6" y="12" width="2" height="2" fill="#56B300"/>
<rect x="6" y="28" width="2" height="2" fill="#FFBC1F"/>
<rect x="14" y="12" width="2" height="2" fill="#56B300"/>
<rect x="14" y="44" width="2" height="2" fill="#FF4242"/>
<rect x="6" y="44" width="2" height="2" fill="#FF4242"/>
<rect x="28" y="44" width="2" height="2" fill="#FF4242"/>
<rect x="22" y="12" width="2" height="2" fill="#56B300"/>
<rect x="14" y="28" width="2" height="2" fill="#FFBC1F"/>
<rect x="4" y="12" width="2" height="2" fill="#56B300"/>
<rect x="4" y="28" width="2" height="2" fill="#FFBC1F"/>
<rect x="12" y="12" width="2" height="2" fill="#56B300"/>
<rect x="12" y="44" width="2" height="2" fill="#FF4242"/>
<rect x="20" y="44" width="2" height="2" fill="#FF4242"/>
<rect x="4" y="44" width="2" height="2" fill="#FF4242"/>
<rect x="26" y="44" width="2" height="2" fill="#FF4242"/>
<rect x="20" y="12" width="2" height="2" fill="#56B300"/>
<rect x="12" y="28" width="2" height="2" fill="#FFBC1F"/>
<rect x="4" y="4" width="2" height="2" fill="#56B300"/>
<rect x="2" y="2" width="2" height="2" fill="#56B300"/>
<rect x="4" y="20" width="2" height="2" fill="#FFBC1F"/>
<rect x="2" y="18" width="2" height="2" fill="#FFBC1F"/>
<rect x="12" y="4" width="2" height="2" fill="#56B300"/>
<rect x="10" y="2" width="2" height="2" fill="#56B300"/>
<rect x="12" y="36" width="2" height="2" fill="#FF4242"/>
<rect x="10" y="34" width="2" height="2" fill="#FF4242"/>
<rect x="2" y="34" width="2" height="2" fill="#FF4242"/>
<rect x="6" y="42" width="2" height="2" fill="#FF4242"/>
<rect x="24" y="34" width="2" height="2" fill="#FF4242"/>
<rect x="28" y="42" width="2" height="2" fill="#FF4242"/>
<rect x="20" y="36" width="2" height="2" fill="#FF4242"/>
<rect x="20" y="34" width="2" height="2" fill="#FF4242"/>
<rect x="22" y="32" width="2" height="2" fill="#FF4242"/>
<rect x="22" y="40" width="2" height="2" fill="#FF4242"/>
<rect x="22" y="38" width="2" height="2" fill="#FF4242"/>
<rect x="22" y="44" width="2" height="2" fill="#FF4242"/>
<rect x="22" y="36" width="2" height="2" fill="#FF4242"/>
<rect x="22" y="34" width="2" height="2" fill="#FF4242"/>
<rect x="4" y="36" width="2" height="2" fill="#FF4242"/>
<rect x="26" y="36" width="2" height="2" fill="#FF4242"/>
<rect x="20" y="4" width="2" height="2" fill="#56B300"/>
<rect x="18" y="2" width="2" height="2" fill="#56B300"/>
<rect x="22" y="10" width="2" height="2" fill="#56B300"/>
<rect x="12" y="20" width="2" height="2" fill="#FFBC1F"/>
<rect x="10" y="18" width="2" height="2" fill="#FFBC1F"/>
<rect x="14" y="26" width="2" height="2" fill="#FFBC1F"/>
<rect x="2" y="12" width="2" height="2" fill="#56B300"/>
<rect x="2" y="28" width="2" height="2" fill="#FFBC1F"/>
<rect x="10" y="12" width="2" height="2" fill="#56B300"/>
<rect x="10" y="44" width="2" height="2" fill="#FF4242"/>
<rect x="18" y="44" width="2" height="2" fill="#FF4242"/>
<rect x="2" y="44" width="2" height="2" fill="#FF4242"/>
<rect x="24" y="44" width="2" height="2" fill="#FF4242"/>
<rect x="18" y="12" width="2" height="2" fill="#56B300"/>
<rect x="10" y="28" width="2" height="2" fill="#FFBC1F"/>
<rect y="12" width="2" height="2" fill="#56B300"/>
<rect y="28" width="2" height="2" fill="#FFBC1F"/>
<rect y="44" width="2" height="2" fill="#FF4242"/>
</svg>
