<svg width="72" height="72" viewBox="0 0 72 72" fill="none" xmlns="http://www.w3.org/2000/svg">
<path fill-rule="evenodd" clip-rule="evenodd" d="M20.2375 43.9411C21.6065 44.9498 23.3627 45.4543 25.5063 45.4543C28.1003 45.4543 30.1717 44.8507 31.7209 43.6439C33.27 42.419 34.3598 40.5727 34.9903 38.1048C35.3685 36.5918 35.6928 35.0336 35.963 33.4304C36.0531 32.854 36.0982 32.3766 36.0982 31.9983C36.0982 30.7375 35.7828 29.6566 35.1524 28.756C34.522 27.8373 33.6574 27.1527 32.5585 26.7024C31.4597 26.2341 30.2168 26 28.8298 26C23.732 26 20.5707 28.4768 19.3458 33.4304C18.9135 35.2497 18.5803 36.8079 18.346 38.1048C18.256 38.6812 18.2109 39.1676 18.2109 39.5639C18.2109 41.4554 18.8864 42.9144 20.2375 43.9411ZM28.4515 40.6717C27.7489 41.2662 26.8934 41.5634 25.8846 41.5634C24.1554 41.5634 23.2907 40.7348 23.2907 39.0775C23.2907 38.6812 23.3267 38.3029 23.3988 37.9428C23.723 36.1955 24.0473 34.7183 24.3715 33.5115C24.6777 32.2866 25.1821 31.377 25.8846 30.7824C26.6051 30.188 27.4697 29.8907 28.4786 29.8907C30.1897 29.8907 31.0454 30.7104 31.0454 32.3495C31.0454 32.746 31.0094 33.1332 30.9374 33.5115C30.7212 34.7723 30.4059 36.2495 29.9916 37.9428C29.6854 39.1676 29.1721 40.0773 28.4515 40.6717Z" fill="#C2AEA2"/>
<path fill-rule="evenodd" clip-rule="evenodd" d="M36.8793 44.9949C36.9873 45.121 37.1406 45.1841 37.3387 45.1841H41.0134C41.1934 45.1841 41.3647 45.121 41.5268 44.9949C41.6888 44.8688 41.7879 44.7067 41.824 44.5086L43.0669 38.5912H46.7145C49.0743 38.5912 50.9297 38.0959 52.2807 37.1051C53.6497 36.1144 54.5594 34.5833 55.0097 32.5117C55.1178 32.0254 55.1718 31.557 55.1718 31.1067C55.1718 29.5395 54.5594 28.3417 53.3344 27.513C52.1275 26.6844 50.5244 26.2701 48.5249 26.2701H41.3376C41.1574 26.2701 40.9864 26.3332 40.8242 26.4592C40.6621 26.5854 40.563 26.7475 40.527 26.9456L36.7983 44.5086C36.7623 44.6887 36.7892 44.8508 36.8793 44.9949ZM48.8761 34.241C48.3177 34.6553 47.6602 34.8625 46.9038 34.8625H43.7964L44.8231 30.0259H48.0656C48.8041 30.0259 49.3264 30.17 49.6327 30.4582C49.939 30.7284 50.0921 31.1247 50.0921 31.6471C50.0921 31.8812 50.065 32.1514 50.011 32.4577C49.8309 33.2323 49.4526 33.8267 48.8761 34.241Z" fill="#C2AEA2"/>
</svg>
