<svg width="72" height="72" viewBox="0 0 72 72" fill="none" xmlns="http://www.w3.org/2000/svg">
<rect width="72" height="72" fill="black"/>
<path fill-rule="evenodd" clip-rule="evenodd" d="M19.5227 48.7528C18.3545 48.0393 17.64 46.7684 17.64 45.4039V37.7841C17.64 37.4923 17.7182 37.2111 17.8643 36.9612C18.318 36.1799 19.3245 35.9143 20.1068 36.3726L37.3273 46.3987C38.3338 46.9872 38.9545 48.0601 38.9545 49.2268V57.1226C38.9545 57.4821 38.8553 57.8414 38.6675 58.1487C38.0991 59.0757 36.8891 59.3675 35.9609 58.7997L19.5227 48.7528ZM45.1918 34.284C46.1983 34.8726 46.8189 35.9455 46.8189 37.1122V53.133C46.8189 53.607 46.5633 54.0444 46.1513 54.2736L42.3808 56.3935C42.3338 56.4195 42.2817 56.4404 42.2295 56.4559V47.5601C42.2295 46.4091 41.6246 45.3413 40.6337 44.7476L25.5097 35.7112V25.6694C25.5097 25.3778 25.5879 25.0965 25.734 24.8465C26.1877 24.0653 27.1942 23.7996 27.9765 24.258L45.1918 34.284ZM52.7276 22.4507C53.7394 23.034 54.36 24.1174 54.36 25.2841V48.6851C54.36 49.1642 54.094 49.607 53.6716 49.8362L50.0992 51.7632V35.4716C50.0992 34.3205 49.4942 33.258 48.5086 32.6643L33.0509 23.4038V13.8777C33.0509 13.5861 33.129 13.3048 33.2698 13.0548C33.7236 12.2736 34.7301 12.0079 35.5124 12.4611L52.7276 22.4507Z" fill="#00D395"/>
</svg>
