<svg width="72" height="72" viewBox="0 0 72 72" fill="none" xmlns="http://www.w3.org/2000/svg">
<path d="M36.3592 14.2164C36.2458 14.1545 36.1324 14.1236 36.0087 14.1236C35.8953 14.1236 35.7716 14.1545 35.6685 14.2164L17.1538 24.9066C16.9373 25.0304 16.8033 25.2571 16.8033 25.5046V46.8954C16.8033 47.1429 16.9373 47.3696 17.1538 47.4934L20.0006 49.138L28.9775 24.5254C29.0909 24.1955 29.4104 23.979 29.7609 23.979H34.4515C34.7504 23.979 34.9463 24.2677 34.8535 24.5357L23.7698 54.9191L15.5868 50.1943C14.4116 49.5139 13.6797 48.2459 13.6797 46.8851V25.5046C13.6797 24.1438 14.4116 22.8861 15.5868 22.2057L34.1015 11.5154C34.6891 11.1753 35.3489 11 36.0087 11C36.6684 11 37.3282 11.1753 37.9261 11.5154L56.4305 22.1954C57.6057 22.8758 58.3377 24.1438 58.3377 25.5046V46.8851C58.3377 48.2562 57.616 49.5139 56.4305 50.1943L37.9158 60.8846C37.3282 61.2248 36.6684 61.4 36.0087 61.4C35.3489 61.4 34.6891 61.2248 34.1015 60.8846L25.6915 56.0286L37.1936 24.5254C37.307 24.1955 37.6266 23.979 37.9771 23.979H42.6676C42.9562 23.979 43.1624 24.2677 43.0593 24.546L31.6385 55.8614L35.6582 58.1836C35.7716 58.2455 35.885 58.2764 36.0087 58.2764C36.1324 58.2764 36.2561 58.2455 36.3592 58.1836L40.4195 55.837L37.308 47.2975C37.2359 47.112 37.2359 46.9058 37.308 46.7202L39.7512 40.0298C39.8852 39.6587 40.4007 39.6587 40.5347 40.0298L45.274 53.0313L47.2016 51.9173L41.4115 36.0402C41.3394 35.8547 41.3394 35.6485 41.4115 35.4629L43.8547 28.7725C43.9888 28.4014 44.5042 28.4014 44.6382 28.7725L52.0563 49.1115L54.8739 47.483C55.0904 47.3593 55.2244 47.1325 55.2244 46.8851V25.5046C55.2244 25.2571 55.0904 25.0304 54.8739 24.9066L36.3592 14.2164Z" fill="#C2AEA2"/>
</svg>
