<svg width="72" height="72" viewBox="0 0 72 72" fill="none" xmlns="http://www.w3.org/2000/svg">
<path d="M53.958 36.5565C53.958 32.904 52.8607 29.5054 50.9811 26.6656L56.5565 21.0902L51.5424 16.0762L45.9823 21.6364C43.1273 19.7186 39.6931 18.5985 36.0025 18.5985C32.3499 18.5985 28.9513 19.6958 26.1115 21.5754L20.5336 16L15.5196 21.014L21.0797 26.5742C19.162 29.4292 18.0418 32.8633 18.0418 36.554C18.0418 40.2066 19.1391 43.6052 21.0187 46.4449L15.4434 52.0229L20.4574 57.0369L26.0175 51.4767C28.8726 53.3945 32.3067 54.5146 35.9974 54.5146C39.6499 54.5146 43.0485 53.4173 45.8883 51.5377L51.4662 57.1156L56.4803 52.1016L50.9201 46.5414C52.8378 43.6814 53.958 40.2472 53.958 36.5565ZM25.1362 36.5565C25.1362 30.5646 30.0105 25.6903 36.0025 25.6903C41.9944 25.6903 46.8687 30.5646 46.8687 36.5565C46.8687 42.5485 41.9944 47.4228 36.0025 47.4228C30.0105 47.4228 25.1362 42.5485 25.1362 36.5565Z" fill="#F1EBE7"/>
</svg>
