<svg width="48" height="48" viewBox="0 0 48 48" fill="none" xmlns="http://www.w3.org/2000/svg">
<rect x="8" y="1" width="2" height="2" fill="#56B300"/>
<rect x="8" y="17" width="2" height="2" fill="#FFBC1F"/>
<rect x="8" y="33" width="2" height="2" fill="#FF4242"/>
<rect x="10" y="1" width="2" height="2" fill="#56B300"/>
<rect x="10" y="17" width="2" height="2" fill="#FFBC1F"/>
<rect x="18" y="1" width="2" height="2" fill="#56B300"/>
<rect x="18" y="33" width="2" height="2" fill="#FF4242"/>
<rect x="26" y="33" width="2" height="2" fill="#FF4242"/>
<rect x="10" y="33" width="2" height="2" fill="#FF4242"/>
<rect x="32" y="33" width="2" height="2" fill="#FF4242"/>
<rect x="26" y="1" width="2" height="2" fill="#56B300"/>
<rect x="18" y="17" width="2" height="2" fill="#FFBC1F"/>
<rect x="12" y="1" width="2" height="2" fill="#56B300"/>
<rect x="12" y="17" width="2" height="2" fill="#FFBC1F"/>
<rect x="20" y="1" width="2" height="2" fill="#56B300"/>
<rect x="20" y="33" width="2" height="2" fill="#FF4242"/>
<rect x="28" y="33" width="2" height="2" fill="#FF4242"/>
<rect x="12" y="33" width="2" height="2" fill="#FF4242"/>
<rect x="34" y="33" width="2" height="2" fill="#FF4242"/>
<rect x="28" y="1" width="2" height="2" fill="#56B300"/>
<rect x="20" y="17" width="2" height="2" fill="#FFBC1F"/>
<rect x="14" y="1" width="2" height="2" fill="#56B300"/>
<rect x="14" y="17" width="2" height="2" fill="#FFBC1F"/>
<rect x="22" y="1" width="2" height="2" fill="#56B300"/>
<rect x="22" y="33" width="2" height="2" fill="#FF4242"/>
<rect x="14" y="33" width="2" height="2" fill="#FF4242"/>
<rect x="36" y="33" width="2" height="2" fill="#FF4242"/>
<rect x="30" y="1" width="2" height="2" fill="#56B300"/>
<rect x="22" y="17" width="2" height="2" fill="#FFBC1F"/>
<rect x="16" y="1" width="2" height="2" fill="#56B300"/>
<rect x="16" y="17" width="2" height="2" fill="#FFBC1F"/>
<rect x="24" y="1" width="2" height="2" fill="#56B300"/>
<rect x="24" y="33" width="2" height="2" fill="#FF4242"/>
<rect x="16" y="33" width="2" height="2" fill="#FF4242"/>
<rect x="38" y="33" width="2" height="2" fill="#FF4242"/>
<rect x="32" y="1" width="2" height="2" fill="#56B300"/>
<rect x="24" y="17" width="2" height="2" fill="#FFBC1F"/>
<rect x="8" y="3" width="2" height="2" fill="#56B300"/>
<rect x="8" y="19" width="2" height="2" fill="#FFBC1F"/>
<rect x="8" y="35" width="2" height="2" fill="#FF4242"/>
<rect x="16" y="3" width="2" height="2" fill="#56B300"/>
<rect x="16" y="19" width="2" height="2" fill="#FFBC1F"/>
<rect x="24" y="3" width="2" height="2" fill="#56B300"/>
<rect x="24" y="35" width="2" height="2" fill="#FF4242"/>
<rect x="16" y="35" width="2" height="2" fill="#FF4242"/>
<rect x="38" y="35" width="2" height="2" fill="#FF4242"/>
<rect x="32" y="3" width="2" height="2" fill="#56B300"/>
<rect x="24" y="19" width="2" height="2" fill="#FFBC1F"/>
<rect x="8" y="5" width="2" height="2" fill="#56B300"/>
<rect x="8" y="21" width="2" height="2" fill="#FFBC1F"/>
<rect x="8" y="37" width="2" height="2" fill="#FF4242"/>
<rect x="16" y="5" width="2" height="2" fill="#56B300"/>
<rect x="16" y="21" width="2" height="2" fill="#FFBC1F"/>
<rect x="24" y="5" width="2" height="2" fill="#56B300"/>
<rect x="24" y="37" width="2" height="2" fill="#FF4242"/>
<rect x="16" y="37" width="2" height="2" fill="#FF4242"/>
<rect x="38" y="37" width="2" height="2" fill="#FF4242"/>
<rect x="32" y="5" width="2" height="2" fill="#56B300"/>
<rect x="24" y="21" width="2" height="2" fill="#FFBC1F"/>
<rect x="8" y="7" width="2" height="2" fill="#56B300"/>
<rect x="8" y="23" width="2" height="2" fill="#FFBC1F"/>
<rect x="8" y="39" width="2" height="2" fill="#FF4242"/>
<rect x="16" y="7" width="2" height="2" fill="#56B300"/>
<rect x="16" y="23" width="2" height="2" fill="#FFBC1F"/>
<rect x="24" y="7" width="2" height="2" fill="#56B300"/>
<rect x="24" y="39" width="2" height="2" fill="#FF4242"/>
<rect x="16" y="39" width="2" height="2" fill="#FF4242"/>
<rect x="38" y="39" width="2" height="2" fill="#FF4242"/>
<rect x="32" y="7" width="2" height="2" fill="#56B300"/>
<rect x="24" y="23" width="2" height="2" fill="#FFBC1F"/>
<rect x="8" y="9" width="2" height="2" fill="#56B300"/>
<rect x="8" y="25" width="2" height="2" fill="#FFBC1F"/>
<rect x="16" y="9" width="2" height="2" fill="#56B300"/>
<rect x="16" y="25" width="2" height="2" fill="#FFBC1F"/>
<rect x="24" y="9" width="2" height="2" fill="#56B300"/>
<rect x="24" y="41" width="2" height="2" fill="#FF4242"/>
<rect x="16" y="41" width="2" height="2" fill="#FF4242"/>
<rect x="38" y="41" width="2" height="2" fill="#FF4242"/>
<rect x="32" y="9" width="2" height="2" fill="#56B300"/>
<rect x="24" y="25" width="2" height="2" fill="#FFBC1F"/>
<rect x="16" y="13" width="2" height="2" fill="#56B300"/>
<rect x="16" y="29" width="2" height="2" fill="#FFBC1F"/>
<rect x="24" y="13" width="2" height="2" fill="#56B300"/>
<rect x="24" y="45" width="2" height="2" fill="#FF4242"/>
<rect x="16" y="45" width="2" height="2" fill="#FF4242"/>
<rect x="38" y="45" width="2" height="2" fill="#FF4242"/>
<rect x="32" y="13" width="2" height="2" fill="#56B300"/>
<rect x="24" y="29" width="2" height="2" fill="#FFBC1F"/>
<rect x="8" y="11" width="2" height="2" fill="#56B300"/>
<rect x="8" y="27" width="2" height="2" fill="#FFBC1F"/>
<rect x="8" y="43" width="2" height="2" fill="#FF4242"/>
<rect x="14" y="9" width="2" height="2" fill="#56B300"/>
<rect x="14" y="25" width="2" height="2" fill="#FFBC1F"/>
<rect x="22" y="7" width="2" height="2" fill="#56B300"/>
<rect x="14" y="37" width="2" height="2" fill="#FF4242"/>
<rect x="36" y="37" width="2" height="2" fill="#FF4242"/>
<rect x="16" y="11" width="2" height="2" fill="#56B300"/>
<rect x="16" y="27" width="2" height="2" fill="#FFBC1F"/>
<rect x="24" y="11" width="2" height="2" fill="#56B300"/>
<rect x="24" y="43" width="2" height="2" fill="#FF4242"/>
<rect x="30" y="43" width="2" height="2" fill="#FF4242"/>
<rect x="16" y="43" width="2" height="2" fill="#FF4242"/>
<rect x="38" y="43" width="2" height="2" fill="#FF4242"/>
<rect x="32" y="11" width="2" height="2" fill="#56B300"/>
<rect x="24" y="27" width="2" height="2" fill="#FFBC1F"/>
<rect x="12" y="9" width="2" height="2" fill="#56B300"/>
<rect x="12" y="25" width="2" height="2" fill="#FFBC1F"/>
<rect x="20" y="9" width="2" height="2" fill="#56B300"/>
<rect x="20" y="41" width="2" height="2" fill="#FF4242"/>
<rect x="28" y="41" width="2" height="2" fill="#FF4242"/>
<rect x="28" y="39" width="2" height="2" fill="#FF4242"/>
<rect x="12" y="41" width="2" height="2" fill="#FF4242"/>
<rect x="34" y="41" width="2" height="2" fill="#FF4242"/>
<rect x="28" y="9" width="2" height="2" fill="#56B300"/>
<rect x="20" y="25" width="2" height="2" fill="#FFBC1F"/>
<rect x="14" y="11" width="2" height="2" fill="#56B300"/>
<rect x="14" y="27" width="2" height="2" fill="#FFBC1F"/>
<rect x="12" y="11" width="2" height="2" fill="#56B300"/>
<rect x="12" y="27" width="2" height="2" fill="#FFBC1F"/>
<rect x="20" y="11" width="2" height="2" fill="#56B300"/>
<rect x="20" y="43" width="2" height="2" fill="#FF4242"/>
<rect x="10" y="41" width="2" height="2" fill="#FF4242"/>
<rect x="8" y="41" width="2" height="2" fill="#FF4242"/>
<rect x="32" y="41" width="2" height="2" fill="#FF4242"/>
<rect x="28" y="7" width="2" height="2" fill="#56B300"/>
<rect x="20" y="23" width="2" height="2" fill="#FFBC1F"/>
<rect x="14" y="13" width="2" height="2" fill="#56B300"/>
<rect x="14" y="29" width="2" height="2" fill="#FFBC1F"/>
<rect x="22" y="13" width="2" height="2" fill="#56B300"/>
<rect x="22" y="45" width="2" height="2" fill="#FF4242"/>
<rect x="14" y="45" width="2" height="2" fill="#FF4242"/>
<rect x="36" y="45" width="2" height="2" fill="#FF4242"/>
<rect x="30" y="13" width="2" height="2" fill="#56B300"/>
<rect x="22" y="29" width="2" height="2" fill="#FFBC1F"/>
<rect x="12" y="13" width="2" height="2" fill="#56B300"/>
<rect x="12" y="29" width="2" height="2" fill="#FFBC1F"/>
<rect x="20" y="13" width="2" height="2" fill="#56B300"/>
<rect x="20" y="45" width="2" height="2" fill="#FF4242"/>
<rect x="28" y="45" width="2" height="2" fill="#FF4242"/>
<rect x="12" y="45" width="2" height="2" fill="#FF4242"/>
<rect x="34" y="45" width="2" height="2" fill="#FF4242"/>
<rect x="28" y="13" width="2" height="2" fill="#56B300"/>
<rect x="20" y="29" width="2" height="2" fill="#FFBC1F"/>
<rect x="12" y="5" width="2" height="2" fill="#56B300"/>
<rect x="10" y="3" width="2" height="2" fill="#56B300"/>
<rect x="12" y="21" width="2" height="2" fill="#FFBC1F"/>
<rect x="10" y="19" width="2" height="2" fill="#FFBC1F"/>
<rect x="20" y="5" width="2" height="2" fill="#56B300"/>
<rect x="18" y="3" width="2" height="2" fill="#56B300"/>
<rect x="20" y="37" width="2" height="2" fill="#FF4242"/>
<rect x="18" y="35" width="2" height="2" fill="#FF4242"/>
<rect x="10" y="35" width="2" height="2" fill="#FF4242"/>
<rect x="14" y="43" width="2" height="2" fill="#FF4242"/>
<rect x="32" y="35" width="2" height="2" fill="#FF4242"/>
<rect x="36" y="43" width="2" height="2" fill="#FF4242"/>
<rect x="28" y="37" width="2" height="2" fill="#FF4242"/>
<rect x="28" y="35" width="2" height="2" fill="#FF4242"/>
<rect x="30" y="33" width="2" height="2" fill="#FF4242"/>
<rect x="30" y="41" width="2" height="2" fill="#FF4242"/>
<rect x="30" y="39" width="2" height="2" fill="#FF4242"/>
<rect x="30" y="45" width="2" height="2" fill="#FF4242"/>
<rect x="30" y="37" width="2" height="2" fill="#FF4242"/>
<rect x="30" y="35" width="2" height="2" fill="#FF4242"/>
<rect x="12" y="37" width="2" height="2" fill="#FF4242"/>
<rect x="34" y="37" width="2" height="2" fill="#FF4242"/>
<rect x="28" y="5" width="2" height="2" fill="#56B300"/>
<rect x="26" y="3" width="2" height="2" fill="#56B300"/>
<rect x="30" y="11" width="2" height="2" fill="#56B300"/>
<rect x="20" y="21" width="2" height="2" fill="#FFBC1F"/>
<rect x="18" y="19" width="2" height="2" fill="#FFBC1F"/>
<rect x="22" y="27" width="2" height="2" fill="#FFBC1F"/>
<rect x="10" y="13" width="2" height="2" fill="#56B300"/>
<rect x="10" y="29" width="2" height="2" fill="#FFBC1F"/>
<rect x="18" y="13" width="2" height="2" fill="#56B300"/>
<rect x="18" y="45" width="2" height="2" fill="#FF4242"/>
<rect x="26" y="45" width="2" height="2" fill="#FF4242"/>
<rect x="10" y="45" width="2" height="2" fill="#FF4242"/>
<rect x="32" y="45" width="2" height="2" fill="#FF4242"/>
<rect x="26" y="13" width="2" height="2" fill="#56B300"/>
<rect x="18" y="29" width="2" height="2" fill="#FFBC1F"/>
<rect x="8" y="13" width="2" height="2" fill="#56B300"/>
<rect x="8" y="29" width="2" height="2" fill="#FFBC1F"/>
<rect x="8" y="45" width="2" height="2" fill="#FF4242"/>
</svg>
