<svg width="228" height="48" viewBox="0 0 228 48" fill="none" xmlns="http://www.w3.org/2000/svg">
<rect width="228" height="48" rx="6" fill="#1B1B1B"/>
<path d="M212 23.1869C212 24.2704 211.798 25.3252 211.396 26.3512C211.003 27.3772 210.408 28.2833 209.612 29.0696C208.912 29.7504 208.107 30.2778 207.196 30.6517C206.285 31.0257 205.34 31.2127 204.362 31.2127C203.365 31.2127 202.478 31.0017 201.701 30.5798C200.934 30.1579 200.239 29.5874 199.616 28.8682V34.9235C199.616 35.3167 199.472 35.6523 199.184 35.9304C198.906 36.218 198.571 36.3618 198.178 36.3618C197.784 36.3618 197.444 36.218 197.156 35.9304C196.878 35.6523 196.739 35.3167 196.739 34.9235V16.5562C196.739 16.1631 196.878 15.8275 197.156 15.5494C197.444 15.2618 197.784 15.1179 198.178 15.1179C198.571 15.1179 198.863 15.2618 199.055 15.5494C199.256 15.8275 199.386 16.1631 199.443 16.5562L199.616 17.7213C200.162 16.935 200.882 16.3165 201.773 15.8658C202.675 15.4152 203.571 15.1898 204.463 15.1898C205.547 15.1898 206.544 15.4056 207.455 15.8371C208.375 16.2686 209.176 16.8583 209.857 17.6062C210.538 18.3445 211.065 19.1931 211.439 20.152C211.813 21.1109 212 22.1225 212 23.1869ZM204.492 18.0665C203.869 18.0665 203.25 18.2055 202.636 18.4836C202.023 18.7521 201.5 19.126 201.069 19.6055C200.637 20.0753 200.301 20.6363 200.062 21.2883C199.832 21.9307 199.717 22.5876 199.717 23.2588C199.717 24.1793 199.918 25.0279 200.321 25.8046C200.723 26.5813 201.28 27.2046 201.989 27.6744C202.699 28.1443 203.509 28.3792 204.42 28.3792C205.331 28.3792 206.141 28.1347 206.851 27.6457C207.56 27.147 208.116 26.5046 208.519 25.7183C208.931 24.9224 209.138 24.0786 209.138 23.1869C209.138 22.2855 208.936 21.4465 208.533 20.6698C208.131 19.8931 207.579 19.2651 206.879 18.7856C206.179 18.3062 205.384 18.0665 204.492 18.0665Z" fill="#E6E6E6"/>
<path d="M194.566 23.1869C194.566 24.2704 194.365 25.3252 193.962 26.3512C193.569 27.3772 192.974 28.2833 192.179 29.0696C191.479 29.7504 190.673 30.2778 189.762 30.6517C188.851 31.0257 187.907 31.2127 186.929 31.2127C185.932 31.2127 185.045 31.0017 184.268 30.5798C183.501 30.1579 182.806 29.5874 182.182 28.8682V34.9235C182.182 35.3167 182.038 35.6523 181.751 35.9304C181.473 36.218 181.137 36.3618 180.744 36.3618C180.351 36.3618 180.01 36.218 179.723 35.9304C179.445 35.6523 179.306 35.3167 179.306 34.9235V16.5562C179.306 16.1631 179.445 15.8275 179.723 15.5494C180.01 15.2618 180.351 15.1179 180.744 15.1179C181.137 15.1179 181.43 15.2618 181.621 15.5494C181.823 15.8275 181.952 16.1631 182.01 16.5562L182.182 17.7213C182.729 16.935 183.448 16.3165 184.34 15.8658C185.241 15.4152 186.138 15.1898 187.029 15.1898C188.113 15.1898 189.11 15.4056 190.021 15.8371C190.942 16.2686 191.742 16.8583 192.423 17.6062C193.104 18.3445 193.631 19.1931 194.005 20.152C194.379 21.1109 194.566 22.1225 194.566 23.1869ZM187.058 18.0665C186.435 18.0665 185.816 18.2055 185.203 18.4836C184.589 18.7521 184.066 19.126 183.635 19.6055C183.204 20.0753 182.868 20.6363 182.628 21.2883C182.398 21.9307 182.283 22.5876 182.283 23.2588C182.283 24.1793 182.484 25.0279 182.887 25.8046C183.29 26.5813 183.846 27.2046 184.556 27.6744C185.265 28.1443 186.075 28.3792 186.986 28.3792C187.897 28.3792 188.707 28.1347 189.417 27.6457C190.127 27.147 190.683 26.5046 191.085 25.7183C191.498 24.9224 191.704 24.0786 191.704 23.1869C191.704 22.2855 191.503 21.4465 191.1 20.6698C190.697 19.8931 190.146 19.2651 189.446 18.7856C188.746 18.3062 187.95 18.0665 187.058 18.0665Z" fill="#E6E6E6"/>
<path d="M168.476 15.0759C169.185 15.0759 169.876 15.2197 170.547 15.5074C171.228 15.7855 171.832 16.1403 172.359 16.5718C172.896 16.9937 173.294 17.4299 173.553 17.8806L173.711 16.4998C173.711 16.1067 173.826 15.7711 174.056 15.493C174.287 15.2054 174.598 15.0615 174.991 15.0615C175.384 15.0615 175.72 15.2054 175.998 15.493C176.286 15.7711 176.43 16.1067 176.43 16.4998V16.5286L176.401 29.8474C176.401 30.2405 176.257 30.5809 175.969 30.8686C175.691 31.1467 175.356 31.2857 174.963 31.2857C174.569 31.2857 174.258 31.1467 174.028 30.8686C173.797 30.5809 173.682 30.2405 173.682 29.8474L173.524 28.6968C173.026 29.5502 172.297 30.1878 171.338 30.6097C170.379 31.022 169.415 31.2282 168.447 31.2282C167.363 31.2282 166.347 31.0172 165.398 30.5953C164.448 30.1638 163.614 29.5741 162.895 28.8262C162.176 28.0783 161.61 27.2201 161.198 26.2516C160.795 25.2832 160.594 24.2619 160.594 23.188C160.594 22.1237 160.79 21.1072 161.183 20.1388C161.586 19.1607 162.142 18.2929 162.852 17.5354C163.571 16.7683 164.405 16.169 165.355 15.7375C166.313 15.2964 167.354 15.0759 168.476 15.0759ZM173.438 23.1592C173.438 22.2195 173.217 21.3566 172.776 20.5703C172.345 19.784 171.755 19.1511 171.007 18.6717C170.259 18.1923 169.406 17.9525 168.447 17.9525C167.507 17.9525 166.659 18.1923 165.901 18.6717C165.144 19.1511 164.544 19.7888 164.103 20.5847C163.662 21.3709 163.442 22.2243 163.442 23.1449C163.442 24.075 163.667 24.938 164.118 25.7338C164.568 26.5201 165.172 27.153 165.93 27.6324C166.697 28.1118 167.541 28.3516 168.461 28.3516C169.382 28.3516 170.216 28.1118 170.964 27.6324C171.722 27.153 172.321 26.5201 172.762 25.7338C173.213 24.938 173.438 24.0798 173.438 23.1592Z" fill="#E6E6E6"/>
<path d="M155.977 30.9537C155.325 30.9537 154.754 30.7236 154.265 30.2633C153.786 29.8031 153.546 29.2421 153.546 28.5805C153.546 27.9189 153.786 27.3627 154.265 26.9121C154.754 26.4518 155.325 26.2217 155.977 26.2217C156.629 26.2217 157.199 26.4518 157.688 26.9121C158.177 27.3627 158.422 27.9189 158.422 28.5805C158.422 29.2421 158.177 29.8031 157.688 30.2633C157.199 30.7236 156.629 30.9537 155.977 30.9537Z" fill="#E6E6E6"/>
<path d="M144.096 15.1179C145.468 15.1179 146.709 15.42 147.822 16.0241C148.943 16.6186 149.773 17.424 150.31 18.4404C150.425 18.6418 150.482 18.8719 150.482 19.1308C150.482 19.524 150.339 19.8644 150.051 20.152C149.773 20.4301 149.437 20.5691 149.044 20.5691C148.804 20.5691 148.555 20.4924 148.296 20.339C148.047 20.176 147.87 19.989 147.764 19.7781C147.448 19.1836 146.973 18.7377 146.34 18.4404C145.707 18.1432 144.955 17.9946 144.082 17.9946C143.574 17.9946 142.998 18.0617 142.356 18.1959C141.714 18.3302 141.157 18.5459 140.688 18.8432C140.218 19.1404 139.983 19.5431 139.983 20.0513C139.983 20.4253 140.175 20.7226 140.558 20.9431C140.951 21.1541 141.431 21.3171 141.996 21.4321C142.572 21.5472 143.147 21.6335 143.722 21.691C144.298 21.739 144.768 21.7821 145.132 21.8205C145.841 21.8972 146.541 22.017 147.232 22.1801C147.922 22.3335 148.555 22.5636 149.13 22.8704C149.706 23.1773 150.161 23.5944 150.497 24.1218C150.842 24.6492 151.015 25.3204 151.015 26.1354C151.015 27.2957 150.679 28.245 150.008 28.9833C149.337 29.7216 148.478 30.2682 147.433 30.623C146.388 30.9778 145.295 31.1551 144.154 31.1551C142.591 31.1551 141.167 30.8483 139.882 30.2346C138.607 29.6114 137.662 28.7052 137.049 27.5162C136.934 27.2861 136.876 27.0607 136.876 26.8402C136.876 26.4471 137.015 26.1114 137.293 25.8334C137.581 25.5457 137.921 25.4019 138.314 25.4019C138.564 25.4019 138.813 25.4834 139.062 25.6464C139.321 25.7998 139.503 25.9868 139.609 26.2073C139.983 26.9361 140.558 27.4635 141.335 27.7895C142.121 28.1155 143.056 28.2785 144.139 28.2785C144.715 28.2785 145.309 28.2162 145.923 28.0915C146.546 27.9573 147.069 27.732 147.491 27.4155C147.922 27.0991 148.138 26.6676 148.138 26.121C148.138 25.6991 147.951 25.3971 147.577 25.2149C147.213 25.0231 146.772 24.8985 146.254 24.8409C145.746 24.7834 145.271 24.7307 144.83 24.6827C143.986 24.5964 143.113 24.4862 142.212 24.3519C141.311 24.2081 140.472 23.9827 139.695 23.6759C138.928 23.3691 138.305 22.928 137.825 22.3526C137.346 21.7773 137.106 21.0102 137.106 20.0513C137.106 19.1884 137.312 18.4452 137.725 17.822C138.146 17.1987 138.703 16.6905 139.393 16.2973C140.083 15.8946 140.836 15.5974 141.651 15.4056C142.476 15.2138 143.291 15.1179 144.096 15.1179Z" fill="#4ADE80"/>
<path d="M132.562 9.91187C133.022 9.91187 133.391 10.0653 133.669 10.3721C133.947 10.6694 134.082 10.9954 134.072 11.3502V29.8757C134.072 30.2592 133.919 30.5709 133.612 30.8106C133.314 31.0407 133.017 31.1558 132.72 31.1558C132.308 31.1558 131.948 31.0215 131.641 30.7531C131.344 30.4846 131.195 30.1394 131.195 29.7175V11.3502C131.195 10.9858 131.325 10.655 131.584 10.3577C131.852 10.0605 132.178 9.91187 132.562 9.91187Z" fill="#4ADE80"/>
<path d="M120.437 15.0759C121.146 15.0759 121.837 15.2197 122.508 15.5074C123.189 15.7855 123.793 16.1403 124.32 16.5718C124.857 16.9937 125.255 17.4299 125.514 17.8806L125.672 16.4998C125.672 16.1067 125.787 15.7711 126.017 15.493C126.247 15.2054 126.559 15.0615 126.952 15.0615C127.345 15.0615 127.681 15.2054 127.959 15.493C128.247 15.7711 128.391 16.1067 128.391 16.4998V16.5286L128.362 29.8474C128.362 30.2405 128.218 30.5809 127.93 30.8686C127.652 31.1467 127.317 31.2857 126.923 31.2857C126.53 31.2857 126.219 31.1467 125.989 30.8686C125.758 30.5809 125.643 30.2405 125.643 29.8474L125.485 28.6968C124.987 29.5502 124.258 30.1878 123.299 30.6097C122.34 31.022 121.376 31.2282 120.408 31.2282C119.324 31.2282 118.308 31.0172 117.359 30.5953C116.409 30.1638 115.575 29.5741 114.856 28.8262C114.137 28.0783 113.571 27.2201 113.159 26.2516C112.756 25.2832 112.555 24.2619 112.555 23.188C112.555 22.1237 112.751 21.1072 113.144 20.1388C113.547 19.1607 114.103 18.2929 114.813 17.5354C115.532 16.7683 116.366 16.169 117.316 15.7375C118.274 15.2964 119.315 15.0759 120.437 15.0759ZM125.399 23.1592C125.399 22.2195 125.178 21.3566 124.737 20.5703C124.306 19.784 123.716 19.1511 122.968 18.6717C122.22 18.1923 121.367 17.9525 120.408 17.9525C119.468 17.9525 118.62 18.1923 117.862 18.6717C117.105 19.1511 116.505 19.7888 116.064 20.5847C115.623 21.3709 115.403 22.2243 115.403 23.1449C115.403 24.075 115.628 24.938 116.079 25.7338C116.529 26.5201 117.133 27.153 117.891 27.6324C118.658 28.1118 119.502 28.3516 120.422 28.3516C121.343 28.3516 122.177 28.1118 122.925 27.6324C123.682 27.153 124.282 26.5201 124.723 25.7338C125.174 24.938 125.399 24.0798 125.399 23.1592Z" fill="#4ADE80"/>
<path d="M103.105 15.1179C104.476 15.1179 105.718 15.42 106.83 16.0241C107.952 16.6186 108.782 17.424 109.319 18.4404C109.434 18.6418 109.491 18.8719 109.491 19.1308C109.491 19.524 109.347 19.8644 109.06 20.152C108.782 20.4301 108.446 20.5691 108.053 20.5691C107.813 20.5691 107.564 20.4924 107.305 20.339C107.056 20.176 106.878 19.989 106.773 19.7781C106.456 19.1836 105.982 18.7377 105.349 18.4404C104.716 18.1432 103.963 17.9946 103.091 17.9946C102.583 17.9946 102.007 18.0617 101.365 18.1959C100.722 18.3302 100.166 18.5459 99.6963 18.8432C99.2265 19.1404 98.9915 19.5431 98.9915 20.0513C98.9915 20.4253 99.1833 20.7226 99.5669 20.9431C99.96 21.1541 100.439 21.3171 101.005 21.4321C101.58 21.5472 102.156 21.6335 102.731 21.691C103.306 21.739 103.776 21.7821 104.141 21.8205C104.85 21.8972 105.55 22.017 106.241 22.1801C106.931 22.3335 107.564 22.5636 108.139 22.8704C108.715 23.1773 109.17 23.5944 109.506 24.1218C109.851 24.6492 110.023 25.3204 110.023 26.1354C110.023 27.2957 109.688 28.245 109.017 28.9833C108.345 29.7216 107.487 30.2682 106.442 30.623C105.397 30.9778 104.304 31.1551 103.163 31.1551C101.6 31.1551 100.176 30.8483 98.8908 30.2346C97.6155 29.6114 96.671 28.7052 96.0574 27.5162C95.9423 27.2861 95.8848 27.0607 95.8848 26.8402C95.8848 26.4471 96.0238 26.1114 96.3019 25.8334C96.5895 25.5457 96.9299 25.4019 97.3231 25.4019C97.5724 25.4019 97.8217 25.4834 98.071 25.6464C98.3299 25.7998 98.5121 25.9868 98.6176 26.2073C98.9915 26.9361 99.5669 27.4635 100.344 27.7895C101.13 28.1155 102.065 28.2785 103.148 28.2785C103.724 28.2785 104.318 28.2162 104.932 28.0915C105.555 27.9573 106.078 27.732 106.5 27.4155C106.931 27.0991 107.147 26.6676 107.147 26.121C107.147 25.6991 106.96 25.3971 106.586 25.2149C106.221 25.0231 105.78 24.8985 105.263 24.8409C104.754 24.7834 104.28 24.7307 103.839 24.6827C102.995 24.5964 102.122 24.4862 101.221 24.3519C100.32 24.2081 99.4806 23.9827 98.7039 23.6759C97.9368 23.3691 97.3135 22.928 96.8341 22.3526C96.3546 21.7773 96.1149 21.0102 96.1149 20.0513C96.1149 19.1884 96.3211 18.4452 96.7334 17.822C97.1553 17.1987 97.7114 16.6905 98.4018 16.2973C99.0922 15.8946 99.8449 15.5974 100.66 15.4056C101.485 15.2138 102.3 15.1179 103.105 15.1179Z" fill="#4ADE80"/>
<path d="M85.8439 15.1479C86.9466 15.1479 87.9726 15.3589 88.9219 15.7808C89.8808 16.2027 90.7198 16.7876 91.4389 17.5356C92.1581 18.2835 92.719 19.1417 93.1218 20.1101C93.5341 21.0786 93.7402 22.1094 93.7402 23.2025C93.7402 24.2765 93.5341 25.2977 93.1218 26.2661C92.7095 27.225 92.1389 28.0736 91.4102 28.812C90.691 29.5407 89.852 30.116 88.8931 30.5379C87.9438 30.9598 86.9274 31.1708 85.8439 31.1708C84.7699 31.1708 83.7535 30.9646 82.7947 30.5523C81.8454 30.14 81.0064 29.5695 80.2776 28.8407C79.5584 28.112 78.9927 27.2682 78.5804 26.3093C78.1681 25.3408 77.9619 24.3052 77.9619 23.2025C77.9619 22.1094 78.1681 21.0786 78.5804 20.1101C78.9927 19.1417 79.5584 18.2883 80.2776 17.5499C81.0064 16.802 81.8454 16.2171 82.7947 15.7952C83.7439 15.3637 84.7604 15.1479 85.8439 15.1479ZM80.8673 23.2313C80.8673 24.1614 81.0926 25.01 81.5433 25.7771C82.0036 26.5346 82.6125 27.1387 83.37 27.5894C84.1275 28.0401 84.9569 28.2654 85.8583 28.2654C86.7788 28.2654 87.613 28.0353 88.3609 27.575C89.1185 27.1052 89.7178 26.4867 90.1588 25.7196C90.6095 24.9525 90.8348 24.1135 90.8348 23.2025C90.8348 22.2724 90.6143 21.419 90.1732 20.6423C89.7321 19.856 89.1328 19.228 88.3753 18.7581C87.6274 18.2883 86.7836 18.0533 85.8439 18.0533C84.8946 18.0533 84.046 18.2931 83.2981 18.7725C82.5501 19.2424 81.9556 19.8704 81.5146 20.6567C81.0831 21.4334 80.8673 22.2916 80.8673 23.2313Z" fill="#FACC15"/>
<path d="M76.5105 23.1869C76.5105 24.2704 76.3092 25.3252 75.9065 26.3512C75.5133 27.3772 74.9188 28.2833 74.1229 29.0696C73.423 29.7504 72.6175 30.2778 71.7066 30.6517C70.7956 31.0257 69.8511 31.2127 68.8731 31.2127C67.8758 31.2127 66.9889 31.0017 66.2122 30.5798C65.4451 30.1579 64.7499 29.5874 64.1266 28.8682V34.9235C64.1266 35.3167 63.9828 35.6523 63.6951 35.9304C63.4171 36.218 63.0815 36.3618 62.6883 36.3618C62.2952 36.3618 61.9548 36.218 61.6671 35.9304C61.389 35.6523 61.25 35.3167 61.25 34.9235V16.5562C61.25 16.1631 61.389 15.8275 61.6671 15.5494C61.9548 15.2618 62.2952 15.1179 62.6883 15.1179C63.0815 15.1179 63.3739 15.2618 63.5657 15.5494C63.7671 15.8275 63.8965 16.1631 63.954 16.5562L64.1266 17.7213C64.6732 16.935 65.3924 16.3165 66.2841 15.8658C67.1855 15.4152 68.082 15.1898 68.9738 15.1898C70.0573 15.1898 71.0545 15.4056 71.9655 15.8371C72.886 16.2686 73.6866 16.8583 74.3675 17.6062C75.0483 18.3445 75.5756 19.1931 75.9496 20.152C76.3236 21.1109 76.5105 22.1225 76.5105 23.1869ZM69.0025 18.0665C68.3793 18.0665 67.7608 18.2055 67.1471 18.4836C66.5334 18.7521 66.0108 19.126 65.5793 19.6055C65.1478 20.0753 64.8122 20.6363 64.5725 21.2883C64.3424 21.9307 64.2273 22.5876 64.2273 23.2588C64.2273 24.1793 64.4287 25.0279 64.8314 25.8046C65.2341 26.5813 65.7903 27.2046 66.4999 27.6744C67.2094 28.1443 68.0197 28.3792 68.9306 28.3792C69.8415 28.3792 70.6518 28.1347 71.3614 27.6457C72.0709 27.147 72.6271 26.5046 73.0298 25.7183C73.4421 24.9224 73.6483 24.0786 73.6483 23.1869C73.6483 22.2855 73.4469 21.4465 73.0442 20.6698C72.6415 19.8931 72.0901 19.2651 71.3901 18.7856C70.6902 18.3062 69.8943 18.0665 69.0025 18.0665Z" fill="#FACC15"/>
<path d="M51.2101 15.1479C52.3128 15.1479 53.3388 15.3589 54.2881 15.7808C55.247 16.2027 56.086 16.7876 56.8051 17.5356C57.5243 18.2835 58.0853 19.1417 58.488 20.1101C58.9003 21.0786 59.1065 22.1094 59.1065 23.2025C59.1065 24.2765 58.9003 25.2977 58.488 26.2661C58.0757 27.225 57.5051 28.0736 56.7764 28.812C56.0572 29.5407 55.2182 30.116 54.2593 30.5379C53.31 30.9598 52.2936 31.1708 51.2101 31.1708C50.1362 31.1708 49.1197 30.9646 48.1609 30.5523C47.2116 30.14 46.3726 29.5695 45.6438 28.8407C44.9247 28.112 44.3589 27.2682 43.9466 26.3093C43.5343 25.3408 43.3281 24.3052 43.3281 23.2025C43.3281 22.1094 43.5343 21.0786 43.9466 20.1101C44.3589 19.1417 44.9247 18.2883 45.6438 17.5499C46.3726 16.802 47.2116 16.2171 48.1609 15.7952C49.1102 15.3637 50.1266 15.1479 51.2101 15.1479ZM46.2335 23.2313C46.2335 24.1614 46.4589 25.01 46.9095 25.7771C47.3698 26.5346 47.9787 27.1387 48.7362 27.5894C49.4937 28.0401 50.3231 28.2654 51.2245 28.2654C52.145 28.2654 52.9792 28.0353 53.7272 27.575C54.4847 27.1052 55.084 26.4867 55.525 25.7196C55.9757 24.9525 56.2011 24.1135 56.2011 23.2025C56.2011 22.2724 55.9805 21.419 55.5394 20.6423C55.0983 19.856 54.499 19.228 53.7415 18.7581C52.9936 18.2883 52.1498 18.0533 51.2101 18.0533C50.2608 18.0533 49.4122 18.2931 48.6643 18.7725C47.9164 19.2424 47.3219 19.8704 46.8808 20.6567C46.4493 21.4334 46.2335 22.2916 46.2335 23.2313Z" fill="#F87171"/>
<path d="M42.9683 16.959C42.9683 17.7261 42.5991 18.1528 41.8608 18.2391C41.5923 18.2678 41.2519 18.1815 40.8396 17.9802C40.4273 17.7692 40.0102 17.6637 39.5883 17.6637C38.754 17.6637 38.0924 17.8795 37.6034 18.311C37.1144 18.7329 36.7644 19.3034 36.5534 20.0226C36.3425 20.7417 36.237 21.5472 36.237 22.4389V29.8607C36.237 30.2826 36.1075 30.6182 35.8486 30.8675C35.5993 31.1168 35.2493 31.2414 34.7987 31.2414C34.3576 31.2414 34.0076 31.1168 33.7487 30.8675C33.4898 30.6182 33.3604 30.2778 33.3604 29.8463V16.5994C33.3604 16.1679 33.4658 15.8131 33.6768 15.535C33.8973 15.257 34.1946 15.1179 34.5685 15.1179C34.7891 15.1179 35.0432 15.2138 35.3308 15.4056C35.6281 15.5878 35.8343 15.9042 35.9493 16.3549L36.0932 17.3905C36.2178 17.122 36.4575 16.8103 36.8123 16.4556C37.1671 16.1008 37.589 15.7939 38.078 15.535C38.5671 15.2665 39.0753 15.1323 39.6026 15.1323C40.5807 15.1323 41.3862 15.2474 42.019 15.4775C42.6519 15.698 42.9683 16.1919 42.9683 16.959Z" fill="#F87171"/>
<path d="M31.2605 23.1869C31.2605 24.2704 31.0592 25.3252 30.6565 26.3512C30.2633 27.3772 29.6688 28.2833 28.8729 29.0696C28.173 29.7504 27.3675 30.2778 26.4566 30.6517C25.5456 31.0257 24.6011 31.2127 23.6231 31.2127C22.6258 31.2127 21.7389 31.0017 20.9622 30.5798C20.1951 30.1579 19.4999 29.5874 18.8766 28.8682V34.9235C18.8766 35.3167 18.7328 35.6523 18.4451 35.9304C18.1671 36.218 17.8315 36.3618 17.4383 36.3618C17.0452 36.3618 16.7048 36.218 16.4171 35.9304C16.139 35.6523 16 35.3167 16 34.9235V16.5562C16 16.1631 16.139 15.8275 16.4171 15.5494C16.7048 15.2618 17.0452 15.1179 17.4383 15.1179C17.8315 15.1179 18.1239 15.2618 18.3157 15.5494C18.5171 15.8275 18.6465 16.1631 18.704 16.5562L18.8766 17.7213C19.4232 16.935 20.1424 16.3165 21.0341 15.8658C21.9355 15.4152 22.832 15.1898 23.7238 15.1898C24.8073 15.1898 25.8045 15.4056 26.7155 15.8371C27.636 16.2686 28.4366 16.8583 29.1175 17.6062C29.7983 18.3445 30.3256 19.1931 30.6996 20.152C31.0736 21.1109 31.2605 22.1225 31.2605 23.1869ZM23.7525 18.0665C23.1293 18.0665 22.5108 18.2055 21.8971 18.4836C21.2834 18.7521 20.7608 19.126 20.3293 19.6055C19.8978 20.0753 19.5622 20.6363 19.3225 21.2883C19.0924 21.9307 18.9773 22.5876 18.9773 23.2588C18.9773 24.1793 19.1787 25.0279 19.5814 25.8046C19.9841 26.5813 20.5403 27.2046 21.2499 27.6744C21.9594 28.1443 22.7697 28.3792 23.6806 28.3792C24.5915 28.3792 25.4018 28.1347 26.1114 27.6457C26.8209 27.147 27.3771 26.5046 27.7798 25.7183C28.1921 24.9224 28.3983 24.0786 28.3983 23.1869C28.3983 22.2855 28.1969 21.4465 27.7942 20.6698C27.3915 19.8931 26.8401 19.2651 26.1401 18.7856C25.4402 18.3062 24.6443 18.0665 23.7525 18.0665Z" fill="#F87171"/>
</svg>
