<svg width="48" height="48" viewBox="0 0 48 48" fill="none" xmlns="http://www.w3.org/2000/svg">
<path d="M31.3125 14C31.8047 14 32.2207 14.1758 32.5605 14.5273C32.9121 14.8789 33.0879 15.2949 33.0879 15.7754C33.0879 16.2324 32.9238 16.6367 32.5957 16.9883L26.4785 23.5801L32.6836 30.2949C33.0117 30.6465 33.1758 31.0508 33.1758 31.5078C33.1758 31.9883 33 32.4043 32.6484 32.7559C32.3086 33.0957 31.8984 33.2656 31.418 33.2656C30.8789 33.2656 30.4395 33.0723 30.0996 32.6855L24.0879 26.1641L18.0586 32.668C17.7188 33.0547 17.2852 33.248 16.7578 33.248C16.2773 33.248 15.8613 33.0781 15.5098 32.7383C15.1699 32.3867 15 31.9707 15 31.4902C15 31.0332 15.1641 30.6289 15.4922 30.2773L21.6973 23.5801L15.5801 16.9531C15.252 16.6016 15.0879 16.2031 15.0879 15.7578C15.0879 15.2773 15.2578 14.8672 15.5977 14.5273C15.9492 14.1758 16.3652 14 16.8457 14C17.373 14 17.8066 14.1934 18.1465 14.5801L24.0879 20.9961L30.0117 14.5977C30.1523 14.4336 30.3457 14.293 30.5918 14.1758C30.8496 14.0586 31.0898 14 31.3125 14Z" fill="#C2AEA2"/>
<circle cx="24" cy="24" r="23" stroke="#C2AEA2" stroke-width="2"/>
</svg>
