<svg width="24" height="24" viewBox="0 0 24 24" fill="none" xmlns="http://www.w3.org/2000/svg">
<rect x="7" y="15" width="2" height="2" fill="#80949F"/>
<rect x="9" y="13" width="2" height="2" fill="#80949F"/>
<rect x="11" y="11" width="2" height="2" fill="#80949F"/>
<rect x="12" y="10" width="2" height="2" fill="#80949F"/>
<rect x="13" y="9" width="2" height="2" fill="#80949F"/>
<rect x="10" y="12" width="2" height="2" fill="#80949F"/>
<rect x="8" y="14" width="2" height="2" fill="#80949F"/>
<rect x="6" y="16" width="2" height="2" fill="#80949F"/>
<rect x="15" y="7" width="2" height="2" fill="#80949F"/>
<rect x="15" y="9" width="2" height="2" fill="#80949F"/>
<rect x="15" y="11" width="2" height="2" fill="#80949F"/>
<rect x="15" y="13" width="2" height="2" fill="#80949F"/>
<rect x="13" y="7" width="2" height="2" fill="#80949F"/>
<rect x="11" y="7" width="2" height="2" fill="#80949F"/>
<rect x="9" y="7" width="2" height="2" fill="#80949F"/>
</svg>
