<svg width="24" height="24" viewBox="0 0 24 24" fill="none" xmlns="http://www.w3.org/2000/svg">
<g clip-path="url(#clip0_501_1035)">
<rect y="2" width="2" height="2" fill="#21272B"/>
<rect x="2" width="2" height="2" fill="#21272B"/>
<rect x="2" y="22" width="2" height="2" fill="#21272B"/>
<rect x="4" width="2" height="2" fill="#21272B"/>
<rect x="4" y="22" width="2" height="2" fill="#21272B"/>
<rect x="6" width="2" height="2" fill="#21272B"/>
<rect x="6" y="22" width="2" height="2" fill="#21272B"/>
<rect x="8" width="2" height="2" fill="#21272B"/>
<rect x="8" y="22" width="2" height="2" fill="#21272B"/>
<rect x="10" width="2" height="2" fill="#21272B"/>
<rect x="10" y="22" width="2" height="2" fill="#21272B"/>
<rect x="12" width="2" height="2" fill="#21272B"/>
<rect x="12" y="22" width="2" height="2" fill="#21272B"/>
<rect x="14" width="2" height="2" fill="#21272B"/>
<rect x="14" y="22" width="2" height="2" fill="#21272B"/>
<rect x="18" width="2" height="2" fill="#21272B"/>
<rect x="18" y="22" width="2" height="2" fill="#21272B"/>
<rect x="16" width="2" height="2" fill="#21272B"/>
<rect x="16" y="22" width="2" height="2" fill="#21272B"/>
<rect x="20" width="2" height="2" fill="#21272B"/>
<rect x="20" y="22" width="2" height="2" fill="#21272B"/>
<rect x="22" y="2" width="2" height="2" fill="#21272B"/>
<rect x="22" y="10" width="2" height="2" fill="#21272B"/>
<rect y="10" width="2" height="2" fill="#21272B"/>
<rect x="22" y="6" width="2" height="2" fill="#21272B"/>
<rect y="6" width="2" height="2" fill="#21272B"/>
<rect x="22" y="14" width="2" height="2" fill="#21272B"/>
<rect y="14" width="2" height="2" fill="#21272B"/>
<rect x="22" y="18" width="2" height="2" fill="#21272B"/>
<rect y="18" width="2" height="2" fill="#21272B"/>
<rect x="22" y="4" width="2" height="2" fill="#21272B"/>
<rect y="4" width="2" height="2" fill="#21272B"/>
<rect x="22" y="12" width="2" height="2" fill="#21272B"/>
<rect y="12" width="2" height="2" fill="#21272B"/>
<rect x="22" y="8" width="2" height="2" fill="#21272B"/>
<rect y="8" width="2" height="2" fill="#21272B"/>
<rect x="22" y="16" width="2" height="2" fill="#21272B"/>
<rect y="16" width="2" height="2" fill="#21272B"/>
<rect x="22" y="20" width="2" height="2" fill="#21272B"/>
<rect y="20" width="2" height="2" fill="#21272B"/>
</g>
<defs>
<clipPath id="clip0_501_1035">
<rect width="24" height="24" fill="white"/>
</clipPath>
</defs>
</svg>
