<svg width="24" height="24" viewBox="0 0 24 24" fill="none" xmlns="http://www.w3.org/2000/svg">
<rect x="13" y="10" width="2" height="2" fill="#374249"/>
<rect x="14" y="9" width="2" height="2" fill="#374249"/>
<rect x="15" y="8" width="2" height="2" fill="#374249"/>
<rect x="16" y="7" width="2" height="2" fill="#374249"/>
<rect x="17" y="6" width="2" height="2" fill="#374249"/>
<rect x="18" y="5" width="2" height="2" fill="#374249"/>
<rect x="19" y="4" width="2" height="2" fill="#374249"/>
<rect x="20" y="3" width="2" height="2" fill="#374249"/>
<rect x="11" y="10" width="2" height="2" fill="#374249"/>
<rect x="12" y="11" width="2" height="2" fill="#374249"/>
<rect x="10" y="11" width="2" height="2" fill="#374249"/>
<rect x="12" y="9" width="2" height="2" fill="#374249"/>
<rect x="13" y="8" width="2" height="2" fill="#374249"/>
<rect x="14" y="7" width="2" height="2" fill="#374249"/>
<rect x="15" y="6" width="2" height="2" fill="#374249"/>
<rect x="16" y="5" width="2" height="2" fill="#374249"/>
<rect x="17" y="4" width="2" height="2" fill="#374249"/>
<rect x="18" y="3" width="2" height="2" fill="#374249"/>
<rect x="19" y="2" width="2" height="2" fill="#374249"/>
<rect x="11" y="12" width="2" height="2" fill="#374249"/>
<rect x="9" y="12" width="2" height="2" fill="#374249"/>
<rect x="8" y="14" width="2" height="2" fill="#374249"/>
<rect x="2" y="20" width="2" height="2" fill="#374249"/>
<rect x="2" y="18" width="2" height="2" fill="#374249"/>
<rect x="2" y="16" width="2" height="2" fill="#374249"/>
<rect x="2" y="14" width="2" height="2" fill="#374249"/>
<rect x="2" y="12" width="2" height="2" fill="#374249"/>
<rect x="2" y="10" width="2" height="2" fill="#374249"/>
<rect x="2" y="8" width="2" height="2" fill="#374249"/>
<rect x="2" y="6" width="2" height="2" fill="#374249"/>
<rect x="3" y="5" width="2" height="2" fill="#374249"/>
<rect x="5" y="5" width="2" height="2" fill="#374249"/>
<rect x="7" y="5" width="2" height="2" fill="#374249"/>
<rect x="9" y="5" width="2" height="2" fill="#374249"/>
<rect x="11" y="5" width="2" height="2" fill="#374249"/>
<rect x="4" y="20" width="2" height="2" fill="#374249"/>
<rect x="6" y="20" width="2" height="2" fill="#374249"/>
<rect x="8" y="20" width="2" height="2" fill="#374249"/>
<rect x="10" y="20" width="2" height="2" fill="#374249"/>
<rect x="12" y="20" width="2" height="2" fill="#374249"/>
<rect x="14" y="20" width="2" height="2" fill="#374249"/>
<rect x="17" y="11" width="2" height="2" fill="#374249"/>
<rect x="17" y="13" width="2" height="2" fill="#374249"/>
<rect x="17" y="15" width="2" height="2" fill="#374249"/>
<rect x="17" y="17" width="2" height="2" fill="#374249"/>
<rect x="17" y="19" width="2" height="2" fill="#374249"/>
<rect x="16" y="20" width="2" height="2" fill="#374249"/>
<rect x="10" y="13" width="2" height="2" fill="#374249"/>
</svg>
