<svg width="12" height="12" viewBox="0 0 12 12" fill="none" xmlns="http://www.w3.org/2000/svg">
<rect x="2" y="4" width="2" height="2" fill="black"/>
<rect x="3" y="2" width="2" height="2" fill="black"/>
<rect x="2" y="6" width="2" height="2" fill="black"/>
<rect x="3" y="8" width="2" height="2" fill="black"/>
<rect x="3" y="6" width="2" height="2" fill="black"/>
<rect x="4" y="8" width="2" height="2" fill="black"/>
<rect x="6" width="2" height="2" fill="black"/>
<rect x="5" width="2" height="2" fill="black"/>
<rect y="7" width="2" height="2" fill="black"/>
<rect y="3" width="2" height="2" fill="black"/>
<rect x="4" y="10" width="2" height="2" fill="black"/>
<rect x="5" y="10" width="2" height="2" fill="black"/>
<rect x="4" width="2" height="2" fill="black"/>
<rect x="1" y="2" width="2" height="2" fill="black"/>
<rect x="6" y="10" width="2" height="2" fill="black"/>
<rect x="1" y="8" width="2" height="2" fill="black"/>
<rect x="2" y="9" width="2" height="2" fill="black"/>
<rect y="4" width="2" height="2" fill="black"/>
<rect y="6" width="2" height="2" fill="black"/>
<rect x="2" y="1" width="2" height="2" fill="black"/>
<rect x="3" y="4" width="2" height="2" fill="black"/>
<rect x="10" y="4" width="2" height="2" fill="black"/>
<rect x="4" y="2" width="2" height="2" fill="black"/>
</svg>
