<svg width="24" height="24" viewBox="0 0 24 24" fill="currentColor" xmlns="http://www.w3.org/2000/svg">
<rect x="10" y="15" width="2" height="2" />
<rect x="9" y="16" width="2" height="2" />
<rect x="11" y="11" width="2" height="2" />
<rect x="10" y="9" width="2" height="2" />
<rect x="11" y="8" width="2" height="2" />
<rect x="11" y="9" width="2" height="2" />
<rect x="11" y="12" width="2" height="2" />
<rect x="11" y="14" width="2" height="2" />
<rect x="12" y="13" width="2" height="2" />
<rect x="13" y="6" width="2" height="2" />
<rect x="13" y="12" width="2" height="2" />
<rect x="12" y="7" width="2" height="2" />
<rect x="9" y="10" width="2" height="2" />
<rect x="10" y="11" width="2" height="2" />
<rect x="14" y="11" width="2" height="2" />
<rect x="12" y="11" width="2" height="2" />
<rect x="8" y="11" width="2" height="2" />
</svg>
