<svg width="12" height="12" viewBox="0 0 12 12" fill="none" xmlns="http://www.w3.org/2000/svg">
<rect x="7" y="5" width="2" height="2" fill="white"/>
<rect x="5" y="3" width="2" height="2" fill="white"/>
<rect x="5" y="7" width="2" height="2" fill="white"/>
<rect x="3" y="5" width="2" height="2" fill="white"/>
<rect x="4" y="6" width="2" height="2" fill="white"/>
<rect x="6" y="4" width="2" height="2" fill="white"/>
<rect x="5" width="2" height="2" fill="white"/>
<rect x="1" y="1" width="2" height="2" fill="white"/>
<rect x="9" y="9" width="2" height="2" fill="white"/>
<rect x="5" y="10" width="2" height="2" fill="white"/>
<rect x="10" y="5" width="2" height="2" fill="white"/>
<rect x="9" y="1" width="2" height="2" fill="white"/>
<rect x="1" y="9" width="2" height="2" fill="white"/>
<rect y="5" width="2" height="2" fill="white"/>
<rect x="6" y="6" width="2" height="2" fill="white"/>
<rect x="4" y="4" width="2" height="2" fill="white"/>
</svg>
