<svg width="180" height="240" viewBox="0 0 180 240" fill="none" xmlns="http://www.w3.org/2000/svg">
    <path d="M17.0615 214.707C15.4678 214.707 14.0732 214.145 12.8779 213.02C11.7061 211.895 11.1201 210.523 11.1201 208.906C11.1201 207.289 11.7061 205.93 12.8779 204.828C14.0732 203.703 15.4678 203.141 17.0615 203.141C18.6553 203.141 20.0498 203.703 21.2451 204.828C22.4404 205.93 23.0381 207.289 23.0381 208.906C23.0381 210.523 22.4404 211.895 21.2451 213.02C20.0498 214.145 18.6553 214.707 17.0615 214.707Z"
          fill="#E6E6E6"/>
    <path d="M47.6123 175.895C49.3467 175.895 51.0342 176.246 52.6748 176.949C54.3389 177.629 55.8154 178.496 57.1045 179.551C58.417 180.582 59.3896 181.648 60.0225 182.75L60.4092 179.375C60.4092 178.414 60.6904 177.594 61.2529 176.914C61.8154 176.211 62.5771 175.859 63.5381 175.859C64.499 175.859 65.3193 176.211 65.999 176.914C66.7021 177.594 67.0537 178.414 67.0537 179.375V179.445L66.9834 212C66.9834 212.961 66.6318 213.793 65.9287 214.496C65.249 215.176 64.4287 215.516 63.4678 215.516C62.5068 215.516 61.7451 215.176 61.1826 214.496C60.6201 213.793 60.3389 212.961 60.3389 212L59.9521 209.188C58.7334 211.273 56.9521 212.832 54.6084 213.863C52.2646 214.871 49.9092 215.375 47.542 215.375C44.8936 215.375 42.4092 214.859 40.0889 213.828C37.7686 212.773 35.7295 211.332 33.9717 209.504C32.2139 207.676 30.8311 205.578 29.8232 203.211C28.8389 200.844 28.3467 198.348 28.3467 195.723C28.3467 193.121 28.8271 190.637 29.7881 188.27C30.7725 185.879 32.1318 183.758 33.8662 181.906C35.624 180.031 37.6631 178.566 39.9834 177.512C42.3271 176.434 44.8701 175.895 47.6123 175.895ZM59.7412 195.652C59.7412 193.355 59.2021 191.246 58.124 189.324C57.0693 187.402 55.6279 185.855 53.7998 184.684C51.9717 183.512 49.8857 182.926 47.542 182.926C45.2451 182.926 43.1709 183.512 41.3193 184.684C39.4678 185.855 38.0029 187.414 36.9248 189.359C35.8467 191.281 35.3076 193.367 35.3076 195.617C35.3076 197.891 35.8584 200 36.96 201.945C38.0615 203.867 39.5381 205.414 41.3896 206.586C43.2646 207.758 45.3271 208.344 47.5771 208.344C49.8271 208.344 51.8662 207.758 53.6943 206.586C55.5459 205.414 57.0107 203.867 58.0889 201.945C59.1904 200 59.7412 197.902 59.7412 195.652Z"
          fill="#E6E6E6"/>
    <path d="M111.386 195.723C111.386 198.371 110.894 200.949 109.909 203.457C108.948 205.965 107.495 208.18 105.55 210.102C103.839 211.766 101.87 213.055 99.6436 213.969C97.417 214.883 95.1084 215.34 92.7178 215.34C90.2803 215.34 88.1123 214.824 86.2139 213.793C84.3389 212.762 82.6396 211.367 81.1162 209.609V224.41C81.1162 225.371 80.7646 226.191 80.0615 226.871C79.3818 227.574 78.5615 227.926 77.6006 227.926C76.6396 227.926 75.8076 227.574 75.1045 226.871C74.4248 226.191 74.085 225.371 74.085 224.41V179.516C74.085 178.555 74.4248 177.734 75.1045 177.055C75.8076 176.352 76.6396 176 77.6006 176C78.5615 176 79.2764 176.352 79.7451 177.055C80.2373 177.734 80.5537 178.555 80.6943 179.516L81.1162 182.363C82.4521 180.441 84.21 178.93 86.3896 177.828C88.5928 176.727 90.7842 176.176 92.9639 176.176C95.6123 176.176 98.0498 176.703 100.276 177.758C102.526 178.812 104.483 180.254 106.147 182.082C107.812 183.887 109.101 185.961 110.015 188.305C110.929 190.648 111.386 193.121 111.386 195.723ZM93.0342 183.207C91.5107 183.207 89.999 183.547 88.499 184.227C86.999 184.883 85.7217 185.797 84.667 186.969C83.6123 188.117 82.792 189.488 82.2061 191.082C81.6436 192.652 81.3623 194.258 81.3623 195.898C81.3623 198.148 81.8545 200.223 82.8389 202.121C83.8232 204.02 85.1826 205.543 86.917 206.691C88.6514 207.84 90.6318 208.414 92.8584 208.414C95.085 208.414 97.0654 207.816 98.7998 206.621C100.534 205.402 101.894 203.832 102.878 201.91C103.886 199.965 104.39 197.902 104.39 195.723C104.39 193.52 103.897 191.469 102.913 189.57C101.929 187.672 100.581 186.137 98.8701 184.965C97.1592 183.793 95.2139 183.207 93.0342 183.207Z"
          fill="#E6E6E6"/>
    <path d="M153.995 195.723C153.995 198.371 153.503 200.949 152.519 203.457C151.558 205.965 150.104 208.18 148.159 210.102C146.448 211.766 144.479 213.055 142.253 213.969C140.026 214.883 137.718 215.34 135.327 215.34C132.89 215.34 130.722 214.824 128.823 213.793C126.948 212.762 125.249 211.367 123.726 209.609V224.41C123.726 225.371 123.374 226.191 122.671 226.871C121.991 227.574 121.171 227.926 120.21 227.926C119.249 227.926 118.417 227.574 117.714 226.871C117.034 226.191 116.694 225.371 116.694 224.41V179.516C116.694 178.555 117.034 177.734 117.714 177.055C118.417 176.352 119.249 176 120.21 176C121.171 176 121.886 176.352 122.354 177.055C122.847 177.734 123.163 178.555 123.304 179.516L123.726 182.363C125.062 180.441 126.819 178.93 128.999 177.828C131.202 176.727 133.394 176.176 135.573 176.176C138.222 176.176 140.659 176.703 142.886 177.758C145.136 178.812 147.093 180.254 148.757 182.082C150.421 183.887 151.71 185.961 152.624 188.305C153.538 190.648 153.995 193.121 153.995 195.723ZM135.644 183.207C134.12 183.207 132.608 183.547 131.108 184.227C129.608 184.883 128.331 185.797 127.276 186.969C126.222 188.117 125.401 189.488 124.815 191.082C124.253 192.652 123.972 194.258 123.972 195.898C123.972 198.148 124.464 200.223 125.448 202.121C126.433 204.02 127.792 205.543 129.526 206.691C131.261 207.84 133.241 208.414 135.468 208.414C137.694 208.414 139.675 207.816 141.409 206.621C143.144 205.402 144.503 203.832 145.487 201.91C146.495 199.965 146.999 197.902 146.999 195.723C146.999 193.52 146.507 191.469 145.522 189.57C144.538 187.672 143.19 186.137 141.479 184.965C139.769 183.793 137.823 183.207 135.644 183.207Z"
          fill="#E6E6E6"/>
    <path d="M47.6475 128C50.999 128 54.0342 128.738 56.7529 130.215C59.4951 131.668 61.5225 133.637 62.835 136.121C63.1162 136.613 63.2568 137.176 63.2568 137.809C63.2568 138.77 62.9053 139.602 62.2021 140.305C61.5225 140.984 60.7021 141.324 59.7412 141.324C59.1553 141.324 58.5459 141.137 57.9131 140.762C57.3037 140.363 56.8701 139.906 56.6123 139.391C55.8389 137.938 54.6787 136.848 53.1318 136.121C51.585 135.395 49.7451 135.031 47.6123 135.031C46.3701 135.031 44.9639 135.195 43.3936 135.523C41.8232 135.852 40.4639 136.379 39.3154 137.105C38.167 137.832 37.5928 138.816 37.5928 140.059C37.5928 140.973 38.0615 141.699 38.999 142.238C39.96 142.754 41.1318 143.152 42.5146 143.434C43.9209 143.715 45.3271 143.926 46.7334 144.066C48.1396 144.184 49.2881 144.289 50.1787 144.383C51.9131 144.57 53.624 144.863 55.3115 145.262C56.999 145.637 58.5459 146.199 59.9521 146.949C61.3584 147.699 62.4717 148.719 63.292 150.008C64.1357 151.297 64.5576 152.938 64.5576 154.93C64.5576 157.766 63.7373 160.086 62.0967 161.891C60.4561 163.695 58.3584 165.031 55.8037 165.898C53.249 166.766 50.5771 167.199 47.7881 167.199C43.9678 167.199 40.4873 166.449 37.3467 164.949C34.2295 163.426 31.9209 161.211 30.4209 158.305C30.1396 157.742 29.999 157.191 29.999 156.652C29.999 155.691 30.3389 154.871 31.0186 154.191C31.7217 153.488 32.5537 153.137 33.5146 153.137C34.124 153.137 34.7334 153.336 35.3428 153.734C35.9756 154.109 36.4209 154.566 36.6787 155.105C37.5928 156.887 38.999 158.176 40.8975 158.973C42.8193 159.77 45.1045 160.168 47.7529 160.168C49.1592 160.168 50.6123 160.016 52.1123 159.711C53.6357 159.383 54.9131 158.832 55.9443 158.059C56.999 157.285 57.5264 156.23 57.5264 154.895C57.5264 153.863 57.0693 153.125 56.1553 152.68C55.2646 152.211 54.1865 151.906 52.9209 151.766C51.6787 151.625 50.5186 151.496 49.4404 151.379C47.3779 151.168 45.2451 150.898 43.042 150.57C40.8389 150.219 38.7881 149.668 36.8896 148.918C35.0146 148.168 33.4912 147.09 32.3193 145.684C31.1475 144.277 30.5615 142.402 30.5615 140.059C30.5615 137.949 31.0654 136.133 32.0732 134.609C33.1045 133.086 34.4639 131.844 36.1514 130.883C37.8389 129.898 39.6787 129.172 41.6709 128.703C43.6865 128.234 45.6787 128 47.6475 128Z"
          fill="#4ADE80"/>
    <path d="M90.0107 127.895C91.7451 127.895 93.4326 128.246 95.0732 128.949C96.7373 129.629 98.2139 130.496 99.5029 131.551C100.815 132.582 101.788 133.648 102.421 134.75L102.808 131.375C102.808 130.414 103.089 129.594 103.651 128.914C104.214 128.211 104.976 127.859 105.937 127.859C106.897 127.859 107.718 128.211 108.397 128.914C109.101 129.594 109.452 130.414 109.452 131.375V131.445L109.382 164C109.382 164.961 109.03 165.793 108.327 166.496C107.647 167.176 106.827 167.516 105.866 167.516C104.905 167.516 104.144 167.176 103.581 166.496C103.019 165.793 102.737 164.961 102.737 164L102.351 161.188C101.132 163.273 99.3506 164.832 97.0068 165.863C94.6631 166.871 92.3076 167.375 89.9404 167.375C87.292 167.375 84.8076 166.859 82.4873 165.828C80.167 164.773 78.1279 163.332 76.3701 161.504C74.6123 159.676 73.2295 157.578 72.2217 155.211C71.2373 152.844 70.7451 150.348 70.7451 147.723C70.7451 145.121 71.2256 142.637 72.1865 140.27C73.1709 137.879 74.5303 135.758 76.2646 133.906C78.0225 132.031 80.0615 130.566 82.3818 129.512C84.7256 128.434 87.2686 127.895 90.0107 127.895ZM102.14 147.652C102.14 145.355 101.601 143.246 100.522 141.324C99.4678 139.402 98.0264 137.855 96.1982 136.684C94.3701 135.512 92.2842 134.926 89.9404 134.926C87.6436 134.926 85.5693 135.512 83.7178 136.684C81.8662 137.855 80.4014 139.414 79.3232 141.359C78.2451 143.281 77.7061 145.367 77.7061 147.617C77.7061 149.891 78.2568 152 79.3584 153.945C80.46 155.867 81.9365 157.414 83.7881 158.586C85.6631 159.758 87.7256 160.344 89.9756 160.344C92.2256 160.344 94.2646 159.758 96.0928 158.586C97.9443 157.414 99.4092 155.867 100.487 153.945C101.589 152 102.14 149.902 102.14 147.652Z"
          fill="#4ADE80"/>
    <path d="M119.647 115.273C120.772 115.273 121.675 115.648 122.354 116.398C123.034 117.125 123.362 117.922 123.339 118.789V164.07C123.339 165.008 122.964 165.77 122.214 166.355C121.487 166.918 120.761 167.199 120.034 167.199C119.026 167.199 118.147 166.871 117.397 166.215C116.671 165.559 116.308 164.715 116.308 163.684V118.789C116.308 117.898 116.624 117.09 117.257 116.363C117.913 115.637 118.71 115.273 119.647 115.273Z"
          fill="#4ADE80"/>
    <path d="M147.843 128C151.194 128 154.229 128.738 156.948 130.215C159.69 131.668 161.718 133.637 163.03 136.121C163.312 136.613 163.452 137.176 163.452 137.809C163.452 138.77 163.101 139.602 162.397 140.305C161.718 140.984 160.897 141.324 159.937 141.324C159.351 141.324 158.741 141.137 158.108 140.762C157.499 140.363 157.065 139.906 156.808 139.391C156.034 137.938 154.874 136.848 153.327 136.121C151.78 135.395 149.94 135.031 147.808 135.031C146.565 135.031 145.159 135.195 143.589 135.523C142.019 135.852 140.659 136.379 139.511 137.105C138.362 137.832 137.788 138.816 137.788 140.059C137.788 140.973 138.257 141.699 139.194 142.238C140.155 142.754 141.327 143.152 142.71 143.434C144.116 143.715 145.522 143.926 146.929 144.066C148.335 144.184 149.483 144.289 150.374 144.383C152.108 144.57 153.819 144.863 155.507 145.262C157.194 145.637 158.741 146.199 160.147 146.949C161.554 147.699 162.667 148.719 163.487 150.008C164.331 151.297 164.753 152.938 164.753 154.93C164.753 157.766 163.933 160.086 162.292 161.891C160.651 163.695 158.554 165.031 155.999 165.898C153.444 166.766 150.772 167.199 147.983 167.199C144.163 167.199 140.683 166.449 137.542 164.949C134.425 163.426 132.116 161.211 130.616 158.305C130.335 157.742 130.194 157.191 130.194 156.652C130.194 155.691 130.534 154.871 131.214 154.191C131.917 153.488 132.749 153.137 133.71 153.137C134.319 153.137 134.929 153.336 135.538 153.734C136.171 154.109 136.616 154.566 136.874 155.105C137.788 156.887 139.194 158.176 141.093 158.973C143.015 159.77 145.3 160.168 147.948 160.168C149.354 160.168 150.808 160.016 152.308 159.711C153.831 159.383 155.108 158.832 156.14 158.059C157.194 157.285 157.722 156.23 157.722 154.895C157.722 153.863 157.265 153.125 156.351 152.68C155.46 152.211 154.382 151.906 153.116 151.766C151.874 151.625 150.714 151.496 149.636 151.379C147.573 151.168 145.44 150.898 143.237 150.57C141.034 150.219 138.983 149.668 137.085 148.918C135.21 148.168 133.687 147.09 132.515 145.684C131.343 144.277 130.757 142.402 130.757 140.059C130.757 137.949 131.261 136.133 132.269 134.609C133.3 133.086 134.659 131.844 136.347 130.883C138.034 129.898 139.874 129.172 141.866 128.703C143.882 128.234 145.874 128 147.843 128Z"
          fill="#4ADE80"/>
    <path d="M67.2998 92.7227C67.2998 95.3711 66.8076 97.9492 65.8232 100.457C64.8623 102.965 63.4092 105.18 61.4639 107.102C59.7529 108.766 57.7842 110.055 55.5576 110.969C53.3311 111.883 51.0225 112.34 48.6318 112.34C46.1943 112.34 44.0264 111.824 42.1279 110.793C40.2529 109.762 38.5537 108.367 37.0303 106.609V121.41C37.0303 122.371 36.6787 123.191 35.9756 123.871C35.2959 124.574 34.4756 124.926 33.5146 124.926C32.5537 124.926 31.7217 124.574 31.0186 123.871C30.3389 123.191 29.999 122.371 29.999 121.41V76.5156C29.999 75.5547 30.3389 74.7344 31.0186 74.0547C31.7217 73.3516 32.5537 73 33.5146 73C34.4756 73 35.1904 73.3516 35.6592 74.0547C36.1514 74.7344 36.4678 75.5547 36.6084 76.5156L37.0303 79.3633C38.3662 77.4414 40.124 75.9297 42.3037 74.8281C44.5068 73.7266 46.6982 73.1758 48.8779 73.1758C51.5264 73.1758 53.9639 73.7031 56.1904 74.7578C58.4404 75.8125 60.3975 77.2539 62.0615 79.082C63.7256 80.8867 65.0146 82.9609 65.9287 85.3047C66.8428 87.6484 67.2998 90.1211 67.2998 92.7227ZM48.9482 80.207C47.4248 80.207 45.9131 80.5469 44.4131 81.2266C42.9131 81.8828 41.6357 82.7969 40.5811 83.9688C39.5264 85.1172 38.7061 86.4883 38.1201 88.082C37.5576 89.6523 37.2764 91.2578 37.2764 92.8984C37.2764 95.1484 37.7686 97.2227 38.7529 99.1211C39.7373 101.02 41.0967 102.543 42.8311 103.691C44.5654 104.84 46.5459 105.414 48.7725 105.414C50.999 105.414 52.9795 104.816 54.7139 103.621C56.4482 102.402 57.8076 100.832 58.792 98.9102C59.7998 96.9648 60.3037 94.9023 60.3037 92.7227C60.3037 90.5195 59.8115 88.4688 58.8271 86.5703C57.8428 84.6719 56.4951 83.1367 54.7842 81.9648C53.0732 80.793 51.1279 80.207 48.9482 80.207Z"
          fill="#FACC15"/>
    <path d="M90.1162 73.0703C92.8115 73.0703 95.3193 73.5859 97.6396 74.6172C99.9834 75.6484 102.034 77.0781 103.792 78.9062C105.55 80.7344 106.921 82.832 107.905 85.1992C108.913 87.5664 109.417 90.0859 109.417 92.7578C109.417 95.3828 108.913 97.8789 107.905 100.246C106.897 102.59 105.503 104.664 103.722 106.469C101.964 108.25 99.9131 109.656 97.5693 110.688C95.249 111.719 92.7646 112.234 90.1162 112.234C87.4912 112.234 85.0068 111.73 82.6631 110.723C80.3428 109.715 78.292 108.32 76.5107 106.539C74.7529 104.758 73.3701 102.695 72.3623 100.352C71.3545 97.9844 70.8506 95.4531 70.8506 92.7578C70.8506 90.0859 71.3545 87.5664 72.3623 85.1992C73.3701 82.832 74.7529 80.7461 76.5107 78.9414C78.292 77.1133 80.3428 75.6836 82.6631 74.6523C84.9834 73.5977 87.4678 73.0703 90.1162 73.0703ZM77.9521 92.8281C77.9521 95.1016 78.5029 97.1758 79.6045 99.0508C80.7295 100.902 82.2178 102.379 84.0693 103.48C85.9209 104.582 87.9482 105.133 90.1514 105.133C92.4014 105.133 94.4404 104.57 96.2686 103.445C98.1201 102.297 99.585 100.785 100.663 98.9102C101.765 97.0352 102.315 94.9844 102.315 92.7578C102.315 90.4844 101.776 88.3984 100.698 86.5C99.6201 84.5781 98.1553 83.043 96.3037 81.8945C94.4756 80.7461 92.4131 80.1719 90.1162 80.1719C87.7959 80.1719 85.7217 80.7578 83.8936 81.9297C82.0654 83.0781 80.6123 84.6133 79.5342 86.5352C78.4795 88.4336 77.9521 90.5312 77.9521 92.8281Z"
          fill="#FACC15"/>
    <path d="M67.2998 34.7227C67.2998 37.3711 66.8076 39.9492 65.8232 42.457C64.8623 44.9648 63.4092 47.1797 61.4639 49.1016C59.7529 50.7656 57.7842 52.0547 55.5576 52.9688C53.3311 53.8828 51.0225 54.3398 48.6318 54.3398C46.1943 54.3398 44.0264 53.8242 42.1279 52.793C40.2529 51.7617 38.5537 50.3672 37.0303 48.6094V63.4102C37.0303 64.3711 36.6787 65.1914 35.9756 65.8711C35.2959 66.5742 34.4756 66.9258 33.5146 66.9258C32.5537 66.9258 31.7217 66.5742 31.0186 65.8711C30.3389 65.1914 29.999 64.3711 29.999 63.4102V18.5156C29.999 17.5547 30.3389 16.7344 31.0186 16.0547C31.7217 15.3516 32.5537 15 33.5146 15C34.4756 15 35.1904 15.3516 35.6592 16.0547C36.1514 16.7344 36.4678 17.5547 36.6084 18.5156L37.0303 21.3633C38.3662 19.4414 40.124 17.9297 42.3037 16.8281C44.5068 15.7266 46.6982 15.1758 48.8779 15.1758C51.5264 15.1758 53.9639 15.7031 56.1904 16.7578C58.4404 17.8125 60.3975 19.2539 62.0615 21.082C63.7256 22.8867 65.0146 24.9609 65.9287 27.3047C66.8428 29.6484 67.2998 32.1211 67.2998 34.7227ZM48.9482 22.207C47.4248 22.207 45.9131 22.5469 44.4131 23.2266C42.9131 23.8828 41.6357 24.7969 40.5811 25.9688C39.5264 27.1172 38.7061 28.4883 38.1201 30.082C37.5576 31.6523 37.2764 33.2578 37.2764 34.8984C37.2764 37.1484 37.7686 39.2227 38.7529 41.1211C39.7373 43.0195 41.0967 44.543 42.8311 45.6914C44.5654 46.8398 46.5459 47.4141 48.7725 47.4141C50.999 47.4141 52.9795 46.8164 54.7139 45.6211C56.4482 44.4023 57.8076 42.832 58.792 40.9102C59.7998 38.9648 60.3037 36.9023 60.3037 34.7227C60.3037 32.5195 59.8115 30.4688 58.8271 28.5703C57.8428 26.6719 56.4951 25.1367 54.7842 23.9648C53.0732 22.793 51.1279 22.207 48.9482 22.207Z"
          fill="#F87171"/>
    <path d="M95.917 19.5C95.917 21.375 95.0146 22.418 93.21 22.6289C92.5537 22.6992 91.7217 22.4883 90.7139 21.9961C89.7061 21.4805 88.6865 21.2227 87.6553 21.2227C85.6162 21.2227 83.999 21.75 82.8037 22.8047C81.6084 23.8359 80.7529 25.2305 80.2373 26.9883C79.7217 28.7461 79.4639 30.7148 79.4639 32.8945V51.0352C79.4639 52.0664 79.1475 52.8867 78.5146 53.4961C77.9053 54.1055 77.0498 54.4102 75.9482 54.4102C74.8701 54.4102 74.0146 54.1055 73.3818 53.4961C72.749 52.8867 72.4326 52.0547 72.4326 51V18.6211C72.4326 17.5664 72.6904 16.6992 73.2061 16.0195C73.7451 15.3398 74.4717 15 75.3857 15C75.9248 15 76.5459 15.2344 77.249 15.7031C77.9756 16.1484 78.4795 16.9219 78.7607 18.0234L79.1123 20.5547C79.417 19.8984 80.0029 19.1367 80.8701 18.2695C81.7373 17.4023 82.7686 16.6523 83.9639 16.0195C85.1592 15.3633 86.4014 15.0352 87.6904 15.0352C90.0811 15.0352 92.0498 15.3164 93.5967 15.8789C95.1436 16.418 95.917 17.625 95.917 19.5Z"
          fill="#F87171"/>
    <path d="M116.062 15.0703C118.757 15.0703 121.265 15.5859 123.585 16.6172C125.929 17.6484 127.979 19.0781 129.737 20.9062C131.495 22.7344 132.866 24.832 133.851 27.1992C134.858 29.5664 135.362 32.0859 135.362 34.7578C135.362 37.3828 134.858 39.8789 133.851 42.2461C132.843 44.5898 131.448 46.6641 129.667 48.4688C127.909 50.25 125.858 51.6562 123.515 52.6875C121.194 53.7188 118.71 54.2344 116.062 54.2344C113.437 54.2344 110.952 53.7305 108.608 52.7227C106.288 51.7148 104.237 50.3203 102.456 48.5391C100.698 46.7578 99.3154 44.6953 98.3076 42.3516C97.2998 39.9844 96.7959 37.4531 96.7959 34.7578C96.7959 32.0859 97.2998 29.5664 98.3076 27.1992C99.3154 24.832 100.698 22.7461 102.456 20.9414C104.237 19.1133 106.288 17.6836 108.608 16.6523C110.929 15.5977 113.413 15.0703 116.062 15.0703ZM103.897 34.8281C103.897 37.1016 104.448 39.1758 105.55 41.0508C106.675 42.9023 108.163 44.3789 110.015 45.4805C111.866 46.582 113.894 47.1328 116.097 47.1328C118.347 47.1328 120.386 46.5703 122.214 45.4453C124.065 44.2969 125.53 42.7852 126.608 40.9102C127.71 39.0352 128.261 36.9844 128.261 34.7578C128.261 32.4844 127.722 30.3984 126.644 28.5C125.565 26.5781 124.101 25.043 122.249 23.8945C120.421 22.7461 118.358 22.1719 116.062 22.1719C113.741 22.1719 111.667 22.7578 109.839 23.9297C108.011 25.0781 106.558 26.6133 105.479 28.5352C104.425 30.4336 103.897 32.5312 103.897 34.8281Z"
          fill="#F87171"/>
</svg>
