<svg width="490" height="67" viewBox="0 0 490 67" fill="none" xmlns="http://www.w3.org/2000/svg">
<path d="M490 33.9668C490 36.6756 489.497 39.3126 488.49 41.8776C487.507 44.4426 486.021 46.7079 484.031 48.6736C482.281 50.3756 480.268 51.6941 477.99 52.629C475.713 53.5639 473.352 54.0313 470.907 54.0313C468.413 54.0313 466.196 53.5039 464.254 52.4492C462.337 51.3944 460.599 49.9681 459.04 48.1702V63.3085C459.04 64.2913 458.681 65.1303 457.962 65.8255C457.267 66.5447 456.428 66.9043 455.445 66.9043C454.462 66.9043 453.611 66.5447 452.892 65.8255C452.196 65.1303 451.849 64.2913 451.849 63.3085V17.3902C451.849 16.4074 452.196 15.5684 452.892 14.8732C453.611 14.154 454.462 13.7944 455.445 13.7944C456.428 13.7944 457.159 14.154 457.638 14.8732C458.142 15.5684 458.465 16.4074 458.609 17.3902L459.04 20.3028C460.407 18.3371 462.205 16.7909 464.434 15.6642C466.688 14.5376 468.929 13.9742 471.158 13.9742C473.867 13.9742 476.36 14.5136 478.638 15.5923C480.939 16.6711 482.94 18.1453 484.643 20.0152C486.345 21.861 487.663 23.9825 488.598 26.3797C489.533 28.7769 490 31.3059 490 33.9668ZM471.23 21.1658C469.672 21.1658 468.126 21.5134 466.592 22.2086C465.057 22.8798 463.751 23.8147 462.672 25.0133C461.593 26.1879 460.754 27.5903 460.155 29.2204C459.58 30.8265 459.292 32.4686 459.292 34.1466C459.292 36.4479 459.796 38.5694 460.802 40.5112C461.809 42.4529 463.2 44.0111 464.974 45.1857C466.747 46.3603 468.773 46.9476 471.05 46.9476C473.328 46.9476 475.353 46.3363 477.127 45.1138C478.901 43.8672 480.292 42.2611 481.298 40.2954C482.329 38.3057 482.845 36.1962 482.845 33.9668C482.845 31.7135 482.341 29.6159 481.334 27.6742C480.328 25.7325 478.949 24.1623 477.199 22.9637C475.449 21.7651 473.46 21.1658 471.23 21.1658Z" fill="#E6E6E6"/>
<path d="M446.417 33.9668C446.417 36.6756 445.913 39.3126 444.907 41.8776C443.924 44.4426 442.437 46.7079 440.448 48.6736C438.698 50.3756 436.684 51.6941 434.407 52.629C432.129 53.5639 429.768 54.0313 427.323 54.0313C424.83 54.0313 422.613 53.5039 420.671 52.4492C418.753 51.3944 417.015 49.9681 415.457 48.1702V63.3085C415.457 64.2913 415.097 65.1303 414.378 65.8255C413.683 66.5447 412.844 66.9043 411.861 66.9043C410.878 66.9043 410.027 66.5447 409.308 65.8255C408.613 65.1303 408.265 64.2913 408.265 63.3085V17.3902C408.265 16.4074 408.613 15.5684 409.308 14.8732C410.027 14.154 410.878 13.7944 411.861 13.7944C412.844 13.7944 413.575 14.154 414.055 14.8732C414.558 15.5684 414.882 16.4074 415.025 17.3902L415.457 20.3028C416.823 18.3371 418.621 16.7909 420.851 15.6642C423.104 14.5376 425.345 13.9742 427.575 13.9742C430.284 13.9742 432.777 14.5136 435.054 15.5923C437.355 16.6711 439.357 18.1453 441.059 20.0152C442.761 21.861 444.079 23.9825 445.014 26.3797C445.949 28.7769 446.417 31.3059 446.417 33.9668ZM427.647 21.1658C426.089 21.1658 424.542 21.5134 423.008 22.2086C421.474 22.8798 420.167 23.8147 419.089 25.0133C418.01 26.1879 417.171 27.5903 416.572 29.2204C415.996 30.8265 415.709 32.4686 415.709 34.1466C415.709 36.4479 416.212 38.5694 417.219 40.5112C418.226 42.4529 419.616 44.0111 421.39 45.1857C423.164 46.3603 425.19 46.9476 427.467 46.9476C429.744 46.9476 431.77 46.3363 433.544 45.1138C435.318 43.8672 436.708 42.2611 437.715 40.2954C438.746 38.3057 439.261 36.1962 439.261 33.9668C439.261 31.7135 438.758 29.6159 437.751 27.6742C436.744 25.7325 435.366 24.1623 433.616 22.9637C431.866 21.7651 429.876 21.1658 427.647 21.1658Z" fill="#E6E6E6"/>
<path d="M381.19 13.6898C382.964 13.6898 384.69 14.0493 386.368 14.7685C388.07 15.4637 389.58 16.3507 390.898 17.4294C392.241 18.4842 393.236 19.5749 393.883 20.7016L394.278 17.2496C394.278 16.2667 394.566 15.4277 395.141 14.7325C395.717 14.0134 396.496 13.6538 397.479 13.6538C398.462 13.6538 399.301 14.0134 399.996 14.7325C400.715 15.4277 401.075 16.2667 401.075 17.2496V17.3215L401.003 50.6185C401.003 51.6014 400.643 52.4524 399.924 53.1715C399.229 53.8667 398.39 54.2143 397.407 54.2143C396.424 54.2143 395.645 53.8667 395.07 53.1715C394.494 52.4524 394.207 51.6014 394.207 50.6185L393.811 47.7419C392.564 49.8754 390.743 51.4695 388.345 52.5243C385.948 53.5551 383.539 54.0705 381.118 54.0705C378.409 54.0705 375.868 53.5431 373.495 52.4883C371.122 51.4096 369.036 49.9353 367.238 48.0655C365.44 46.1957 364.026 44.0502 362.995 41.6291C361.988 39.2079 361.485 36.6549 361.485 33.97C361.485 31.3091 361.976 28.7681 362.959 26.3469C363.966 23.9018 365.356 21.7323 367.13 19.8386C368.928 17.9208 371.014 16.4226 373.387 15.3438C375.784 14.2411 378.385 13.6898 381.19 13.6898ZM393.595 33.8981C393.595 31.5489 393.044 29.3914 391.941 27.4257C390.862 25.46 389.388 23.8778 387.518 22.6792C385.649 21.4806 383.515 20.8813 381.118 20.8813C378.769 20.8813 376.647 21.4806 374.753 22.6792C372.86 23.8778 371.361 25.472 370.259 27.4616C369.156 29.4273 368.605 31.5608 368.605 33.8621C368.605 36.1874 369.168 38.3449 370.295 40.3346C371.421 42.3003 372.931 43.8824 374.825 45.081C376.743 46.2796 378.853 46.8789 381.154 46.8789C383.455 46.8789 385.541 46.2796 387.411 45.081C389.304 43.8824 390.803 42.3003 391.905 40.3346C393.032 38.3449 393.595 36.1994 393.595 33.8981Z" fill="#E6E6E6"/>
<path d="M349.941 53.3843C348.311 53.3843 346.885 52.809 345.662 51.6584C344.464 50.5077 343.864 49.1054 343.864 47.4513C343.864 45.7972 344.464 44.4069 345.662 43.2802C346.885 42.1295 348.311 41.5542 349.941 41.5542C351.571 41.5542 352.998 42.1295 354.22 43.2802C355.443 44.4069 356.054 45.7972 356.054 47.4513C356.054 49.1054 355.443 50.5077 354.22 51.6584C352.998 52.809 351.571 53.3843 349.941 53.3843Z" fill="#E6E6E6"/>
<path d="M320.241 13.7944C323.669 13.7944 326.774 14.5495 329.554 16.0598C332.359 17.546 334.433 19.5597 335.775 22.1007C336.063 22.6041 336.207 23.1794 336.207 23.8267C336.207 24.8095 335.847 25.6605 335.128 26.3797C334.433 27.0749 333.594 27.4225 332.611 27.4225C332.012 27.4225 331.388 27.2307 330.741 26.8472C330.118 26.4396 329.674 25.9722 329.411 25.4448C328.619 23.9585 327.433 22.8438 325.851 22.1007C324.269 21.3576 322.387 20.986 320.205 20.986C318.935 20.986 317.497 21.1538 315.89 21.4894C314.284 21.825 312.894 22.3644 311.719 23.1075C310.545 23.8507 309.957 24.8575 309.957 26.128C309.957 27.0629 310.437 27.806 311.396 28.3574C312.379 28.8848 313.577 29.2923 314.991 29.58C316.43 29.8676 317.868 30.0834 319.306 30.2272C320.745 30.3471 321.919 30.4549 322.83 30.5508C324.604 30.7426 326.354 31.0422 328.08 31.4498C329.806 31.8333 331.388 32.4086 332.827 33.1757C334.265 33.9428 335.404 34.9856 336.243 36.3041C337.106 37.6225 337.537 39.3006 337.537 41.3382C337.537 44.2388 336.698 46.612 335.02 48.4578C333.342 50.3037 331.196 51.6701 328.584 52.557C325.971 53.444 323.238 53.8875 320.385 53.8875C316.478 53.8875 312.918 53.1204 309.706 51.5862C306.517 50.028 304.156 47.7627 302.622 44.7901C302.334 44.2148 302.19 43.6515 302.19 43.1001C302.19 42.1173 302.538 41.2783 303.233 40.5831C303.952 39.8639 304.803 39.5043 305.786 39.5043C306.409 39.5043 307.033 39.7081 307.656 40.1156C308.303 40.4992 308.759 40.9666 309.022 41.518C309.957 43.3398 311.396 44.6583 313.337 45.4733C315.303 46.2884 317.64 46.6959 320.349 46.6959C321.787 46.6959 323.274 46.5401 324.808 46.2285C326.366 45.8929 327.673 45.3295 328.727 44.5384C329.806 43.7474 330.345 42.6686 330.345 41.3022C330.345 40.2475 329.878 39.4923 328.943 39.0369C328.032 38.5574 326.929 38.2458 325.635 38.102C324.364 37.9581 323.178 37.8263 322.075 37.7064C319.966 37.4907 317.784 37.215 315.531 36.8794C313.277 36.5198 311.18 35.9565 309.238 35.1894C307.32 34.4223 305.762 33.3196 304.564 31.8813C303.365 30.4429 302.766 28.5252 302.766 26.128C302.766 23.9705 303.281 22.1127 304.312 20.5545C305.367 18.9963 306.757 17.7258 308.483 16.743C310.209 15.7362 312.091 14.993 314.128 14.5136C316.19 14.0342 318.228 13.7944 320.241 13.7944Z" fill="#4ADE80"/>
<path d="M291.404 0.779785C292.555 0.779785 293.478 1.16334 294.173 1.93044C294.868 2.67357 295.204 3.48861 295.18 4.37558V50.6894C295.18 51.6482 294.796 52.4273 294.029 53.0266C293.286 53.6019 292.543 53.8896 291.8 53.8896C290.769 53.8896 289.87 53.554 289.103 52.8828C288.36 52.2116 287.988 51.3486 287.988 50.2938V4.37558C287.988 3.46464 288.312 2.63761 288.959 1.89448C289.63 1.15135 290.445 0.779785 291.404 0.779785Z" fill="#4ADE80"/>
<path d="M261.091 13.6898C262.865 13.6898 264.591 14.0493 266.269 14.7685C267.971 15.4637 269.481 16.3507 270.799 17.4294C272.142 18.4842 273.137 19.5749 273.784 20.7016L274.179 17.2496C274.179 16.2667 274.467 15.4277 275.042 14.7325C275.618 14.0134 276.397 13.6538 277.38 13.6538C278.362 13.6538 279.201 14.0134 279.897 14.7325C280.616 15.4277 280.975 16.2667 280.975 17.2496V17.3215L280.903 50.6185C280.903 51.6014 280.544 52.4524 279.825 53.1715C279.13 53.8667 278.291 54.2143 277.308 54.2143C276.325 54.2143 275.546 53.8667 274.97 53.1715C274.395 52.4524 274.107 51.6014 274.107 50.6185L273.712 47.7419C272.465 49.8754 270.643 51.4695 268.246 52.5243C265.849 53.5551 263.44 54.0705 261.019 54.0705C258.31 54.0705 255.769 53.5431 253.396 52.4883C251.022 51.4096 248.937 49.9353 247.139 48.0655C245.341 46.1957 243.927 44.0502 242.896 41.6291C241.889 39.2079 241.386 36.6549 241.386 33.97C241.386 31.3091 241.877 28.7681 242.86 26.3469C243.867 23.9018 245.257 21.7323 247.031 19.8386C248.829 17.9208 250.915 16.4226 253.288 15.3438C255.685 14.2411 258.286 13.6898 261.091 13.6898ZM273.496 33.8981C273.496 31.5489 272.945 29.3914 271.842 27.4257C270.763 25.46 269.289 23.8778 267.419 22.6792C265.549 21.4806 263.416 20.8813 261.019 20.8813C258.67 20.8813 256.548 21.4806 254.654 22.6792C252.76 23.8778 251.262 25.472 250.159 27.4616C249.057 29.4273 248.505 31.5608 248.505 33.8621C248.505 36.1874 249.069 38.3449 250.195 40.3346C251.322 42.3003 252.832 43.8824 254.726 45.081C256.644 46.2796 258.753 46.8789 261.055 46.8789C263.356 46.8789 265.442 46.2796 267.311 45.081C269.205 43.8824 270.703 42.3003 271.806 40.3346C272.933 38.3449 273.496 36.1994 273.496 33.8981Z" fill="#4ADE80"/>
<path d="M217.762 13.7944C221.19 13.7944 224.294 14.5495 227.075 16.0598C229.88 17.546 231.953 19.5597 233.296 22.1007C233.584 22.6041 233.727 23.1794 233.727 23.8267C233.727 24.8095 233.368 25.6605 232.649 26.3797C231.953 27.0749 231.114 27.4225 230.132 27.4225C229.532 27.4225 228.909 27.2307 228.262 26.8472C227.638 26.4396 227.195 25.9722 226.931 25.4448C226.14 23.9585 224.954 22.8438 223.371 22.1007C221.789 21.3576 219.908 20.986 217.726 20.986C216.456 20.986 215.017 21.1538 213.411 21.4894C211.805 21.825 210.415 22.3644 209.24 23.1075C208.065 23.8507 207.478 24.8575 207.478 26.128C207.478 27.0629 207.958 27.806 208.916 28.3574C209.899 28.8848 211.098 29.2923 212.512 29.58C213.951 29.8676 215.389 30.0834 216.827 30.2272C218.265 30.3471 219.44 30.4549 220.351 30.5508C222.125 30.7426 223.875 31.0422 225.601 31.4498C227.327 31.8333 228.909 32.4086 230.347 33.1757C231.786 33.9428 232.924 34.9856 233.763 36.3041C234.626 37.6225 235.058 39.3006 235.058 41.3382C235.058 44.2388 234.219 46.612 232.541 48.4578C230.863 50.3037 228.717 51.6701 226.104 52.557C223.491 53.444 220.759 53.8875 217.906 53.8875C213.998 53.8875 210.439 53.1204 207.226 51.5862C204.038 50.028 201.677 47.7627 200.143 44.7901C199.855 44.2148 199.711 43.6515 199.711 43.1001C199.711 42.1173 200.059 41.2783 200.754 40.5831C201.473 39.8639 202.324 39.5043 203.307 39.5043C203.93 39.5043 204.554 39.7081 205.177 40.1156C205.824 40.4992 206.279 40.9666 206.543 41.518C207.478 43.3398 208.916 44.6583 210.858 45.4733C212.824 46.2884 215.161 46.6959 217.87 46.6959C219.308 46.6959 220.794 46.5401 222.329 46.2285C223.887 45.8929 225.193 45.3295 226.248 44.5384C227.327 43.7474 227.866 42.6686 227.866 41.3022C227.866 40.2475 227.399 39.4923 226.464 39.0369C225.553 38.5574 224.45 38.2458 223.156 38.102C221.885 37.9581 220.699 37.8263 219.596 37.7064C217.486 37.4907 215.305 37.215 213.052 36.8794C210.798 36.5198 208.701 35.9565 206.759 35.1894C204.841 34.4223 203.283 33.3196 202.084 31.8813C200.886 30.4429 200.287 28.5252 200.287 26.128C200.287 23.9705 200.802 22.1127 201.833 20.5545C202.887 18.9963 204.278 17.7258 206.004 16.743C207.73 15.7362 209.612 14.993 211.649 14.5136C213.711 14.0342 215.748 13.7944 217.762 13.7944Z" fill="#4ADE80"/>
<path d="M174.61 13.8696C177.366 13.8696 179.931 14.397 182.305 15.4518C184.702 16.5065 186.799 17.9688 188.597 19.8386C190.395 21.7085 191.798 23.8539 192.804 26.2751C193.835 28.6963 194.351 31.2733 194.351 34.0061C194.351 36.6909 193.835 39.2439 192.804 41.6651C191.774 44.0623 190.347 46.1838 188.525 48.0296C186.728 49.8515 184.63 51.2898 182.233 52.3446C179.86 53.3994 177.319 53.9267 174.61 53.9267C171.925 53.9267 169.384 53.4113 166.987 52.3805C164.613 51.3498 162.516 49.9234 160.694 48.1016C158.896 46.2797 157.482 44.1702 156.451 41.773C155.42 39.3518 154.905 36.7628 154.905 34.0061C154.905 31.2733 155.42 28.6963 156.451 26.2751C157.482 23.8539 158.896 21.7204 160.694 19.8746C162.516 18.0048 164.613 16.5425 166.987 15.4877C169.36 14.409 171.901 13.8696 174.61 13.8696ZM162.168 34.078C162.168 36.4033 162.732 38.5248 163.858 40.4425C165.009 42.3363 166.531 43.8465 168.425 44.9732C170.319 46.0999 172.392 46.6632 174.646 46.6632C176.947 46.6632 179.033 46.0879 180.902 44.9373C182.796 43.7626 184.294 42.2164 185.397 40.2987C186.524 38.3809 187.087 36.2834 187.087 34.0061C187.087 31.6808 186.536 29.5473 185.433 27.6055C184.33 25.6399 182.832 24.0697 180.938 22.8951C179.068 21.7204 176.959 21.1331 174.61 21.1331C172.236 21.1331 170.115 21.7324 168.245 22.931C166.375 24.1056 164.889 25.6758 163.786 27.6415C162.708 29.5832 162.168 31.7287 162.168 34.078Z" fill="#FACC15"/>
<path d="M151.276 33.9668C151.276 36.6756 150.772 39.3126 149.765 41.8776C148.783 44.4426 147.296 46.7079 145.307 48.6736C143.557 50.3756 141.543 51.6941 139.266 52.629C136.988 53.5639 134.627 54.0313 132.182 54.0313C129.689 54.0313 127.471 53.5039 125.53 52.4492C123.612 51.3944 121.874 49.9681 120.316 48.1702V63.3085C120.316 64.2913 119.956 65.1303 119.237 65.8255C118.542 66.5447 117.703 66.9043 116.72 66.9043C115.737 66.9043 114.886 66.5447 114.167 65.8255C113.472 65.1303 113.124 64.2913 113.124 63.3085V17.3902C113.124 16.4074 113.472 15.5684 114.167 14.8732C114.886 14.154 115.737 13.7944 116.72 13.7944C117.703 13.7944 118.434 14.154 118.913 14.8732C119.417 15.5684 119.741 16.4074 119.884 17.3902L120.316 20.3028C121.682 18.3371 123.48 16.7909 125.71 15.6642C127.963 14.5376 130.204 13.9742 132.434 13.9742C135.143 13.9742 137.636 14.5136 139.913 15.5923C142.214 16.6711 144.216 18.1453 145.918 20.0152C147.62 21.861 148.938 23.9825 149.873 26.3797C150.808 28.7769 151.276 31.3059 151.276 33.9668ZM132.506 21.1658C130.947 21.1658 129.401 21.5134 127.867 22.2086C126.333 22.8798 125.026 23.8147 123.948 25.0133C122.869 26.1879 122.03 27.5903 121.431 29.2204C120.855 30.8265 120.568 32.4686 120.568 34.1466C120.568 36.4479 121.071 38.5694 122.078 40.5112C123.085 42.4529 124.475 44.0111 126.249 45.1857C128.023 46.3603 130.048 46.9476 132.326 46.9476C134.603 46.9476 136.629 46.3363 138.403 45.1138C140.177 43.8672 141.567 42.2611 142.574 40.2954C143.605 38.3057 144.12 36.1962 144.12 33.9668C144.12 31.7135 143.617 29.6159 142.61 27.6742C141.603 25.7325 140.225 24.1623 138.475 22.9637C136.725 21.7651 134.735 21.1658 132.506 21.1658Z" fill="#FACC15"/>
<path d="M88.025 13.8696C90.7818 13.8696 93.3468 14.397 95.72 15.4518C98.1172 16.5065 100.215 17.9688 102.013 19.8386C103.811 21.7085 105.213 23.8539 106.22 26.2751C107.25 28.6963 107.766 31.2733 107.766 34.0061C107.766 36.6909 107.25 39.2439 106.22 41.6651C105.189 44.0623 103.763 46.1838 101.941 48.0296C100.143 49.8515 98.0453 51.2898 95.6481 52.3446C93.2749 53.3994 90.7338 53.9267 88.025 53.9267C85.3401 53.9267 82.7991 53.4113 80.4019 52.3805C78.0287 51.3498 75.9312 49.9234 74.1093 48.1016C72.3114 46.2797 70.8971 44.1702 69.8663 41.773C68.8355 39.3518 68.3201 36.7628 68.3201 34.0061C68.3201 31.2733 68.8355 28.6963 69.8663 26.2751C70.8971 23.8539 72.3114 21.7204 74.1093 19.8746C75.9312 18.0048 78.0287 16.5425 80.4019 15.4877C82.7751 14.409 85.3162 13.8696 88.025 13.8696ZM75.5836 34.078C75.5836 36.4033 76.1469 38.5248 77.2736 40.4425C78.4242 42.3363 79.9465 43.8465 81.8402 44.9732C83.734 46.0999 85.8076 46.6632 88.061 46.6632C90.3623 46.6632 92.4478 46.0879 94.3176 44.9373C96.2114 43.7626 97.7097 42.2164 98.8124 40.2987C99.9391 38.3809 100.502 36.2834 100.502 34.0061C100.502 31.6808 99.951 29.5473 98.8483 27.6055C97.7456 25.6399 96.2474 24.0697 94.3536 22.8951C92.4838 21.7204 90.3743 21.1331 88.025 21.1331C85.6518 21.1331 83.5303 21.7324 81.6605 22.931C79.7906 24.1056 78.3044 25.6758 77.2017 27.6415C76.1229 29.5832 75.5836 31.7287 75.5836 34.078Z" fill="#F87171"/>
<path d="M67.4217 18.397C67.4217 20.3148 66.4988 21.3816 64.653 21.5973C63.9818 21.6692 63.1308 21.4535 62.1 20.9501C61.0692 20.4227 60.0264 20.159 58.9716 20.159C56.8861 20.159 55.232 20.6984 54.0094 21.7771C52.7869 22.8319 51.9119 24.2582 51.3845 26.0561C50.8571 27.854 50.5934 29.8676 50.5934 32.097V50.6513C50.5934 51.706 50.2698 52.5451 49.6226 53.1683C48.9993 53.7916 48.1243 54.1032 46.9976 54.1032C45.8949 54.1032 45.02 53.7916 44.3727 53.1683C43.7255 52.5451 43.4019 51.6941 43.4019 50.6153V17.4981C43.4019 16.4194 43.6655 15.5324 44.1929 14.8372C44.7443 14.142 45.4874 13.7944 46.4223 13.7944C46.9737 13.7944 47.6089 14.0342 48.3281 14.5136C49.0712 14.9691 49.5866 15.7601 49.8743 16.8868L50.2339 19.4758C50.5455 18.8046 51.1448 18.0255 52.0318 17.1385C52.9187 16.2516 53.9735 15.4845 55.1961 14.8372C56.4186 14.166 57.6891 13.8304 59.0076 13.8304C61.4527 13.8304 63.4664 14.1181 65.0485 14.6934C66.6307 15.2447 67.4217 16.4793 67.4217 18.397Z" fill="#F87171"/>
<path d="M38.1514 33.9668C38.1514 36.6756 37.6479 39.3126 36.6411 41.8776C35.6583 44.4426 34.172 46.7079 32.1823 48.6736C30.4324 50.3756 28.4187 51.6941 26.1414 52.629C23.8641 53.5639 21.5028 54.0313 19.0577 54.0313C16.5646 54.0313 14.3472 53.5039 12.4055 52.4492C10.4877 51.3944 8.74976 49.9681 7.19159 48.1702V63.3085C7.19159 64.2913 6.83201 65.1303 6.11285 65.8255C5.41766 66.5447 4.57864 66.9043 3.59579 66.9043C2.61294 66.9043 1.76194 66.5447 1.04278 65.8255C0.347593 65.1303 0 64.2913 0 63.3085V17.3902C0 16.4074 0.347593 15.5684 1.04278 14.8732C1.76194 14.154 2.61294 13.7944 3.59579 13.7944C4.57864 13.7944 5.30979 14.154 5.78923 14.8732C6.29264 15.5684 6.61626 16.4074 6.76009 17.3902L7.19159 20.3028C8.55799 18.3371 10.3559 16.7909 12.5853 15.6642C14.8386 14.5376 17.08 13.9742 19.3094 13.9742C22.0182 13.9742 24.5113 14.5136 26.7887 15.5923C29.09 16.6711 31.0916 18.1453 32.7936 20.0152C34.4956 21.861 35.8141 23.9825 36.749 26.3797C37.6839 28.7769 38.1514 31.3059 38.1514 33.9668ZM19.3813 21.1658C17.8231 21.1658 16.277 21.5134 14.7427 22.2086C13.2085 22.8798 11.9021 23.8147 10.8233 25.0133C9.7446 26.1879 8.90558 27.5903 8.30628 29.2204C7.73095 30.8265 7.44329 32.4686 7.44329 34.1466C7.44329 36.4479 7.9467 38.5694 8.95352 40.5112C9.96035 42.4529 11.3507 44.0111 13.1246 45.1857C14.8986 46.3603 16.9242 46.9476 19.2015 46.9476C21.4789 46.9476 23.5045 46.3363 25.2784 45.1138C27.0523 43.8672 28.4427 42.2611 29.4495 40.2954C30.4803 38.3057 30.9957 36.1962 30.9957 33.9668C30.9957 31.7135 30.4923 29.6159 29.4855 27.6742C28.4787 25.7325 27.1003 24.1623 25.3503 22.9637C23.6004 21.7651 21.6107 21.1658 19.3813 21.1658Z" fill="#F87171"/>
</svg>
