<svg width="42" height="47" viewBox="0 0 42 47" fill="none" xmlns="http://www.w3.org/2000/svg">
<g clip-path="url(#clip0_445_269)">
<path d="M1.59058 14.2861V32.7148C1.59058 33.8875 2.22069 34.9734 3.24843 35.5603L19.3428 44.7697C20.3706 45.3566 21.6308 45.3566 22.6585 44.7697L38.7529 35.5603C39.7807 34.9734 40.4108 33.8875 40.4108 32.7148V14.2861C40.4108 13.1133 39.7807 12.0275 38.7529 11.4405L22.6585 2.23121C21.6308 1.64428 20.3706 1.64428 19.3428 2.23121L3.24843 11.4405C2.2308 12.0275 1.59058 13.1133 1.59058 14.2861Z" fill="white"/>
<path d="M24.5195 27.0713L22.2214 33.3103C22.1541 33.483 22.1541 33.6756 22.2214 33.8483L26.1673 44.5867L30.7342 41.9717L25.2563 27.0713C25.1305 26.7249 24.6453 26.7249 24.5195 27.0713Z" fill="#213147"/>
<path d="M29.1145 16.5733C28.9887 16.2269 28.5035 16.2269 28.3777 16.5733L26.0796 22.8123C26.0122 22.9849 26.0122 23.1776 26.0796 23.3502L32.5459 40.9336L37.1128 38.3186L29.1145 16.5733Z" fill="#213147"/>
<path d="M21.0006 2.91237C21.1174 2.91237 21.2241 2.94133 21.3297 2.99924L38.7427 12.9681C38.946 13.084 39.0718 13.2944 39.0718 13.5261V33.4639C39.0718 33.6944 38.946 33.906 38.7427 34.0218L21.3297 44.0008C21.2331 44.0587 21.1163 44.0876 21.0006 44.0876C20.8849 44.0876 20.777 44.0587 20.6715 44.0008L3.2674 34.0319C3.0641 33.916 2.9383 33.7056 2.9383 33.4739V13.5261C2.9383 13.2956 3.0641 13.084 3.2674 12.9681L20.6804 2.99924C20.777 2.94133 20.8939 2.91237 21.0006 2.91237ZM21.0006 0C20.3806 0 19.7594 0.163717 19.2068 0.481126L1.79376 10.45C0.688525 11.0837 0 12.2576 0 13.5261V33.4639C0 34.7324 0.688525 35.9152 1.79376 36.55L19.2068 46.5189C19.7594 46.8363 20.3794 47 21.0006 47C21.6217 47 22.2417 46.8363 22.7943 46.5189L40.2074 36.55C41.3227 35.9152 42.0011 34.7424 42.0011 33.4639V13.5261C42.0011 12.2576 41.3126 11.0748 40.2074 10.44L22.8033 0.481126C22.2406 0.163717 21.6206 0 20.9994 0H21.0006Z" fill="#213147"/>
<path d="M19.5359 12.1025H15.1251C14.796 12.1025 14.495 12.3041 14.3883 12.6115L4.92529 38.3373L9.49224 40.9523L19.9145 12.6215C20.0021 12.3721 19.8179 12.1025 19.5359 12.1025Z" fill="#213147"/>
<path d="M27.2635 12.1025H22.8527C22.5236 12.1025 22.2226 12.3041 22.1159 12.6115L11.3062 41.9903L15.8731 44.6053L27.6319 12.6316C27.7285 12.3721 27.5353 12.1025 27.2635 12.1025Z" fill="#213147"/>
</g>
<defs>
<clipPath id="clip0_445_269">
<rect width="42" height="47" fill="white"/>
</clipPath>
</defs>
</svg>
