<svg width="100" height="100" viewBox="0 0 100 100" fill="none" xmlns="http://www.w3.org/2000/svg">
    <rect width="100" height="100" fill="black"/>
    <path d="M74.9418 49.9982C74.9418 44.9252 73.4178 40.2049 70.8072 36.2608L78.5508 28.5172L71.5868 21.5533L63.8644 29.2757C59.8991 26.6122 55.1295 25.0564 50.0035 25.0564C44.9305 25.0564 40.2102 26.5804 36.2661 29.191L28.519 21.4474L21.5551 28.4114L29.2775 36.1338C26.614 40.0991 25.0582 44.8687 25.0582 49.9947C25.0582 55.0677 26.5822 59.788 29.1928 63.7321L21.4492 71.4792L28.4132 78.4431L36.1356 70.7207C40.1009 73.3842 44.8705 74.94 49.9965 74.94C55.0695 74.94 59.7897 73.416 63.7338 70.8054L71.481 78.5525L78.4449 71.5886L70.7225 63.8661C73.386 59.8938 74.9418 55.1242 74.9418 49.9982ZM34.9114 49.9982C34.9114 41.6761 41.6814 34.9061 50.0035 34.9061C58.3257 34.9061 65.0956 41.6761 65.0956 49.9982C65.0956 58.3204 58.3257 65.0903 50.0035 65.0903C41.6814 65.0903 34.9114 58.3204 34.9114 49.9982Z"
          fill="white"/>
</svg>
